<svg width="200" height="200" viewBox="0 0 200 200" fill="none" xmlns="http://www.w3.org/2000/svg"><path d="M133.964 32.781c-.807 6.368-14.243 6.456-17.067 1.562-1.614-2.965 1.754-5.403 4.35-6.07a14.032 14.032 0 0110.156.93 4.598 4.598 0 012.561 3.508v4.21a3.894 3.894 0 01-.947 2.298c-3.508 3.508-9.788 3.508-14.033 1.28a4.637 4.637 0 01-2.578-3.508V33.08M106.39 135.151c.175 9.244-.369 22.488.228 31.715 2.701 7.174 11.822 9.016 18.663 9.209m0 0c6.842-.193 15.963-2.035 18.664-9.209.597-9.209 0-22.488.228-31.715m-18.892 40.924v10.77m-12.366-13.156v6.719l12.366 7.139 12.279-7.139v-6.719m38.995-129.507c4.666 2.719 9.718 1 10.524-4.648a23.247 23.247 0 00-12.594-21.804c-5.263-2.175-9.262 1.35-9.244 6.753m16.664 16.63c7.016-5.263-3.316-23.208-11.367-19.682m13.454 23.33c2.509-1.438 5.736-3.333 8.262-4.771 1.473-.842 3.947-2.07 4.771-3.631 2.579-5.052.527-11.28-2.017-15.928-2.543-4.648-7.122-9.437-12.788-9.718-1.754 0-4.052 1.474-5.525 2.316l-8.262 4.771m-43.222 35.083v88.548m24.663-102.915l-7.227 10.069m7.227-10.069v88.549l-7.227 10.068m7.227-98.617l-7.227-10.068c-19.067-4.86-15.787-4.877-34.872 0l-7.227 10.068m42.099 10.069v88.548m0-88.548c-19.085 4.841-15.752 4.859-34.872 0l-7.227-10.069m42.099 98.617c-19.085 4.859-15.804 4.842-34.872 0m0 0v-53.22m0 53.22l-7.227-10.068v-39.03m7.227-26.522V48.639m0 12.875c6.508 1.456 14.367 9.016 10.122 15.91-21.734 14.366-60.781 35.153-83.129 48.642m73.007-64.552c-.754-.947-1.964-2.526-3.333-1.93l-81.058 46.801m77.164-67.868V61.83m15.261 17.4c8.367-5.718-.684-16.436-8.034-17.769-.754-.947-1.947-2.526-3.333-1.93m45.432.036l32.031-18.506.807-.632a7.624 7.624 0 001.438-6.069c-.982-5.876-5.157-12.84-11.577-13.524a5.738 5.738 0 00-2.035.544l-23.312 13.454M20.56 139.064l8.262-4.771c2.947-1.439 5.438-3.28 5.841-6.806 1.526-8.648-8.77-25.786-18.664-21.734l-8.262 4.754a12.589 12.589 0 00-4.771 3.648c-2.877 5.842 0 12.946 3.333 17.98 3.333 5.034 11.682 11.49 16.278 4.877 5-8.771-7.016-29.242-17.541-24.909" stroke="#fff" stroke-linecap="round" stroke-linejoin="round" opacity=".5"/></svg>