<svg width="320" height="320" viewBox="0 0 320 320" fill="none" xmlns="http://www.w3.org/2000/svg"><path d="M190.099 288.856c-45.8 7.465-101.03 2.133-135.324-32.357-13.246-15.183-14.032-33.003-10.889-52.031m-1.403 10.187c4.827 54.388 86.381 68.616 130.413 64.295M136.777 66.731a9.966 9.966 0 009.093-3.199 33.68 33.68 0 00.393-8.25m-10.72 4.49c3.704.617 9.963 0 10.72-4.49-.926-5.22-9.037-5.445-13.022-3.845m-66.68.505c-4.125-2.161-11.702-2.217-14.031 2.61a31.995 31.995 0 00.309 8.98c2.189 3.171 6.82 3.592 10.327 3.03m-10.72-11.225c.87 4.911 8.026 5.276 11.927 4.21M2.913 136.02l207.672 119.972 32.049-18.522m64.547-37.296l-20.964 12.123m-89.804-76.137l110.88 64.014M2.857 136.021v44.649L210.53 300.615l23.517-13.555m73.135-86.998v23.995m-134.285-30.674c2.049 19.953 49.841 19.953 51.918 0M3.11 119.211l96.651 55.79 83.855-48.41M18.461 110.342l-14.958 8.869v16.838l96.651 55.819 96.624-55.819v-2.554M126.983 27.61l10.243 41.45m-.982 26.268a18.106 18.106 0 004.154-8.672m-71.45 13.078c17.343 11.057 41.758 10.973 59.803 1.516M62.857 68.555c-2.076 8.953-6.679 18.915.842 26.773m9.29-67.718C70.659 44 96.674 47.592 108.433 45.094c9.064-1.431 23.124-8.896 17.54-19.897-9.346-13.162-32.105-13.33-45.323-6.258a15.632 15.632 0 00-8.11 10.44c-1.993 7.773-7.634 31.038-9.683 39.289m63.312-5.894c-2.076-1.094-4.35.702-5.612 2.161-2.442 2.806-3.508 8.139.224 10.468m47.709 2.245c1.01 6.062 13.161 6.062 16.024 1.46 1.656-3.284-2.554-5.613-5.276-5.95-3.536-.561-8.139 0-10.328 3.03a35.131 35.131 0 00-.42 8.251c1.094 5.613 11.057 5.613 14.846 2.807 2.806-2.133 1.178-6.567 1.571-9.57m-171.19 0c1.01 6.062 13.163 6.062 15.997 1.46 1.684-3.284-2.526-5.613-5.248-5.95-3.536-.561-8.138 0-10.327 3.03a33.68 33.68 0 00-.421 8.252c1.066 5.612 11.057 5.612 14.845 2.806 2.807-2.133 1.18-6.567 1.572-9.57m116.128-22.03l29.888 17.231m-152.386 0l28.793-16.614M13.886 78.743l-.701.42-9.795 5.613v16.839l96.652 55.79 78.831-45.603m17.793-19.449v-7.605l-11.731-6.791M136.272 95.3a24.48 24.48 0 003.901-6.932M68.948 99.79c17.652 11.226 42.909 11.226 60.926.786m-77.316 6.118c.758 6.342 15.632 6.342 16.39 0m60.926 0c.758 6.342 15.632 6.342 16.389 0m22.255-22.451c.786 6.314 15.631 6.314 16.417 0m-93.733 44.621c.786 6.343 15.632 6.343 16.417 0M13.886 84.243c.786 6.314 15.632 6.314 16.418 0m29.467-3.368a16.165 16.165 0 004.153 14.537m72.713-28.85c3.452.31 9.037-.476 9.626-4.63m-93.705 0c.758 4.547 7.072 5.108 10.805 4.462M3.503 84.748l96.651 55.791 66.371-38.335m30.253-17.456l-15.884 9.177m36.707 84.191a41.143 41.143 0 00-26.38-3.648c-7.437 1.516-17.343 5.613-17.933 14.257-.421 5.332.449 10.018 4.94 13.414 11.758 9.121 40.299 9.065 46.669-6.455 1.291-7.717.001-13.554-7.296-17.568m-44.313 10.609c2.077 19.953 49.87 19.925 51.918 0M129.79 99.931c1.01 6.061 13.133 6.061 15.996 1.459 1.684-3.311-2.526-5.613-5.276-5.978-3.508-.56-8.139 0-10.328 3.031a33.633 33.633 0 00-.392 8.251c1.066 5.613 11.029 5.613 14.817 2.806 2.807-2.132 1.207-6.566 1.572-9.541m-93.705 0c.982 6.062 13.134 6.062 15.996 1.459 1.684-3.311-2.525-5.613-5.276-5.978-3.508-.56-8.138 0-10.327 3.031a33.677 33.677 0 00-.393 8.251c1.066 5.613 11.029 5.613 14.818 2.807 2.806-2.133 1.206-6.567 1.571-9.542m93.172-16.446c-9.261-5.248-27.306-15.94-36.483-21.02-4.631-.505-8.419 6.034-6.988 10.132a5.365 5.365 0 002.161 2.806l58.401 33.677m6.96-11.76l-23.939-13.835m145.427 140.516c-4.406-2.554-10.047-5.753-14.481-8.419a23.783 23.783 0 00-8.589-4.11 23.788 23.788 0 00-9.512-.409c-27.615 6.848-52.985 50.515-40.019 77.204 5.191 7.689 15.491 10.945 22.984 15.94 19.644 11.983 40.187-9.991 49.617-25.791 9.429-15.799 18.887-53.826-8.419-56.66-30.477-.281-66.287 63.396-38.728 83.882m2.048-32.61c-4.883-2.076-11.225 8.644-6.847 11.843M91.202 122.157c1.01 6.062 13.162 6.062 15.996 1.46 1.684-3.312-2.525-5.613-5.247-5.978-3.536-.533-8.14 0-10.328 3.059a33.423 33.423 0 00-.421 8.223c1.094 5.753 11.057 5.753 14.846 2.806 2.806-2.161 1.179-6.567 1.571-9.57m154.856 150.955c-4.406-1.599-8.419 5.136-8.25 8.953-.562 3.059 5.893 5.079 7.605 6.454 2.497 1.179 8.699 5.866 11.618 5.332a6.867 6.867 0 005.55-3.692 6.877 6.877 0 00-.189-6.663c-3.649-4.126-11.816-7.353-16.334-10.384m-47.961-174.36a20.486 20.486 0 10-9.401 34.182 20.545 20.545 0 009.401-34.182" stroke="#fff" stroke-linecap="round" stroke-linejoin="round" opacity=".5"/></svg>