<svg width="320" height="320" viewBox="0 0 320 320" fill="none" xmlns="http://www.w3.org/2000/svg"><path d="M56.928 173.148a19.836 19.836 0 01-6.183-1.434 21.356 21.356 0 01-11.047-16.864 27.77 27.77 0 015.987-21.334 15.658 15.658 0 0121.221-3.429c10.288 7.645 11.243 23.667 4.497 34.01a17.928 17.928 0 01-15.121 8.91m124.01 84.07v43.342m-35.753-247.88l7.477 4.3M64.883 207.861l-7.674-4.188m0 0l7.477 4.244m-7.477-4.244l-4.89 2.81m237.592-95.565l-37.551 21.671m-72.04-59.026c-47.249 34.319-81.202 93.148-87.302 151.218m.76 31.818c2.81 17.876 11.383 36.287 27.573 45.59m168.645-191.131c-4.329-45.871-37.524-69.819-81.653-52.757M64.77 208.282c-.14 1.602-.421 5.285-.478 6.859m116.084-98.377a114.794 114.794 0 00-9.781 8.686m-21.081 132.105c-2.08 5.228-2.81 14.644 4.216 16.19 7.899.506 13.773-7.168 16.865-13.604a55.767 55.767 0 009.781-2.614m72.068-124.854a53.204 53.204 0 00-2.642-9.753c4.047-5.903 7.757-14.813 3.373-21.418-4.835-5.312-12.621 0-16.134 4.441m-66.446 19.675c-3.542-3.71-9.191-1.377-12.592 1.377-6.69 5.847-12.761 16.865-8.433 25.578a159.288 159.288 0 00-3.457 6.015c-9.697.675-16.19 11.44-17.904 20.153-.675 4.329 0 10.372 5.115 11.581m100.316-86.319c3.879-9.528-.281-21.333-11.805-14.053m0 146.777c8.657-4.497 16.471-18.27 11.805-27.658.899-1.489 2.642-4.497 3.457-6.015 10.484-.646 18.495-14.335 18.073-24.032m6.521-119.625c-27.461-15.88-59.194-34.15-86.739-50.06a50.933 50.933 0 00-21.643-6.436C113.958 1.58 80.398 30.306 56.45 58.835 21.4 101.614-10.558 176.886 14.88 230.6a53.405 53.405 0 0017.23 19.675c20.237 12.058 47.36 27.349 67.738 39.35 9.051 4.722 20.8 13.211 30.385 16.443 16.499 5.453 34.74 1.799 50.228-5.171m41.374-28.614a232.61 232.61 0 0064.141-111.109M128.04 252.383c-.562 13.576 11.721 11.243 18.073 3.176 1.126.735 2.29 1.41 3.486 2.024m72.236-107.146l30.693-17.736m-72.067 89.41v34.966m0-95.79a56.204 56.204 0 00-11.019 19.309m64.282 28.108c-3.232-5.622-10.849-2.389-14.391 1.265m11.805-20.434c-1.377 4.862-.337 13.07 6.1 13.098m-66.699 57.255a53.116 53.116 0 009.753-2.586m22.008-57.34a60.053 60.053 0 0011.412-19.675m-43.201 79.601c2.108-4.975 3.597-11.496 0-16.162-8.236-7.168-18.804 6.212-21.278 13.548-.871-.422-2.614-1.434-3.429-1.968a26.673 26.673 0 006.549-17.426m69.313-119.935a26.646 26.646 0 0011.833-14.391c.872.449 2.614 1.433 3.43 1.995-4.891 5.622-10.85 19.676-2.474 24.679 6.015 2.333 11.89-3.204 15.263-7.674m-80.725 1.715c7.448 4.3 1.967 17.792-1.771 22.795s-12.929 12.171-17.792 5.003c-.928 1.518-2.811 4.498-3.513 6.072 8.657.618 7.167 12.282 4.581 17.904-2.614 6.156-11.412 17.539-18.86 13.239m1.658.562a111.447 111.447 0 00-2.642 12.817m183.345-83.817l-58.997 33.982-21.193 12.255m0 0l-6.296 10.063m6.296-10.063l-12.143-7.027m5.847 17.09v12.873m0-12.873l-11.412-6.606m-11.074 6.437c4.356 2.473 24.481 14.531 28.866 15.853l4.75-2.811 75.216-43.37v-25.803l-24.763-14.278M215.96 207.889l-11.018 6.352-5.621 10.456v92.446m0 0l-24.763-14.307m24.763 14.307l22.289-12.874v-92.445c-3.429-3.176-23.695-14.447-28.107-17.061m-6.268 22.963l12.142 6.999m-12.142-6.999l-79.938 46.322-39.941-23.077v-6.436l-7.42-4.273v6.578m127.299-19.114l6.296-10.062m0 0l11.411 6.605m-11.411-6.605v-12.873l-24.37-14.054m11.131 119.794V221.83m30.244 1.602a12.28 12.28 0 00-5.622 9.613c0 1.996 1.181 4.244 3.429 3.963a11.075 11.075 0 007.589-9.05c.703-3.739-1.742-6.718-5.453-4.526m-143.348-8.207l39.941 23.048 80.05-46.209M67.244 221.549l-7.42-4.272v-6.606l-7.505-4.188m0 0v26.056l7.504 4.329 5.622-3.289m1.799-11.889v-6.437l4.862-2.811L92.962 224.5l75.188-43.426m-60.966 83.002v-25.775m-42.498-30.3c-.14 1.602-.422 5.284-.478 6.858m-.084 0l3.035 1.771M199.265 78.65v92.418M159.436 55.462l39.941 23.048 22.289-12.873m-77.127-18.748l7.477 4.329 5.621-3.289 7.449 4.3m-20.547-5.34l22.486-13.014 7.421 4.329v6.577m-29.907 2.108v5.622l7.477 4.3m28.613 104.11l24.37 14.054 11.243-6.437 5.621-10.484V65.637L181.95 42.56l-5.621 3.233-7.421-4.3 5.622-3.29m5.846 121.706V73.085l-20.855-12.03v-5.621l5.621-3.233m-7.448.787c-1.35.844-4.357 2.811-5.622 3.823m58.464 89.803a12.337 12.337 0 00-5.622 9.641c0 4.301 3.767 4.947 6.634 2.446a13.018 13.018 0 004.384-7.561c.703-3.739-1.742-6.718-5.453-4.526m-52.842-93.626l3.036 1.912m-92.446 90.197c-2.389 6.127-4.75 12.283-7.139 18.382l-14.25-8.236 7.139-18.382 14.25 8.236zm177.499 19.984a11.02 11.02 0 00-7.533 9.023c-.449 2.276.45 5.621 3.317 5.228a10.935 10.935 0 007.533-8.995c.45-2.277-.45-5.621-3.317-5.256zm-70.55 40.84a13.608 13.608 0 00-3.401 6.69c-.899 7.252 5.622 6.268 8.686 1.686a10.345 10.345 0 002.08-9.107c-1.546-3.26-5.622-1.292-7.365.731z" stroke="#fff" stroke-linecap="round" stroke-linejoin="round" opacity=".5"/></svg>