<svg width="320" height="320" viewBox="0 0 320 320" fill="none" xmlns="http://www.w3.org/2000/svg"><path d="M96.224 267.912c-10.003-.715-20.159-6.303-28.452-11.535-7.656-4.72-17.863-9.288-24.37-15.693-34.806-39.961-11.585-108.579 12.76-148.642C79.688 54.965 123.476 8.93 171.63 18.398c8.829 2.551 17.862 8.854 25.798 13.243 8.625 4.593 18.628 10.54 24.217 18.884l-18.092-15.311c-48.765-18.832-99.393 33.173-122.971 70.991-25.084 40.139-50.5 118.479-6.788 153.771m204.705-61.014c15.31-36.337 26.589-87.399-2.016-119.934-6.788-6.558-17.072-11.253-25.059-16.102-24.217-17.3-49.148-12.606-73.696 1.174-47.438 29.116-79.718 81.657-89.874 135.934-4.797 29.422-2.143 68.898 27.713 84.209 12.759 6.839 25.671 17.327 40.65 18.577 49.198 1.531 89.976-44.35 112.483-83.826m-5.104-148.923c-48.765-18.832-99.52 33.174-122.971 70.991-25.084 40.114-50.5 118.454-6.787 153.745m104.24-177.298c-31.106-11.636-62.595 23.757-75.916 48.484-12.299 23.323-23.884 63.514 0 83.061m29.882 16.663a19.594 19.594 0 00-1.225 13.601l2.552 3.062 3.955.766c8.089-1.786 14.239-10.207 16.127-17.863m-12.759-53.205a53.58 53.58 0 0024.447-42.334m-34.552 98.857a22.08 22.08 0 000 10.794l2.552 3.062 3.956.765c7.885-1.633 13.473-9.671 15.974-16.842m-22.584 2.221l1.225-2.807m71.45-77.473l-9.773 5.64-4.874 12.606 4.874 6.966M196.714 226.7l-9.774 5.64-4.874 12.605 4.874 6.941m87.272-57.185c5.563-18.679 8.472-42.717-5.665-58.334-7.426-6.354-17.608-10.667-25.85-15.898-10.207-7.502-24.319-6.048-35.266-.919-28.223 14.035-47.667 42.998-56.139 72.803-5.487 20.032-6.278 49.148 15.31 59.635 4.798 2.756 11.535 6.686 16.332 9.417a34.45 34.45 0 0015.056 5.843c28.86.613 51.648-24.956 65.198-47.974m-1.735-88.521c-28.989-10.845-57.798 19.164-71.935 41.543-14.698 23.859-29.627 68.898-3.981 89.951m15.515-50.475a53.583 53.583 0 0024.446-42.334m.612-.306c-13.014 7.655-21.766 21.869-24.522 36.465-2.246 11.355 2.092 26.105 16.357 23.247 16.994-4.645 28.069-22.609 31.438-39.119 1.25-7.656.663-17.863-6.967-22.15m23.732 33.173l-4.874 12.606m4.874-12.606l-12.325-7.119m12.325 7.119l9.773-5.639m-24.548 4.823c-.536 1.429-1.888 4.925-2.552 6.303l4.874 6.966 12.325 7.094 9.774-5.639 4.899-12.581-4.899-6.966-12.325-7.119-9.774 5.639-2.552 6.303m14.775 20.414l-4.874-6.941-12.325-7.119m-49.249 32.892l-4.9 12.581m4.9-12.581l-12.325-7.119m12.325 7.119l9.773-5.639m-14.673 18.22l4.9 6.966m-4.9-6.966c-.178 0-12.121-7.018-12.299-7.094m17.199 14.06c-.128-.102-12.172-7.119-12.325-7.119l-4.874-6.941m17.199 14.06l9.773-5.639 4.899-12.606-4.899-6.941m-26.972 11.126l4.874-12.606m0 0l9.773-5.64 12.325 7.12m23.451-79.999l-4.874 12.606m4.874-12.606l9.773-5.639m-9.773 5.639l-12.274-7.094c-.842 2.195-4.083 10.488-4.848 12.53 1.199 1.735 3.674 5.103 4.874 6.94l12.325 7.12 9.773-5.639 4.899-12.606-4.899-6.941-12.325-7.12-9.773 5.64m7.374 19.776l4.874 6.941m-4.874-6.941l-12.325-7.119M74.993 134.683c3.547-4.211 11.739-8.83 15.311-2.399 2.73 6.226-.255 13.575-3.853 18.832-4.517 6.941-16.689 12.989-18.22.715a25.516 25.516 0 016.66-17.148m60.095 34.704c3.547-4.236 11.738-8.855 15.311-2.424 2.73 6.226-.255 13.601-3.853 18.857-4.492 6.941-16.689 12.989-18.22.715a25.363 25.363 0 016.66-17.148m124.655-72.496c3.547-4.236 11.738-8.855 15.311-2.552 2.73 6.226-.256 13.601-3.854 18.858-4.491 6.915-16.688 12.988-18.22.714a25.368 25.368 0 016.661-17.148" stroke="#fff" stroke-linecap="round" stroke-linejoin="round" opacity=".5"/></svg>