<svg width="55" height="55" viewBox="0 0 55 55" fill="none" xmlns="http://www.w3.org/2000/svg"><g clip-path="url(#clip0_425_49021)" fill="#fff"><path fill-rule="evenodd" clip-rule="evenodd" d="M42.07 50.84A27.476 27.476 0 0055 27.54 27.474 27.474 0 0042.07 4.244l-.183-.133-1.065 4.81.15.1a22.9 22.9 0 019.452 18.521 22.899 22.899 0 01-9.452 18.54l-.15.132 1.065 4.793.183-.166zM0 26.543A27.525 27.525 0 0127.492 0a27.508 27.508 0 0112.914 3.228l.2.117-3.612 3.328h-.166a23.031 23.031 0 00-9.32-1.98A22.915 22.915 0 004.71 25.212v.166L.033 26.86 0 26.543zm40.406 25.245a27.559 27.559 0 01-12.914 3.229A27.525 27.525 0 010 28.474v-.25l4.676 1.481v.2a22.915 22.915 0 0022.8 20.519 23.08 23.08 0 009.318-1.98h.183l3.595 3.328-.166.016z"/><path d="M15.377 39.19h2.163c.322-.022.644-.022.966 0 .202.04.394.12.565.233.168.121.31.274.416.45.115.19.173.41.167.632 0 .247-.069.49-.2.699a1.446 1.446 0 01-.566.483c.3.075.569.244.766.482.178.234.272.522.266.816.001.253-.056.504-.166.732a1.53 1.53 0 01-1.215.815h-3.162V39.19zm1.098.9v1.264h1.515a.815.815 0 00.432-.2.566.566 0 00.167-.433.6.6 0 00-.133-.399.65.65 0 00-.416-.183 8.422 8.422 0 00-.932 0l-.633-.05zm0 2.162V43.7h1.015c.25.017.5.017.75 0a.682.682 0 00.399-.216.682.682 0 00.15-.466.682.682 0 00-.117-.416.766.766 0 00-.35-.233 3.046 3.046 0 00-.965 0l-.882-.117zm5.891-2.995h-1.098v5.425h1.098v-5.425zm1.316 3.628l1.031-.1c.04.29.175.56.383.766.221.163.491.245.766.233a1.13 1.13 0 00.765-.216.614.614 0 00.242-.67.414.414 0 00-.092-.146.882.882 0 00-.383-.233l-.848-.233a2.612 2.612 0 01-1.182-.516 1.314 1.314 0 01-.483-1.048 1.348 1.348 0 01.217-.749c.166-.238.397-.422.665-.533a2.7 2.7 0 011.032-.183 2.246 2.246 0 011.481.433 1.563 1.563 0 01.516 1.165h-1.048a.982.982 0 00-.3-.582 1.065 1.065 0 00-.666-.167c-.251-.011-.5.052-.715.183a.381.381 0 00-.167.333.415.415 0 00.15.316c.295.181.623.3.965.35.395.082.78.205 1.149.366.234.128.433.31.582.532.14.26.21.553.2.849 0 .296-.087.585-.25.832-.162.266-.408.47-.699.583a2.895 2.895 0 01-1.148.2 2.196 2.196 0 01-1.514-.467 1.997 1.997 0 01-.65-1.331m5.608-.849a3.33 3.33 0 01.233-1.348 2.58 2.58 0 01.482-.716c.193-.2.425-.36.683-.466a2.695 2.695 0 011.131-.216 2.512 2.512 0 011.848.715 2.763 2.763 0 01.698 1.997 2.762 2.762 0 01-.698 1.998 2.446 2.446 0 01-1.831.715 2.513 2.513 0 01-1.864-.715 2.762 2.762 0 01-.682-1.964zm1.081 0c-.034.485.114.966.416 1.348a1.331 1.331 0 001.032.45 1.332 1.332 0 001.049-.45 2.03 2.03 0 00.399-1.365 1.98 1.98 0 00-.4-1.348 1.282 1.282 0 00-1.048-.45 1.33 1.33 0 00-1.048.45c-.296.39-.438.876-.4 1.365zm5.325 2.663v-5.409h1.065l2.23 3.611v-3.61h1.015v5.408h-1.098l-2.18-3.528v3.528h-1.032zM19.553 12.481l-8.936 11.832-8.754 3.312 7.206 1.331 1.847 7.555 3.112 1.415 5.492-4.61-.017 4.61 3.395-4.46v4.46l4.626-6.907 9.02-.016v6.956l3.462-4.493.016 4.493 8.055-12.281"/></g><defs><clipPath id="clip0_425_49021"><path fill="#fff" d="M0 0h55v55H0z"/></clipPath></defs></svg>