<svg width="24" height="24" viewBox="0 0 24 24" fill="none" xmlns="http://www.w3.org/2000/svg">
<path fill-rule="evenodd" clip-rule="evenodd" d="M22 12C22 17.5228 17.5228 22 12 22C6.47715 22 2 17.5228 2 12C2 6.47715 6.47715 2 12 2C17.5228 2 22 6.47715 22 12ZM24 12C24 18.6274 18.6274 24 12 24C5.37258 24 0 18.6274 0 12C0 5.37258 5.37258 0 12 0C18.6274 0 24 5.37258 24 12ZM12 6.5C12.5523 6.5 13 6.94772 13 7.5V7.51029V7.52056V7.53081V7.54105V7.55127V7.56147V7.57165V7.58182V7.59197V7.6021V7.61221V7.62231V7.63239V7.64246V7.65251V7.66254V7.67255V7.68255V7.69253V7.7025V7.71245V7.72238V7.7323V7.7422V7.75208V7.76195V7.7718V7.78164V7.79146V7.80127V7.81106V7.82083V7.83059V7.84034V7.85007V7.85978V7.86948V7.87916V7.88883V7.89848V7.90812V7.91774V7.92735V7.93694V7.94652V7.95609V7.96564V7.97517V7.98469V7.9942V8.00369V8.01317V8.02264V8.03209V8.04152V8.05095V8.06035V8.06975V8.07913V8.0885V8.09785V8.10719V8.11652V8.12583V8.13514V8.14442V8.1537V8.16296V8.17221V8.18144V8.19067V8.19988V8.20907V8.21826V8.22743V8.23659V8.24574V8.25487V8.26399V8.2731V8.2822V8.29129V8.30036V8.30942V8.31847V8.32751V8.33654V8.34555V8.35456V8.36355V8.37253V8.3815V8.39046V8.3994V8.40834V8.41726V8.42618V8.43508V8.44397V8.45285V8.46172V8.47058V8.47943V8.48827V8.49709V8.50591V8.51472V8.52351V8.5323V8.54107V8.54984V8.55859V8.56734V8.57608V8.5848V8.59352V8.60223V8.61092V8.61961V8.62829V8.63696V8.64562V8.65427V8.66291V8.67154V8.68016V8.68878V8.69738V8.70598V8.71457V8.72314V8.73171V8.74028V8.74883V8.75737V8.76591V8.77444V8.78296V8.79147V8.79997V8.80847V8.81696V8.82544V8.83391V8.84237V8.85083V8.85928V8.86772V8.87615V8.88458V8.893V8.90141V8.90981V8.91821V8.9266V8.93499V8.94336V8.95173V8.9601V8.96845V8.9768V8.98515V8.99348V9.00181V9.01014V9.01846V9.02677V9.03507V9.04337V9.05167V9.05995V9.06823V9.07651V9.08478V9.09304V9.1013V9.10956V9.1178V9.12605V9.13428V9.14252V9.15074V9.15896V9.16718V9.17539V9.1836V9.1918V9.2V9.20819V9.21638V9.22456V9.23274V9.24091V9.24908V9.25725V9.26541V9.27357V9.28172V9.28987V9.29801V9.30616V9.31429V9.32243V9.33056V9.33869V9.34681V9.35493V9.36304V9.37116V9.37927V9.38737V9.39548V9.40358V9.41167V9.41977V9.42786V9.43595V9.44404V9.45212V9.4602V9.46828V9.47635V9.48443V9.4925V9.50057V9.50864V9.5167V9.52477V9.53283V9.54089V9.54894V9.557V9.56505V9.57311V9.58116V9.58921V9.59725V9.6053V9.61335V9.62139V9.62943V9.63748V9.64552V9.65356V9.6616V9.66964V9.67768V9.68571V9.69375V9.70179V9.70982V9.71786V9.72589V9.73393V9.74196V9.75V9.75803V9.76607V9.77411V9.78214V9.79018V9.79821V9.80625V9.81429V9.82232V9.83036V9.8384V9.84644V9.85448V9.86252V9.87056V9.87861V9.88665V9.8947V9.90275V9.91079V9.91884V9.92689V9.93495V9.943V9.95106V9.95911V9.96717V9.97523V9.9833V9.99136V9.99943V10.0075V10.0156V10.0236V10.0317V10.0398V10.0479V10.056V10.0641V10.0721V10.0802V10.0883V10.0964V10.1045V10.1126V10.1207V10.1288V10.137V10.1451V10.1532V10.1613V10.1694V10.1776V10.1857V10.1938V10.202V10.2101V10.2183V10.2264V10.2346V10.2428V10.2509V10.2591V10.2673V10.2754V10.2836V10.2918V10.3V10.3082V10.3164V10.3246V10.3328V10.341V10.3493V10.3575V10.3657V10.374V10.3822V10.3904V10.3987V10.407V10.4152V10.4235V10.4318V10.44V10.4483V10.4566V10.4649V10.4732V10.4815V10.4899V10.4982V10.5065V10.5149V10.5232V10.5315V10.5399V10.5483V10.5566V10.565V10.5734V10.5818V10.5902V10.5986V10.607V10.6154V10.6238V10.6323V10.6407V10.6492V10.6576V10.6661V10.6746V10.683V10.6915V10.7V10.7085V10.717V10.7256V10.7341V10.7426V10.7512V10.7597V10.7683V10.7769V10.7854V10.794V10.8026V10.8112V10.8198V10.8285V10.8371V10.8457V10.8544V10.863V10.8717V10.8804V10.8891V10.8978V10.9065V10.9152V10.9239V10.9327V10.9414V10.9502V10.9589V10.9677V10.9765V10.9853V10.9941V11.0029V11.0117V11.0206V11.0294V11.0383V11.0471V11.056V11.0649V11.0738V11.0827V11.0917V11.1006V11.1095V11.1185V11.1275V11.1364V11.1454V11.1544V11.1635V11.1725V11.1815V11.1906V11.1996V11.2087V11.2178V11.2269V11.236V11.2451V11.2543V11.2634V11.2726V11.2817V11.2909V11.3001V11.3093V11.3186V11.3278V11.337V11.3463V11.3556V11.3649V11.3742V11.3835V11.3928V11.4021V11.4115V11.4209V11.4303V11.4396V11.4491V11.4585V11.4679V11.4774V11.4868V11.4963V11.5058V11.5153V11.5248V11.5344V11.5439V11.5535V11.5631V11.5726V11.5823V11.5919V11.6015V11.6112V11.6208V11.6305V11.6402V11.6499V11.6597V11.6694V11.6792V11.6889V11.6987V11.7085V11.7184V11.7282V11.738V11.7479V11.7578V11.7677V11.7776V11.7876V11.7975V11.8075V11.8174V11.8274V11.8375V11.8475V11.8575V11.8676V11.8777V11.8878V11.8979V11.908V11.9182V11.9283V11.9385V11.9487V11.959V11.9692V11.9794V11.9897V12C13 12.5523 12.5523 13 12 13C11.4477 13 11 12.5523 11 12V11.9897V11.9794V11.9692V11.959V11.9487V11.9385V11.9284V11.9182V11.908V11.8979V11.8878V11.8777V11.8676V11.8575V11.8475V11.8375V11.8274V11.8174V11.8075V11.7975V11.7876V11.7776V11.7677V11.7578V11.7479V11.738V11.7282V11.7184V11.7085V11.6987V11.6889V11.6792V11.6694V11.6597V11.6499V11.6402V11.6305V11.6208V11.6112V11.6015V11.5919V11.5823V11.5727V11.5631V11.5535V11.5439V11.5344V11.5248V11.5153V11.5058V11.4963V11.4868V11.4774V11.4679V11.4585V11.4491V11.4396V11.4303V11.4209V11.4115V11.4021V11.3928V11.3835V11.3742V11.3649V11.3556V11.3463V11.337V11.3278V11.3186V11.3093V11.3001V11.2909V11.2817V11.2726V11.2634V11.2543V11.2451V11.236V11.2269V11.2178V11.2087V11.1996V11.1906V11.1815V11.1725V11.1635V11.1544V11.1454V11.1364V11.1275V11.1185V11.1095V11.1006V11.0917V11.0827V11.0738V11.0649V11.056V11.0471V11.0383V11.0294V11.0206V11.0117V11.0029V10.9941V10.9853V10.9765V10.9677V10.9589V10.9502V10.9414V10.9327V10.9239V10.9152V10.9065V10.8978V10.8891V10.8804V10.8717V10.863V10.8544V10.8457V10.8371V10.8285V10.8198V10.8112V10.8026V10.794V10.7854V10.7769V10.7683V10.7597V10.7512V10.7426V10.7341V10.7256V10.717V10.7085V10.7V10.6915V10.683V10.6746V10.6661V10.6576V10.6492V10.6407V10.6323V10.6238V10.6154V10.607V10.5986V10.5902V10.5818V10.5734V10.565V10.5566V10.5483V10.5399V10.5315V10.5232V10.5149V10.5065V10.4982V10.4899V10.4815V10.4732V10.4649V10.4566V10.4483V10.44V10.4318V10.4235V10.4152V10.407V10.3987V10.3904V10.3822V10.374V10.3657V10.3575V10.3493V10.341V10.3328V10.3246V10.3164V10.3082V10.3V10.2918V10.2836V10.2754V10.2673V10.2591V10.2509V10.2428V10.2346V10.2264V10.2183V10.2101V10.202V10.1938V10.1857V10.1776V10.1694V10.1613V10.1532V10.1451V10.137V10.1288V10.1207V10.1126V10.1045V10.0964V10.0883V10.0802V10.0721V10.0641V10.056V10.0479V10.0398V10.0317V10.0236V10.0156V10.0075V9.99943V9.99136V9.9833V9.97523V9.96717V9.95911V9.95106V9.943V9.93495V9.92689V9.91884V9.91079V9.90275V9.8947V9.88665V9.87861V9.87057V9.86252V9.85448V9.84644V9.8384V9.83036V9.82232V9.81429V9.80625V9.79821V9.79018V9.78214V9.77411V9.76607V9.75804V9.75V9.74197V9.73393V9.72589V9.71786V9.70982V9.70179V9.69375V9.68571V9.67768V9.66964V9.6616V9.65356V9.64552V9.63748V9.62944V9.62139V9.61335V9.6053V9.59725V9.58921V9.58116V9.57311V9.56505V9.557V9.54894V9.54089V9.53283V9.52477V9.5167V9.50864V9.50057V9.4925V9.48443V9.47636V9.46828V9.4602V9.45212V9.44404V9.43595V9.42786V9.41977V9.41167V9.40358V9.39548V9.38737V9.37927V9.37116V9.36304V9.35493V9.34681V9.33869V9.33056V9.32243V9.31429V9.30616V9.29802V9.28987V9.28172V9.27357V9.26541V9.25725V9.24908V9.24091V9.23274V9.22456V9.21638V9.20819V9.2V9.1918V9.1836V9.17539V9.16718V9.15896V9.15074V9.14252V9.13428V9.12605V9.1178V9.10956V9.1013V9.09304V9.08478V9.07651V9.06823V9.05995V9.05167V9.04337V9.03507V9.02677V9.01846V9.01014V9.00181V8.99348V8.98515V8.9768V8.96845V8.9601V8.95173V8.94336V8.93499V8.9266V8.91821V8.90981V8.90141V8.893V8.88458V8.87615V8.86772V8.85928V8.85083V8.84237V8.83391V8.82544V8.81696V8.80847V8.79997V8.79147V8.78296V8.77444V8.76591V8.75737V8.74883V8.74028V8.73171V8.72314V8.71457V8.70598V8.69738V8.68878V8.68016V8.67154V8.66291V8.65427V8.64562V8.63696V8.62829V8.61961V8.61092V8.60223V8.59352V8.5848V8.57608V8.56734V8.5586V8.54984V8.54107V8.5323V8.52351V8.51472V8.50591V8.49709V8.48827V8.47943V8.47058V8.46172V8.45285V8.44397V8.43508V8.42618V8.41726V8.40834V8.3994V8.39046V8.3815V8.37253V8.36355V8.35456V8.34556V8.33654V8.32751V8.31847V8.30942V8.30036V8.29129V8.2822V8.2731V8.26399V8.25487V8.24574V8.23659V8.22743V8.21826V8.20907V8.19988V8.19067V8.18144V8.17221V8.16296V8.1537V8.14442V8.13514V8.12583V8.11652V8.10719V8.09785V8.0885V8.07913V8.06975V8.06035V8.05095V8.04152V8.03209V8.02264V8.01317V8.00369V7.9942V7.98469V7.97517V7.96564V7.95609V7.94652V7.93694V7.92735V7.91774V7.90812V7.89848V7.88883V7.87916V7.86948V7.85978V7.85007V7.84034V7.83059V7.82083V7.81106V7.80127V7.79146V7.78164V7.7718V7.76195V7.75208V7.7422V7.7323V7.72238V7.71245V7.7025V7.69253V7.68255V7.67255V7.66254V7.65251V7.64246V7.63239V7.62231V7.61221V7.6021V7.59197V7.58182V7.57165V7.56147V7.55127V7.54105V7.53081V7.52056V7.51029V7.5C11 6.94772 11.4477 6.5 12 6.5ZM13.5 16.5C13.5 17.3284 12.8284 18 12 18C11.1716 18 10.5 17.3284 10.5 16.5C10.5 15.6716 11.1716 15 12 15C12.8284 15 13.5 15.6716 13.5 16.5Z" fill="white"/>
</svg>
