<svg width="16" height="16" viewBox="0 0 16 16" fill="none" xmlns="http://www.w3.org/2000/svg">
<path fill-rule="evenodd" clip-rule="evenodd" d="M14 8C14 11.3137 11.3137 14 8 14C4.68629 14 2 11.3137 2 8C2 4.68629 4.68629 2 8 2C11.3137 2 14 4.68629 14 8ZM16 8C16 12.4183 12.4183 16 8 16C3.58172 16 0 12.4183 0 8C0 3.58172 3.58172 0 8 0C12.4183 0 16 3.58172 16 8ZM8 4C8.55229 4 9 4.44772 9 5V5.00686V5.01371V5.02054V5.02736V5.03418V5.04098V5.04777V5.05454V5.06131V5.06807V5.07481V5.08154V5.08826V5.09497V5.10167V5.10836V5.11504V5.1217V5.12836V5.135V5.14163V5.14825V5.15486V5.16147V5.16806V5.17463V5.1812V5.18776V5.19431V5.20085V5.20737V5.21389V5.2204V5.22689V5.23338V5.23985V5.24632V5.25277V5.25922V5.26565V5.27208V5.27849V5.2849V5.2913V5.29768V5.30406V5.31042V5.31678V5.32313V5.32947V5.33579V5.34211V5.34842V5.35472V5.36101V5.3673V5.37357V5.37983V5.38609V5.39233V5.39857V5.4048V5.41101V5.41722V5.42342V5.42962V5.4358V5.44197V5.44814V5.4543V5.46044V5.46658V5.47272V5.47884V5.48495V5.49106V5.49716V5.50325V5.50933V5.5154V5.52147V5.52753V5.53357V5.53962V5.54565V5.55168V5.55769V5.5637V5.56971V5.5757V5.58169V5.58767V5.59364V5.5996V5.60556V5.61151V5.61745V5.62339V5.62931V5.63523V5.64115V5.64705V5.65295V5.65884V5.66473V5.67061V5.67648V5.68234V5.6882V5.69405V5.69989V5.70573V5.71156V5.71738V5.7232V5.72901V5.73482V5.74062V5.74641V5.75219V5.75797V5.76374V5.76951V5.77527V5.78103V5.78678V5.79252V5.79825V5.80399V5.80971V5.81543V5.82114V5.82685V5.83255V5.83825V5.84394V5.84963V5.85531V5.86098V5.86665V5.87231V5.87797V5.88362V5.88927V5.89491V5.90055V5.90618V5.91181V5.91744V5.92305V5.92867V5.93427V5.93988V5.94548V5.95107V5.95666V5.96224V5.96782V5.9734V5.97897V5.98454V5.9901V5.99566V6.00121V6.00676V6.0123V6.01784V6.02338V6.02891V6.03444V6.03997V6.04549V6.05101V6.05652V6.06203V6.06754V6.07304V6.07854V6.08403V6.08952V6.09501V6.10049V6.10598V6.11145V6.11693V6.1224V6.12787V6.13333V6.13879V6.14425V6.14971V6.15516V6.16061V6.16606V6.1715V6.17694V6.18238V6.18781V6.19325V6.19868V6.2041V6.20953V6.21495V6.22037V6.22579V6.2312V6.23662V6.24203V6.24744V6.25284V6.25825V6.26365V6.26905V6.27445V6.27985V6.28524V6.29063V6.29602V6.30141V6.3068V6.31219V6.31757V6.32295V6.32833V6.33371V6.33909V6.34447V6.34984V6.35522V6.36059V6.36596V6.37133V6.3767V6.38207V6.38744V6.3928V6.39817V6.40353V6.4089V6.41426V6.41962V6.42498V6.43035V6.43571V6.44107V6.44642V6.45178V6.45714V6.4625V6.46786V6.47322V6.47857V6.48393V6.48929V6.49464V6.5V6.50536V6.51071V6.51607V6.52143V6.52678V6.53214V6.5375V6.54286V6.54822V6.55358V6.55893V6.56429V6.56965V6.57502V6.58038V6.58574V6.5911V6.59647V6.60183V6.6072V6.61256V6.61793V6.6233V6.62867V6.63404V6.63941V6.64478V6.65016V6.65553V6.66091V6.66629V6.67167V6.67705V6.68243V6.68781V6.6932V6.69859V6.70398V6.70937V6.71476V6.72015V6.72555V6.73095V6.73635V6.74175V6.74716V6.75256V6.75797V6.76338V6.76879V6.77421V6.77963V6.78505V6.79047V6.7959V6.80132V6.80675V6.81219V6.81762V6.82306V6.8285V6.83394V6.83939V6.84484V6.85029V6.85575V6.86121V6.86667V6.87213V6.8776V6.88307V6.88855V6.89402V6.89951V6.90499V6.91048V6.91597V6.92146V6.92696V6.93246V6.93797V6.94348V6.94899V6.95451V6.96003V6.96556V6.97109V6.97662V6.98215V6.9877V6.99324V6.99879V7.00434V7.0099V7.01546V7.02103V7.0266V7.03218V7.03776V7.04334V7.04893V7.05452V7.06012V7.06573V7.07133V7.07695V7.08256V7.08819V7.09382V7.09945V7.10509V7.11073V7.11638V7.12203V7.12769V7.13335V7.13902V7.14469V7.15037V7.15606V7.16175V7.16745V7.17315V7.17886V7.18457V7.19029V7.19601V7.20175V7.20748V7.21322V7.21897V7.22473V7.23049V7.23626V7.24203V7.24781L9 7.25359V7.25938V7.26518V7.27099V7.2768V7.28262V7.28844V7.29427V7.30011V7.30595V7.3118V7.31766V7.32352V7.32939V7.33527V7.34116V7.34705V7.35295V7.35885V7.36477V7.37069V7.37661V7.38255V7.38849V7.39444V7.4004V7.40636V7.41233V7.41831V7.4243V7.43029V7.4363V7.44231V7.44832V7.45435V7.46038V7.46642V7.47247V7.47853V7.4846V7.49067V7.49675V7.50284V7.50894V7.51505V7.52116V7.52728V7.53342V7.53956V7.5457V7.55186V7.55803V7.5642V7.57038V7.57658V7.58278V7.58899V7.5952V7.60143V7.60767V7.61391V7.62017V7.62643V7.6327V7.63898V7.64528V7.65158V7.65789V7.6642V7.67053V7.67687V7.68322V7.68958V7.69594V7.70232V7.7087V7.7151V7.72151V7.72792V7.73435V7.74078V7.74723V7.75368V7.76015V7.76662V7.77311V7.7796V7.78611V7.79263V7.79915V7.80569V7.81224V7.8188V7.82537V7.83194V7.83853V7.84513V7.85175V7.85837V7.865V7.87164V7.8783V7.88496V7.89164V7.89833V7.90503V7.91174V7.91846V7.92519V7.93193V7.93869V7.94546V7.95223V7.95902V7.96582V7.97263V7.97946V7.98629V7.99314V8C9 8.55228 8.55229 9 8 9C7.44772 9 7 8.55229 7 8V7.99314V7.98629V7.97946V7.97264V7.96582V7.95902V7.95223V7.94546V7.93869V7.93193V7.92519V7.91846V7.91174V7.90503V7.89833V7.89164V7.88496V7.8783V7.87164V7.865V7.85837V7.85175V7.84514V7.83853V7.83194V7.82537V7.8188V7.81224V7.80569V7.79915V7.79263V7.78611V7.7796V7.77311V7.76662V7.76015V7.75368V7.74723V7.74078V7.73435V7.72792V7.72151V7.7151V7.7087V7.70232V7.69594V7.68958V7.68322V7.67687V7.67053V7.66421V7.65789V7.65158V7.64528V7.63899V7.6327V7.62643V7.62017V7.61391V7.60767V7.60143V7.5952V7.58899V7.58278V7.57658V7.57038V7.5642V7.55803V7.55186V7.5457V7.53956V7.53342V7.52728V7.52116V7.51505V7.50894V7.50284V7.49675V7.49067V7.4846V7.47853V7.47247V7.46643V7.46038V7.45435V7.44832V7.44231V7.4363V7.43029V7.4243V7.41831V7.41233V7.40636V7.4004V7.39444V7.38849V7.38255V7.37661V7.37069V7.36477V7.35885V7.35295V7.34705V7.34116V7.33527V7.32939V7.32352V7.31766V7.3118V7.30595V7.30011V7.29427V7.28844V7.28262V7.2768V7.27099V7.26518V7.25938V7.25359V7.24781V7.24203V7.23626V7.23049V7.22473V7.21897V7.21322V7.20748V7.20175V7.19601V7.19029V7.18457V7.17886V7.17315V7.16745V7.16175V7.15606V7.15037V7.14469V7.13902V7.13335V7.12769V7.12203V7.11638V7.11073V7.10509V7.09945V7.09382V7.08819V7.08257V7.07695V7.07133V7.06573V7.06012V7.05452V7.04893V7.04334V7.03776V7.03218V7.0266V7.02103V7.01546V7.0099V7.00434V6.99879V6.99324V6.9877V6.98216V6.97662V6.97109V6.96556V6.96003V6.95451V6.94899V6.94348V6.93797V6.93246V6.92696V6.92146V6.91597V6.91048V6.90499V6.89951V6.89402V6.88855V6.88307V6.8776V6.87213V6.86667V6.86121V6.85575V6.85029V6.84484V6.83939V6.83394V6.8285V6.82306V6.81762V6.81219V6.80675V6.80132V6.7959V6.79047V6.78505V6.77963V6.77421V6.7688V6.76338V6.75797V6.75256V6.74716V6.74175V6.73635V6.73095V6.72555V6.72015V6.71476V6.70937V6.70398V6.69859V6.6932V6.68781V6.68243V6.67705V6.67167V6.66629V6.66091V6.65553V6.65016V6.64478V6.63941V6.63404V6.62867V6.6233V6.61793V6.61256V6.6072V6.60183V6.59647V6.5911V6.58574V6.58038V6.57502V6.56965V6.56429V6.55893V6.55358V6.54822V6.54286V6.5375V6.53214V6.52678V6.52143V6.51607V6.51071V6.50536V6.5V6.49464V6.48929V6.48393V6.47857V6.47322V6.46786V6.4625V6.45714V6.45178V6.44642V6.44107V6.43571V6.43035V6.42498V6.41962V6.41426V6.4089V6.40353V6.39817V6.3928V6.38744V6.38207V6.3767V6.37133V6.36596V6.36059V6.35522V6.34984V6.34447V6.33909V6.33371V6.32833V6.32295V6.31757V6.31219V6.3068V6.30141V6.29602V6.29063V6.28524V6.27985V6.27445V6.26905V6.26365V6.25825V6.25284V6.24744V6.24203V6.23662V6.23121V6.22579V6.22037V6.21495V6.20953V6.2041V6.19868V6.19325V6.18781V6.18238V6.17694V6.1715V6.16606V6.16061V6.15516V6.14971V6.14425V6.13879V6.13333V6.12787V6.1224V6.11693V6.11145V6.10598V6.10049V6.09501V6.08952V6.08403V6.07854V6.07304V6.06754V6.06203V6.05652V6.05101V6.04549V6.03997V6.03444V6.02891V6.02338V6.01785V6.0123V6.00676V6.00121V5.99566V5.9901V5.98454V5.97897V5.9734V5.96782V5.96224V5.95666V5.95107V5.94548V5.93988V5.93427V5.92867V5.92305V5.91744V5.91181V5.90618V5.90055V5.89491V5.88927V5.88362V5.87797V5.87231V5.86665V5.86098V5.85531V5.84963V5.84394V5.83825V5.83255V5.82685V5.82114V5.81543V5.80971V5.80399V5.79825V5.79252V5.78678V5.78103V5.77527V5.76951V5.76374V5.75797V5.75219V5.74641V5.74062V5.73482V5.72901V5.7232V5.71738V5.71156V5.70573V5.69989V5.69405V5.6882V5.68234V5.67648V5.67061V5.66473V5.65884V5.65295V5.64705V5.64115V5.63523V5.62931V5.62339V5.61745V5.61151V5.60556V5.5996V5.59364V5.58767V5.58169V5.5757V5.56971V5.5637V5.55769V5.55168V5.54565V5.53962V5.53358V5.52753V5.52147V5.5154V5.50933V5.50325V5.49716V5.49106V5.48495V5.47884V5.47272V5.46658V5.46044V5.4543V5.44814V5.44197V5.4358V5.42962V5.42342V5.41722V5.41101V5.4048V5.39857V5.39233V5.38609V5.37983V5.37357V5.3673V5.36101V5.35472V5.34842V5.34211V5.3358V5.32947V5.32313V5.31678V5.31042V5.30406V5.29768V5.2913V5.2849V5.27849V5.27208V5.26565V5.25922V5.25277V5.24632V5.23985V5.23338V5.22689V5.2204V5.21389V5.20737V5.20085V5.19431V5.18776V5.1812V5.17463V5.16806V5.16147V5.15487V5.14825V5.14163V5.135V5.12836V5.1217V5.11504V5.10836V5.10167V5.09497V5.08826V5.08154V5.07481V5.06807V5.06131V5.05454V5.04777V5.04098V5.03418V5.02737V5.02054V5.01371V5.00686V5C7 4.44772 7.44772 4 8 4ZM9 11C9 11.5523 8.55229 12 8 12C7.44772 12 7 11.5523 7 11C7 10.4477 7.44772 10 8 10C8.55229 10 9 10.4477 9 11Z" fill="#BF2E24"/>
</svg>
