<svg width="16" height="16" viewBox="0 0 16 16" fill="none" xmlns="http://www.w3.org/2000/svg">
<path d="M7.99906 1.82227L8.99182 1.70219H7.00629L7.99906 1.82227ZM8.61442 6.91L7.62165 7.03007L7.78159 8.35248L9.00681 7.82979L8.61442 6.91ZM13.3282 4.89904L13.9286 5.69877L12.9358 3.97925L13.3282 4.89904ZM9.22977 7.97582L8.6294 7.1761L7.56413 7.97582L8.6294 8.77555L9.22977 7.97582ZM13.3282 11.0526L12.9358 11.9724L13.9286 10.2529L13.3282 11.0526ZM8.61442 9.04165L9.00681 8.12185L7.78159 7.59916L7.62165 8.92158L8.61442 9.04165ZM7.99906 14.1294L7.00629 14.2495H8.99182L7.99906 14.1294ZM7.3837 9.04165L8.37647 8.92158L8.21652 7.59916L6.99131 8.12185L7.3837 9.04165ZM2.66992 11.0526L2.06955 10.2529L3.06232 11.9724L2.66992 11.0526ZM6.76835 7.97582L7.36872 8.77555L8.43399 7.97582L7.36872 7.1761L6.76835 7.97582ZM2.66992 4.89904L3.06232 3.97925L2.06955 5.69877L2.66992 4.89904ZM7.3837 6.91L6.99131 7.82979L8.21652 8.35248L8.37647 7.03007L7.3837 6.91ZM7.00629 1.94234L7.62165 7.03007L9.60718 6.78992L8.99182 1.70219L7.00629 1.94234ZM9.00681 7.82979L13.7206 5.81884L12.9358 3.97925L8.22202 5.9902L9.00681 7.82979ZM12.7278 4.09932L8.6294 7.1761L9.83014 8.77555L13.9286 5.69877L12.7278 4.09932ZM8.6294 8.77555L12.7278 11.8523L13.9286 10.2529L9.83014 7.1761L8.6294 8.77555ZM13.7206 10.1328L9.00681 8.12185L8.22202 9.96145L12.9358 11.9724L13.7206 10.1328ZM7.62165 8.92158L7.00629 14.0093L8.99182 14.2495L9.60718 9.16172L7.62165 8.92158ZM8.99182 14.0093L8.37647 8.92158L6.39094 9.16172L7.00629 14.2495L8.99182 14.0093ZM6.99131 8.12185L2.27753 10.1328L3.06232 11.9724L7.7761 9.96145L6.99131 8.12185ZM3.27029 11.8523L7.36872 8.77555L6.16798 7.1761L2.06955 10.2529L3.27029 11.8523ZM7.36872 7.1761L3.27029 4.09932L2.06955 5.69877L6.16798 8.77555L7.36872 7.1761ZM2.27753 5.81884L6.99131 7.82979L7.7761 5.9902L3.06232 3.97925L2.27753 5.81884ZM8.37647 7.03007L8.99182 1.94234L7.00629 1.70219L6.39094 6.78992L8.37647 7.03007Z" fill="#FB5A4F"/>
</svg>
