<svg viewBox="0 0 16 16" xmlns="http://www.w3.org/2000/svg">
<path fill-rule="evenodd" clip-rule="evenodd" d="M1 0C0.447715 0 0 0.447715 0 1C0 1.55228 0.447715 2 1 2L3.18861 2L5.02145 10.706L5.22295 11.6631L6.18429 11.4829L13.5356 10.1045C14.3225 9.95695 14.9457 9.35425 15.1194 8.57262L15.9762 4.71693C16.042 4.42083 15.9698 4.11088 15.78 3.87427C15.5902 3.63767 15.3033 3.5 15 3.5L5.54824 3.5L4.97855 0.79399L4.81139 0L4 0L1 0ZM6.77705 9.33688L5.96929 5.5L13.7534 5.5L13.167 8.13876L6.77705 9.33688ZM5 16C6.10457 16 7 15.1046 7 14C7 12.8954 6.10457 12 5 12C3.89543 12 3 12.8954 3 14C3 15.1046 3.89543 16 5 16ZM12 16C13.1046 16 14 15.1046 14 14C14 12.8954 13.1046 12 12 12C10.8954 12 10 12.8954 10 14C10 15.1046 10.8954 16 12 16Z"/>
</svg>
