<svg viewBox="0 0 16 16" xmlns="http://www.w3.org/2000/svg">
<path fill-rule="evenodd" clip-rule="evenodd" d="M3.24153 11.7614L4.91358 7.16211C5.08037 7.38171 5.26838 7.58683 5.47629 7.77394L6.65519 8.83496L3.24153 11.7614ZM1.65094 15.7594L8.15429 10.1841L14.3311 15.7433C14.6626 16.0416 15.1515 16.0844 15.5297 15.8482C15.9079 15.6121 16.0841 15.154 15.9616 14.7253L12.6703 3.20585C12.1282 1.30827 10.3938 0 8.42025 0C6.25837 0 4.47184 1.56813 4.08002 3.60588C4.07267 3.62307 4.06575 3.64055 4.05929 3.65834L0.060263 14.6585C-0.0950238 15.0857 0.0572761 15.5638 0.431006 15.8225C0.804735 16.0811 1.30588 16.0552 1.65094 15.7594ZM8.42025 2C7.09383 2 6.00009 3.1003 6.00009 4.44717C6.00009 5.14812 6.29877 5.82345 6.81422 6.28735L13.0826 11.9289L10.7473 3.7553C10.4504 2.71631 9.50081 2 8.42025 2ZM8.29982 5.2C8.85211 5.2 9.29982 4.75229 9.29982 4.2C9.29982 3.64772 8.85211 3.2 8.29982 3.2C7.74754 3.2 7.29982 3.64772 7.29982 4.2C7.29982 4.75229 7.74754 5.2 8.29982 5.2Z"/>
</svg>
