<svg viewBox="0 0 16 16" xmlns="http://www.w3.org/2000/svg">
<path fill-rule="evenodd" clip-rule="evenodd" d="M15 2C15.5523 2 16 1.55228 16 1C16 0.447715 15.5523 0 15 0C14.4477 0 14 0.447715 14 1C14 1.55228 14.4477 2 15 2ZM4.56155 5L3 5C2.44772 5 2 5.44772 2 6L2 13C2 13.5523 2.44772 14 3 14L13 14C13.5523 14 14 13.5523 14 13L14 6C14 5.44771 13.5523 5 13 5H11.4384L11.0597 3.48507C10.9884 3.19999 10.7323 3 10.4384 3L5.56155 3C5.2677 3 5.01156 3.19999 4.94029 3.48507L4.56155 5ZM0 6L0 13C0 14.6569 1.34315 16 3 16L13 16C14.6569 16 16 14.6569 16 13V6C16 4.34315 14.6569 3 13 3C12.7061 1.82459 11.65 1 10.4384 1L5.56155 1C4.34996 1 3.29385 1.82459 3 3C1.34315 3 0 4.34315 0 6ZM8 11C9.10457 11 10 10.1046 10 9C10 7.89543 9.10457 7 8 7C6.89543 7 6 7.89543 6 9C6 10.1046 6.89543 11 8 11ZM8 13C10.2091 13 12 11.2091 12 9C12 6.79086 10.2091 5 8 5C5.79086 5 4 6.79086 4 9C4 11.2091 5.79086 13 8 13Z"/>
</svg>
