<svg width="56" height="56" viewBox="0 0 56 56" fill="none" xmlns="http://www.w3.org/2000/svg">
<path fill-rule="evenodd" clip-rule="evenodd" d="M54 28C54 42.3594 42.3594 54 28 54C13.6406 54 2 42.3594 2 28C2 13.6406 13.6406 2 28 2C42.3594 2 54 13.6406 54 28ZM56 28C56 43.464 43.464 56 28 56C12.536 56 0 43.464 0 28C0 12.536 12.536 0 28 0C43.464 0 56 12.536 56 28ZM29.5439 21C32.5562 21 34.9982 23.442 34.9982 26.4544H36.9982C36.9982 22.3375 33.6608 19 29.5439 19V21ZM36.9975 32.2636V31.5576L36.3323 31.3213L31.3263 29.5427L30.7833 29.3498L30.3441 29.7229L28.7694 31.0606C28.7375 31.0405 28.7041 31.019 28.6693 30.9961C28.2277 30.7064 27.5491 30.1922 26.6802 29.3233C25.8113 28.4544 25.2956 27.7742 25.0043 27.3309C24.9809 27.2952 24.9589 27.2611 24.9383 27.2285L26.2764 25.6565L26.6504 25.217L26.4571 24.6733L24.6767 19.6652L24.4403 19.0002H23.7345L17.9257 19.0002H16.9486L16.926 19.977L17.9257 20.0002C16.926 19.977 16.9259 19.9774 16.9259 19.9778L16.9259 19.9788L16.9259 19.9813L16.9257 19.9883L16.9254 20.0103C16.9252 20.0284 16.9251 20.0535 16.9251 20.0852C16.9252 20.1486 16.9262 20.2386 16.9295 20.353C16.9361 20.5818 16.952 20.9085 16.9889 21.3152C17.0626 22.1276 17.2204 23.264 17.5571 24.5783C18.2296 27.2027 19.626 30.5742 22.5277 33.4759C25.4294 36.3777 28.7995 37.7728 31.4227 38.4439C32.7363 38.78 33.8721 38.9371 34.6841 39.0102C35.0905 39.0468 35.417 39.0625 35.6456 39.069C35.76 39.0722 35.85 39.0731 35.9133 39.0732C35.945 39.0732 35.9701 39.073 35.9882 39.0728L36.0102 39.0725L36.0172 39.0724L36.0197 39.0723L36.0207 39.0723C36.0211 39.0723 36.0215 39.0723 35.9975 38.0725L36.0215 39.0723L36.9975 39.0488V38.0725L36.9975 32.2636ZM28.5502 33.2012C28.5507 33.2014 28.5511 33.2015 28.8979 32.2636L28.5511 33.2015L29.0996 33.4043L29.5453 33.0257L31.1998 31.6202L34.9976 32.9695V37.0298L34.9243 37.0236L34.8635 37.0183C34.1384 36.953 33.1107 36.8113 31.9184 36.5063C29.5299 35.8952 26.5186 34.6384 23.9419 32.0617C21.3652 29.4849 20.107 26.472 19.4945 24.0818C19.1888 22.8887 19.0465 21.8602 18.9807 21.1346C18.9765 21.0885 18.9727 21.0437 18.9691 21.0002H23.0287L24.3794 24.7995L22.973 26.4519L22.5923 26.8991L22.7975 27.4494L23.7345 27.1C22.7975 27.4494 22.7977 27.4499 22.7978 27.4503L22.7982 27.4512L22.7988 27.453L22.8003 27.4569L22.8038 27.466L22.8129 27.4888C22.82 27.5062 22.829 27.5276 22.8402 27.5532C22.8626 27.6043 22.8939 27.6715 22.936 27.7543C23.0201 27.9198 23.1473 28.1467 23.3328 28.4291C23.704 28.994 24.3076 29.7791 25.266 30.7375C26.2244 31.696 27.0082 32.2984 27.5722 32.6684C27.8541 32.8533 28.0806 32.9799 28.2459 33.0637C28.3285 33.1055 28.3958 33.1367 28.4469 33.159C28.4725 33.1702 28.494 33.1791 28.5114 33.1861L28.5344 33.1952L28.5435 33.1987L28.5475 33.2002L28.5493 33.2009L28.5502 33.2012ZM31.1256 26.4548C31.1256 25.5812 30.4175 24.873 29.5439 24.873V22.873C31.5221 22.873 33.1256 24.4767 33.1256 26.4548H31.1256Z" fill="white"/>
</svg>
