<svg viewBox="0 0 24 24" xmlns="http://www.w3.org/2000/svg">
<path fill-rule="evenodd" clip-rule="evenodd" d="M18.9992 10.4544C18.9992 7.442 16.5573 5 13.545 5V3C17.6619 3 20.9992 6.33748 20.9992 10.4544H18.9992ZM20.9982 15.558L20.9982 16.264L20.9982 22.0729V23.0492L20.0222 23.0727L19.9982 22.0729C20.0222 23.0727 20.0218 23.0727 20.0214 23.0727L20.0204 23.0727L20.0179 23.0728L20.0108 23.0729L19.9889 23.0732C19.9708 23.0734 19.9457 23.0736 19.914 23.0736C19.8507 23.0735 19.7607 23.0726 19.6463 23.0694C19.4177 23.0629 19.0911 23.0472 18.6847 23.0106C17.8727 22.9375 16.737 22.7804 15.4234 22.4443C12.8002 21.7732 9.43009 20.3781 6.52837 17.4763C3.6267 14.5746 2.23031 11.2031 1.55782 8.57867C1.22105 7.26439 1.06326 6.12804 0.989593 5.31557C0.952721 4.90892 0.936812 4.58219 0.930199 4.35343C0.926891 4.23901 0.925906 4.14898 0.925793 4.08558C0.925736 4.05388 0.925898 4.02883 0.926096 4.0107L0.9264 3.98874L0.92653 3.98172L0.926583 3.97921L0.926605 3.97821C0.926615 3.97778 0.926624 3.97737 1.92634 4.00059L0.926624 3.97737L0.949303 3.00057L1.92634 3.00057L7.73516 3.00057L8.44094 3.00057L8.67737 3.6656L10.4578 8.67368L10.6511 9.21742L10.2771 9.65686L8.93899 11.2289C8.95958 11.2615 8.98155 11.2956 9.00496 11.3313C9.29627 11.7746 9.81198 12.4548 10.6809 13.3237C11.5498 14.1926 12.2283 14.7068 12.6699 14.9965C12.7048 15.0194 12.7382 15.0408 12.7701 15.061L14.3448 13.7233L14.784 13.3502L15.327 13.5431L20.333 15.3216L20.9982 15.558ZM12.8986 16.264C12.5518 17.2019 12.5513 17.2018 12.5509 17.2016L12.55 17.2013L12.5482 17.2006L12.5442 17.1991L12.5351 17.1956L12.5121 17.1865C12.4947 17.1795 12.4732 17.1706 12.4476 17.1594C12.3965 17.137 12.3292 17.1059 12.2466 17.0641C12.0813 16.9803 11.8548 16.8537 11.5729 16.6688C11.0089 16.2988 10.2251 15.6964 9.26667 14.7379C8.30825 13.7795 7.70464 12.9944 7.33347 12.4295C7.14795 12.1471 7.02081 11.9202 6.93664 11.7547C6.89457 11.6719 6.86328 11.6047 6.84084 11.5536C6.82963 11.528 6.82062 11.5065 6.81359 11.4892L6.8045 11.4664L6.80101 11.4573L6.79952 11.4534L6.79884 11.4516L6.79851 11.4507C6.79835 11.4503 6.79819 11.4498 7.73516 11.1004L6.79819 11.4498L6.59298 10.8995L6.97368 10.4523L8.38009 8.79993L7.02937 5.0006L2.96978 5.0006C2.97336 5.04412 2.97722 5.08892 2.9814 5.13495C3.04719 5.86057 3.18949 6.88914 3.4952 8.0822C4.10767 10.4724 5.36585 13.4853 7.94256 16.0621C10.5192 18.6388 13.5305 19.8956 15.9191 20.5067C17.1113 20.8117 18.1391 20.9534 18.8641 21.0187C18.9101 21.0228 18.9548 21.0266 18.9982 21.0302L18.9982 16.9699L15.2004 15.6206L13.546 17.0261L13.1003 17.4047L12.5518 17.2019L12.8986 16.264ZM13.5446 8.87312C14.4181 8.87312 15.1263 9.58128 15.1263 10.4549H17.1263C17.1263 8.47676 15.5228 6.87312 13.5446 6.87312V8.87312Z"/>
</svg>
