<svg width="48" height="48" viewBox="0 0 48 48" fill="none" xmlns="http://www.w3.org/2000/svg">
<path fill-rule="evenodd" clip-rule="evenodd" d="M24 44C35.0457 44 44 35.0457 44 24C44 20.2602 42.9735 16.7602 41.187 13.7662L25.4519 30.3755C25.0647 30.7842 24.5233 31.0107 23.9605 30.9996C23.3976 30.9885 22.8655 30.7407 22.4948 30.317L15.4948 22.317C14.7675 21.4857 14.8517 20.2222 15.683 19.4948C16.5143 18.7675 17.7778 18.8517 18.5052 19.683L24.0587 26.0299L38.7638 10.5079C35.1068 6.50852 29.8464 4 24 4C12.9543 4 4 12.9543 4 24C4 35.0457 12.9543 44 24 44Z" fill="white"/>
</svg>
