<svg width="24" height="24" viewBox="0 0 24 24" fill="none" xmlns="http://www.w3.org/2000/svg">
<path fill-rule="evenodd" clip-rule="evenodd" d="M14.0001 1C14.0001 0.627127 13.7926 0.285222 13.4619 0.113024C13.1312 -0.0591735 12.7321 -0.0330591 12.4266 0.180771L2.42661 7.18077C2.06904 7.43107 1.91511 7.88436 2.04633 8.30064C2.17755 8.71692 2.5636 9 3.00007 9H21.0001C21.5524 9 22.0001 8.55229 22.0001 8C22.0001 7.44772 21.5524 7 21.0001 7H14.0001V1ZM12.0001 2.92066V7H6.17244L12.0001 2.92066ZM2.00007 12C2.00007 11.4477 2.44779 11 3.00007 11H21.0001C21.5524 11 22.0001 11.4477 22.0001 12C22.0001 12.5523 21.5524 13 21.0001 13H3.00007C2.44779 13 2.00007 12.5523 2.00007 12ZM10.5383 23.887C10.2075 23.7148 10.0001 23.3729 10.0001 23V17H3.00007C2.44779 17 2.00007 16.5523 2.00007 16C2.00007 15.4477 2.44779 15 3.00007 15H21.0001C21.4365 15 21.8226 15.2831 21.9538 15.6994C22.085 16.1156 21.9311 16.5689 21.5735 16.8192L11.5735 23.8192C11.2681 24.0331 10.869 24.0592 10.5383 23.887ZM12.0001 17V21.0793L17.8277 17H12.0001Z" fill="#17181C"/>
</svg>
