<svg viewBox="0 0 16 16" xmlns="http://www.w3.org/2000/svg">
<path fill-rule="evenodd" clip-rule="evenodd" d="M16 15C16 15.5523 15.5523 16 15 16L1.0006 16C0.448316 16 0.00060082 15.5523 0.000600827 15C0.000600833 14.4477 0.448316 14 1.0006 14L6.51333 14L1.82735 9.74004C1.41869 9.36854 1.38857 8.73609 1.76008 8.32743C2.13158 7.91877 2.76403 7.88865 3.17269 8.26016L6.9999 11.7394L6.9999 -2.01468e-06L8.9999 -1.99083e-06L8.9999 11.7395L12.8268 8.26019C13.2355 7.88866 13.8679 7.91875 14.2395 8.32739C14.611 8.73603 14.5809 9.36848 14.1723 9.74001L9.4867 14L15 14C15.5523 14 16 14.4477 16 15Z"/>
</svg>
