<svg viewBox="0 0 16 16" xmlns="http://www.w3.org/2000/svg">
<path fill-rule="evenodd" clip-rule="evenodd" d="M10 4C10 4.55228 10.4477 5 11 5C11.5523 5 12 4.55228 12 4C12 3.44772 11.5523 3 11 3C10.4477 3 10 3.44772 10 4ZM13.8293 3C13.4175 1.83481 12.3062 1 11 1C9.68867 1 8.57384 1.84136 8.1659 3.0137C8.11194 3.00469 8.05652 3 8 3L1 3C0.447715 3 0 3.44772 0 4C0 4.55228 0.447715 5 1 5L8 5C8.05652 5 8.11194 4.99531 8.1659 4.9863C8.57384 6.15864 9.68867 7 11 7C12.3062 7 13.4175 6.16519 13.8293 5H15C15.5523 5 16 4.55228 16 4C16 3.44772 15.5523 3 15 3H13.8293ZM6 12C6 12.5523 5.55228 13 5 13C4.44772 13 4 12.5523 4 12C4 11.4477 4.44772 11 5 11C5.55228 11 6 11.4477 6 12ZM1 13H2.17071C2.58254 14.1652 3.69378 15 5 15C6.31133 15 7.42616 14.1586 7.8341 12.9863C7.88806 12.9953 7.94348 13 8 13L15 13C15.5523 13 16 12.5523 16 12C16 11.4477 15.5523 11 15 11L8 11C7.94348 11 7.88806 11.0047 7.8341 11.0137C7.42616 9.84136 6.31133 9 5 9C3.69378 9 2.58254 9.83481 2.17071 11H1C0.447715 11 0 11.4477 0 12C0 12.5523 0.447715 13 1 13Z"/>
</svg>
