<svg viewBox="0 0 24 24" xmlns="http://www.w3.org/2000/svg">
<path fill-rule="evenodd" clip-rule="evenodd" d="M19 3H5C3.89543 3 3 3.89543 3 5V6.53513C3.58835 6.19479 4.27143 6 5 6H19C19.7286 6 20.4117 6.19479 21 6.53513V5C21 3.89543 20.1046 3 19 3ZM3 13V10C3 8.89543 3.89543 8 5 8H19C20.1046 8 21 8.89543 21 10V13H16H15.2792L15.0513 13.6838L14.5072 15.3162C14.3711 15.7246 13.9889 16 13.5585 16H10.4415C10.0111 16 9.62895 15.7246 9.49284 15.3162L8.94868 13.6838L8.72076 13H8H3ZM3 15V19C3 20.1046 3.89543 21 5 21H19C20.1046 21 21 20.1046 21 19V15H16.7208L16.4045 15.9487C15.9962 17.1737 14.8498 18 13.5585 18H10.4415C9.15023 18 8.00381 17.1737 7.59547 15.9487L7.27924 15H3ZM1 5V10V19C1 21.2091 2.79086 23 5 23H19C21.2091 23 23 21.2091 23 19V10V5C23 2.79086 21.2091 1 19 1H5C2.79086 1 1 2.79086 1 5Z"/>
</svg>
