<svg viewBox="0 0 24 24" xmlns="http://www.w3.org/2000/svg">
<path fill-rule="evenodd" clip-rule="evenodd" d="M5.14648 2.14835L6.85382 3.18857C7.84393 3.79178 9.1347 3.25714 9.40826 2.13049L9.88025 0.186646C10.5683 0.0639954 11.2767 0 12 0C12.7233 0 13.4317 0.0639954 14.1198 0.186646L14.5917 2.13049C14.8653 3.25714 16.1561 3.79178 17.1462 3.18857L18.8535 2.14835C20.0214 2.96231 21.0377 3.97861 21.8516 5.14648L20.8114 6.85385L19.1034 5.81326L19.4192 5.29497C19.1933 5.04513 18.9549 4.80674 18.705 4.58078L18.1868 4.89653L18.1867 4.89656C16.04 6.2044 13.2414 5.04526 12.6482 2.6024L12.505 2.01248C12.3378 2.0042 12.1695 2 12 2C11.8305 2 11.6622 2.0042 11.495 2.01248L11.3518 2.6024C10.7586 5.04526 7.95995 6.2044 5.81326 4.89656L5.81322 4.89653L5.29497 4.58078C5.04512 4.80675 4.80671 5.04515 4.58075 5.295L4.89646 5.81319L4.8965 5.81325C6.20451 7.96003 5.04514 10.7587 2.6024 11.3518L2.60237 11.3518L2.01249 11.495C2.0042 11.6622 2 11.8305 2 12C2 12.1695 2.0042 12.3378 2.01249 12.505L2.6024 12.6482C5.04515 13.2413 6.20452 16.04 4.8965 18.1868L4.89646 18.1868L4.58075 18.705C4.80671 18.9549 5.04512 19.1933 5.29497 19.4192L5.81322 19.1035L6.85382 20.8114L5.14648 21.8517C3.97864 21.0377 2.96228 20.0214 2.14832 18.8535L3.18854 17.1461C3.79181 16.1561 3.25714 14.8653 2.13049 14.5917L0.186646 14.1198C0.0640259 13.4317 0 12.7233 0 12C0 11.2767 0.0640259 10.5683 0.186646 9.88022L2.13049 9.40826C3.25714 9.1347 3.79181 7.84393 3.18854 6.85385L2.14832 5.14651C2.96228 3.97864 3.97864 2.96231 5.14648 2.14835ZM6.85382 20.8114C7.84393 20.2082 9.1347 20.7429 9.40826 21.8695L9.88025 23.8134C10.5683 23.936 11.2767 24 12 24C12.7233 24 13.4317 23.936 14.1198 23.8134L14.5917 21.8695C14.8653 20.7429 16.1561 20.2082 17.1462 20.8114L18.8535 21.8517C20.0214 21.0377 21.0377 20.0214 21.8516 18.8535L20.8114 17.1461C20.2082 16.1561 20.7429 14.8653 21.8695 14.5917L23.8134 14.1198C23.936 13.4317 24 12.7233 24 12C24 11.2767 23.936 10.5683 23.8134 9.88022L21.8695 9.40826C20.7429 9.1347 20.2082 7.84393 20.8114 6.85385L19.1034 5.81326C17.7955 7.96002 18.9548 10.7587 21.3976 11.3518L21.3976 11.3518L21.9875 11.495C21.9958 11.6622 22 11.8305 22 12C22 12.1695 21.9958 12.3378 21.9875 12.505L21.3976 12.6482L21.3976 12.6482C18.9548 13.2413 17.7955 16.04 19.1034 18.1867L19.4192 18.705C19.1932 18.9549 18.9549 19.1933 18.705 19.4192L18.1868 19.1035C16.04 17.7955 13.2413 18.9548 12.6482 21.3976L12.505 21.9875C12.3378 21.9958 12.1695 22 12 22C11.8305 22 11.6622 21.9958 11.495 21.9875L11.3518 21.3976C10.7587 18.9548 7.95998 17.7955 5.81322 19.1035L6.85382 20.8114ZM14 12C14 13.1046 13.1046 14 12 14C10.8954 14 10 13.1046 10 12C10 10.8954 10.8954 10 12 10C13.1046 10 14 10.8954 14 12ZM16 12C16 14.2091 14.2091 16 12 16C9.79086 16 8 14.2091 8 12C8 9.79086 9.79086 8 12 8C14.2091 8 16 9.79086 16 12Z"/>
</svg>
