<svg width="24" height="24" viewBox="0 0 24 24" fill="none" xmlns="http://www.w3.org/2000/svg">
<path fill-rule="evenodd" clip-rule="evenodd" d="M12 0C6.2621 0 1.5 4.43272 1.5 9.9941C1.5 13.0662 3.01168 15.5866 4.89544 17.7197C6.20983 19.2081 7.79625 20.5999 9.26038 21.8844L9.26045 21.8845C9.86275 22.4129 10.4444 22.9232 10.9778 23.4145C11.5553 23.9464 12.4447 23.9464 13.0222 23.4145C13.5544 22.9242 14.1346 22.4151 14.7355 21.8878L14.7357 21.8876C16.2005 20.6021 17.7883 19.2086 19.104 17.7184C20.9877 15.5847 22.5 13.064 22.5 9.9941C22.5 4.43272 17.7379 0 12 0ZM3.5 9.9941C3.5 5.63891 7.26223 2 12 2C16.7378 2 20.5 5.63891 20.5 9.9941C20.5 12.3617 19.344 14.4247 17.6047 16.3947C16.377 17.7853 14.95 19.0371 13.5263 20.2859L13.5263 20.2859C13.0139 20.7354 12.502 21.1845 12 21.6395C11.4964 21.1831 10.9829 20.7328 10.469 20.2822C9.04639 19.0346 7.621 17.7847 6.39457 16.3959C4.65578 14.4269 3.5 12.3642 3.5 9.9941ZM14.1583 7.02932L13.0689 4.89451C12.6235 4.02181 11.3765 4.02181 10.9311 4.89451L9.84168 7.02932L7.47469 7.40577C6.50707 7.55966 6.12174 8.74561 6.8141 9.43886L8.50776 11.1347L8.13434 13.5022C7.98169 14.47 8.99052 15.2029 9.86379 14.7587L12 13.672L14.1362 14.7587C15.0095 15.2029 16.0183 14.47 15.8657 13.5022L15.4922 11.1347L17.1859 9.43886C17.8783 8.74561 17.4929 7.55966 16.5253 7.40577L14.1583 7.02932ZM11.4381 8.30094L12 7.19992L12.5619 8.30094C12.7362 8.64261 13.0634 8.88033 13.4423 8.94057L14.663 9.13473L13.7895 10.0093C13.5185 10.2808 13.3935 10.6654 13.4533 11.0443L13.6458 12.2653L12.5441 11.7048C12.2022 11.5309 11.7978 11.5309 11.4559 11.7048L10.3542 12.2653L10.5467 11.0443C10.6065 10.6654 10.4815 10.2808 10.2105 10.0093L9.33697 9.13473L10.5577 8.94057C10.9366 8.88033 11.2637 8.64261 11.4381 8.30094Z" fill="#17181C"/>
</svg>
