<svg viewBox="0 0 16 16" xmlns="http://www.w3.org/2000/svg">
<circle cx="8" cy="8" r="7" fill="#FFA800"/>
<path fill-rule="evenodd" clip-rule="evenodd" d="M8.00098 4C7.44869 4 7.00098 4.44772 7.00098 5C7.00098 5.55228 7.44869 6 8.00098 6C8.55326 6 9.00098 5.55228 9.00098 5C9.00098 4.44772 8.55326 4 8.00098 4ZM7.00098 11C7.00098 11.5523 7.44869 12 8.00098 12C8.55326 12 9.00098 11.5523 9.00098 11V10.9931V10.9863V10.9795V10.9726V10.9658V10.959V10.9522V10.9455V10.9387V10.9319V10.9252V10.9185V10.9117V10.905V10.8983V10.8916V10.885V10.8783V10.8716V10.865V10.8584V10.8517V10.8451V10.8385V10.8319V10.8254V10.8188V10.8122V10.8057V10.7992V10.7926V10.7861V10.7796V10.7731V10.7666V10.7601V10.7537V10.7472V10.7408V10.7343V10.7279V10.7215V10.7151V10.7087V10.7023V10.6959V10.6896V10.6832V10.6769V10.6705V10.6642V10.6579V10.6516V10.6453V10.639V10.6327V10.6264V10.6202V10.6139V10.6077V10.6014V10.5952V10.589V10.5828V10.5766V10.5704V10.5642V10.558V10.5519V10.5457V10.5396V10.5334V10.5273V10.5212V10.515V10.5089V10.5028V10.4968V10.4907V10.4846V10.4785V10.4725V10.4664V10.4604V10.4543V10.4483V10.4423V10.4363V10.4303V10.4243V10.4183V10.4123V10.4064V10.4004V10.3944V10.3885V10.3825V10.3766V10.3707V10.3648V10.3589V10.3529V10.347V10.3412V10.3353V10.3294V10.3235V10.3177V10.3118V10.306V10.3001V10.2943V10.2884V10.2826V10.2768V10.271V10.2652V10.2594V10.2536V10.2478V10.242V10.2363V10.2305V10.2247V10.219V10.2132V10.2075V10.2017V10.196V10.1903V10.1846V10.1789V10.1731V10.1674V10.1618V10.1561V10.1504V10.1447V10.139V10.1334V10.1277V10.122V10.1164V10.1107V10.1051V10.0994V10.0938L9.00098 10.0882V10.0826V10.0769V10.0713V10.0657V10.0601V10.0545V10.0489V10.0433V10.0378V10.0322V10.0266V10.021V10.0155V10.0099V10.0043V9.99879V9.99324V9.9877V9.98215V9.97662V9.97109V9.96556V9.96003V9.95451V9.94899V9.94348V9.93797V9.93246V9.92696V9.92146V9.91597V9.91048V9.90499V9.89951V9.89402V9.88855V9.88307V9.8776V9.87213V9.86667V9.86121V9.85575V9.85029V9.84484V9.83939V9.83394V9.8285V9.82306V9.81762V9.81219V9.80675V9.80132V9.7959V9.79047V9.78505V9.77963V9.77421V9.76879V9.76338V9.75797V9.75256V9.74716V9.74175V9.73635V9.73095V9.72555V9.72015V9.71476V9.70937V9.70398V9.69859V9.6932V9.68781V9.68243V9.67705V9.67167V9.66629V9.66091V9.65553V9.65016V9.64478V9.63941V9.63404V9.62867V9.6233V9.61793V9.61256V9.6072V9.60183V9.59647V9.5911V9.58574V9.58038V9.57502V9.56965V9.56429V9.55893V9.55357V9.54822V9.54286V9.5375V9.53214V9.52678V9.52143V9.51607V9.51071V9.50536V9.5V9.49464V9.48929V9.48393V9.47857V9.47322V9.46786V9.4625V9.45714V9.45178V9.44642V9.44107V9.43571V9.43035V9.42498V9.41962V9.41426V9.4089V9.40353V9.39817V9.3928V9.38744V9.38207V9.3767V9.37133V9.36596V9.36059V9.35522V9.34984V9.34447V9.33909V9.33371V9.32833V9.32295V9.31757V9.31219V9.3068V9.30141V9.29602V9.29063V9.28524V9.27985V9.27445V9.26905V9.26365V9.25825V9.25284V9.24744V9.24203V9.23662V9.2312V9.22579V9.22037V9.21495V9.20953V9.2041V9.19868V9.19325V9.18781V9.18238V9.17694V9.1715V9.16606V9.16061V9.15516V9.14971V9.14425V9.13879V9.13333V9.12787V9.1224V9.11693V9.11145V9.10598V9.10049V9.09501V9.08952V9.08403V9.07854V9.07304V9.06754V9.06203V9.05652V9.05101V9.04549V9.03997V9.03444V9.02891V9.02338V9.01784V9.0123V9.00676V9.00121V8.99566V8.9901V8.98454V8.97897V8.9734V8.96782V8.96224V8.95666V8.95107V8.94548V8.93988V8.93427V8.92867V8.92305V8.91743V8.91181V8.90618V8.90055V8.89491V8.88927V8.88362V8.87797V8.87231V8.86665V8.86098V8.85531V8.84963V8.84394V8.83825V8.83255V8.82685V8.82114V8.81543V8.80971V8.80399V8.79825V8.79252V8.78678V8.78103V8.77527V8.76951V8.76374V8.75797V8.75219V8.74641V8.74062V8.73482V8.72901V8.7232V8.71738V8.71156V8.70573V8.69989V8.69405V8.6882V8.68234V8.67648V8.67061V8.66473V8.65884V8.65295V8.64705V8.64115V8.63523V8.62931V8.62339V8.61745V8.61151V8.60556V8.5996V8.59364V8.58767V8.58169V8.5757V8.56971V8.5637V8.55769V8.55168V8.54565V8.53962V8.53357V8.52753V8.52147V8.5154V8.50933V8.50325V8.49716V8.49106V8.48495V8.47884V8.47272V8.46658V8.46044V8.4543V8.44814V8.44197V8.4358V8.42962V8.42342V8.41722V8.41101V8.4048V8.39857V8.39233V8.38609V8.37983V8.37357V8.3673V8.36101V8.35472V8.34842V8.34211V8.33579V8.32947V8.32313V8.31678V8.31042V8.30406V8.29768V8.2913V8.2849V8.27849L9.00098 8.27208V8.26565V8.25922V8.25277V8.24632V8.23985V8.23338V8.22689V8.2204V8.21389V8.20737V8.20085V8.19431V8.18776V8.1812V8.17463V8.16806V8.16147V8.15486V8.14825V8.14163V8.135V8.12836V8.1217V8.11504V8.10836V8.10167V8.09497V8.08826V8.08154V8.07481V8.06807V8.06131V8.05454V8.04777V8.04098V8.03418V8.02736V8.02054V8.01371V8.00686V8C9.00098 7.44772 8.55326 7 8.00098 7C7.44869 7 7.00098 7.44772 7.00098 8V8.00686V8.01371V8.02054V8.02737V8.03418V8.04098V8.04777V8.05454V8.06131V8.06807V8.07481V8.08154V8.08826V8.09497V8.10167V8.10836V8.11504V8.1217V8.12836V8.135V8.14163V8.14825V8.15487V8.16147V8.16806V8.17463V8.1812V8.18776V8.19431V8.20085V8.20737V8.21389V8.2204V8.22689V8.23338V8.23985V8.24632V8.25277V8.25922V8.26565V8.27208V8.27849V8.2849V8.2913V8.29768V8.30406V8.31042V8.31678V8.32313V8.32947V8.3358V8.34211V8.34842V8.35472V8.36102V8.3673V8.37357V8.37983V8.38609V8.39233V8.39857V8.4048V8.41101V8.41722V8.42342V8.42962V8.4358V8.44197V8.44814V8.4543V8.46044V8.46658V8.47272V8.47884V8.48495V8.49106V8.49716V8.50325V8.50933V8.5154V8.52147V8.52753V8.53358V8.53962V8.54565V8.55168V8.55769V8.5637V8.56971V8.5757V8.58169V8.58767V8.59364V8.5996V8.60556V8.61151V8.61745V8.62339V8.62931V8.63523V8.64115V8.64705V8.65295V8.65884V8.66473V8.67061V8.67648V8.68234V8.6882V8.69405V8.69989V8.70573V8.71156V8.71738V8.7232V8.72901V8.73482V8.74062V8.74641V8.75219V8.75797V8.76374V8.76951V8.77527V8.78103V8.78678V8.79252V8.79825V8.80399V8.80971V8.81543V8.82114V8.82685V8.83255V8.83825V8.84394V8.84963V8.85531V8.86098V8.86665V8.87231V8.87797V8.88362V8.88927V8.89491V8.90055V8.90618V8.91181V8.91744V8.92305V8.92867V8.93427V8.93988V8.94548V8.95107V8.95666V8.96224V8.96782V8.9734V8.97897V8.98454V8.9901V8.99566V9.00121V9.00676V9.0123V9.01785V9.02338V9.02891V9.03444V9.03997V9.04549V9.05101V9.05652V9.06203V9.06754V9.07304V9.07854V9.08403V9.08952V9.09501V9.10049V9.10598V9.11145V9.11693V9.1224V9.12787V9.13333V9.13879V9.14425V9.14971V9.15516V9.16061V9.16606V9.1715V9.17694V9.18238V9.18781V9.19325V9.19868V9.2041V9.20953V9.21495V9.22037V9.22579V9.23121V9.23662V9.24203V9.24744V9.25284V9.25825V9.26365V9.26905V9.27445V9.27985V9.28524V9.29063V9.29602V9.30141V9.3068V9.31219V9.31757V9.32295V9.32833V9.33371V9.33909V9.34447V9.34984V9.35522V9.36059V9.36596V9.37133V9.3767V9.38207V9.38744V9.3928V9.39817V9.40353V9.4089V9.41426V9.41962V9.42498V9.43035V9.43571V9.44107V9.44643V9.45178V9.45714V9.4625V9.46786V9.47322V9.47857V9.48393V9.48929V9.49464V9.5V9.50536V9.51071V9.51607V9.52143V9.52678V9.53214V9.5375V9.54286V9.54822V9.55358V9.55893V9.56429V9.56965V9.57502V9.58038V9.58574V9.5911V9.59647V9.60183V9.6072V9.61256V9.61793V9.6233V9.62867V9.63404V9.63941V9.64478V9.65016V9.65553V9.66091V9.66629V9.67167V9.67705V9.68243V9.68781V9.6932V9.69859V9.70398V9.70937V9.71476V9.72015V9.72555V9.73095V9.73635V9.74175V9.74716V9.75256V9.75797V9.76338V9.7688V9.77421V9.77963V9.78505V9.79047V9.7959V9.80132V9.80675V9.81219V9.81762V9.82306V9.8285V9.83394V9.83939V9.84484V9.85029V9.85575V9.86121V9.86667V9.87213V9.8776V9.88307V9.88855V9.89402V9.89951V9.90499V9.91048V9.91597V9.92146V9.92696V9.93246V9.93797V9.94348V9.94899V9.95451V9.96003V9.96556V9.97109V9.97662V9.98216V9.9877V9.99324V9.99879V10.0043V10.0099V10.0155V10.021V10.0266V10.0322V10.0378V10.0433V10.0489V10.0545V10.0601V10.0657V10.0713V10.0769V10.0826V10.0882V10.0938V10.0994V10.1051V10.1107V10.1164V10.122V10.1277V10.1334V10.139V10.1447V10.1504V10.1561V10.1618V10.1674V10.1731V10.1789V10.1846V10.1903V10.196V10.2017V10.2075V10.2132V10.219V10.2247V10.2305V10.2363V10.242V10.2478V10.2536V10.2594V10.2652V10.271V10.2768V10.2826V10.2884V10.2943V10.3001V10.306V10.3118V10.3177V10.3235V10.3294V10.3353V10.3412V10.347V10.3529V10.3589V10.3648V10.3707V10.3766V10.3825V10.3885V10.3944V10.4004V10.4064V10.4123V10.4183V10.4243V10.4303V10.4363V10.4423V10.4483V10.4544V10.4604V10.4664V10.4725V10.4785V10.4846V10.4907V10.4968V10.5028V10.5089V10.515V10.5212V10.5273V10.5334V10.5396V10.5457V10.5519V10.558V10.5642V10.5704V10.5766V10.5828V10.589V10.5952V10.6014V10.6077V10.6139V10.6202V10.6264V10.6327V10.639V10.6453V10.6516V10.6579V10.6642V10.6705V10.6769V10.6832V10.6896V10.6959V10.7023V10.7087V10.7151V10.7215V10.7279V10.7343V10.7408V10.7472V10.7537V10.7601V10.7666V10.7731V10.7796V10.7861V10.7926V10.7992V10.8057V10.8122V10.8188V10.8254V10.8319V10.8385V10.8451V10.8517V10.8584V10.865V10.8716V10.8783V10.885V10.8916V10.8983V10.905V10.9117V10.9185V10.9252V10.9319V10.9387V10.9455V10.9522V10.959V10.9658V10.9726V10.9795V10.9863V10.9931V11Z" fill="white"/>
</svg>
