<svg viewBox="0 0 16 16" xmlns="http://www.w3.org/2000/svg">
<path fill-rule="evenodd" clip-rule="evenodd" d="M3 0C1.34315 0 0 1.34315 0 3L0 4.5C0 6.15685 1.34315 7.5 3 7.5L4.5 7.5C6.15685 7.5 7.5 6.15685 7.5 4.5L7.5 3C7.5 1.34315 6.15685 0 4.5 0L3 0ZM2 3C2 2.44772 2.44772 2 3 2H4.5C5.05228 2 5.5 2.44772 5.5 3L5.5 4.5C5.5 5.05228 5.05228 5.5 4.5 5.5L3 5.5C2.44772 5.5 2 5.05228 2 4.5V3ZM3 8.5C1.34315 8.5 0 9.84315 0 11.5L0 13C0 14.6569 1.34315 16 3 16H4.5C6.15685 16 7.5 14.6569 7.5 13V11.5C7.5 9.84315 6.15685 8.5 4.5 8.5H3ZM2 11.5C2 10.9477 2.44772 10.5 3 10.5H4.5C5.05228 10.5 5.5 10.9477 5.5 11.5V13C5.5 13.5523 5.05228 14 4.5 14H3C2.44772 14 2 13.5523 2 13L2 11.5ZM8.5 3C8.5 1.34315 9.84315 0 11.5 0L13 0C14.6569 0 16 1.34315 16 3V4.5C16 6.15685 14.6569 7.5 13 7.5H11.5C9.84315 7.5 8.5 6.15685 8.5 4.5V3ZM11.5 2C10.9477 2 10.5 2.44772 10.5 3V4.5C10.5 5.05228 10.9477 5.5 11.5 5.5H13C13.5523 5.5 14 5.05228 14 4.5V3C14 2.44772 13.5523 2 13 2L11.5 2ZM11.5 8.5C9.84315 8.5 8.5 9.84315 8.5 11.5V13C8.5 14.6569 9.84315 16 11.5 16H13C14.6569 16 16 14.6569 16 13V11.5C16 9.84315 14.6569 8.5 13 8.5H11.5ZM10.5 11.5C10.5 10.9477 10.9477 10.5 11.5 10.5H13C13.5523 10.5 14 10.9477 14 11.5V13C14 13.5523 13.5523 14 13 14H11.5C10.9477 14 10.5 13.5523 10.5 13V11.5Z"/>
</svg>
