<svg viewBox="0 0 16 16" xmlns="http://www.w3.org/2000/svg">
<path fill-rule="evenodd" clip-rule="evenodd" d="M2 1C1.44772 1 1 1.44772 1 2C1 2.55228 1.44772 3 2 3L14 3C14.5523 3 15 2.55228 15 2C15 1.44771 14.5523 1 14 1L2 1ZM2 5C1.44772 5 1 5.44772 1 6C1 6.55228 1.44772 7 2 7L7 7C7.55228 7 8 6.55228 8 6C8 5.44771 7.55228 5 7 5L2 5ZM1 14C1 13.4477 1.44772 13 2 13L7 13C7.55228 13 8 13.4477 8 14C8 14.5523 7.55228 15 7 15L2 15C1.44772 15 1 14.5523 1 14ZM2 9C1.44772 9 1 9.44772 1 10C1 10.5523 1.44772 11 2 11L14 11C14.5523 11 15 10.5523 15 10C15 9.44771 14.5523 9 14 9L2 9Z"/>
</svg>
