<svg viewBox="0 0 16 16" xmlns="http://www.w3.org/2000/svg">
<path fill-rule="evenodd" clip-rule="evenodd" d="M3 2H4C4.55228 2 5 2.44772 5 3L5 4C5 4.55228 4.55228 5 4 5L3 5C2.44772 5 2 4.55228 2 4V3C2 2.44772 2.44772 2 3 2ZM0 3C0 1.34315 1.34315 0 3 0L4 0C5.65685 0 7 1.34315 7 3L7 4C7 5.65685 5.65685 7 4 7L3 7C1.34315 7 0 5.65685 0 4L0 3ZM10 1C9.44771 1 9 1.44772 9 2C9 2.55228 9.44771 3 10 3L15 3C15.5523 3 16 2.55228 16 2C16 1.44771 15.5523 0.999999 15 0.999999L10 1ZM9 5C9 4.44772 9.44771 4 10 4L15 4C15.5523 4 16 4.44771 16 5C16 5.55228 15.5523 6 15 6L10 6C9.44771 6 9 5.55228 9 5ZM3 11H4C4.55228 11 5 11.4477 5 12V13C5 13.5523 4.55228 14 4 14H3C2.44772 14 2 13.5523 2 13L2 12C2 11.4477 2.44772 11 3 11ZM0 12C0 10.3431 1.34315 9 3 9H4C5.65685 9 7 10.3431 7 12V13C7 14.6569 5.65685 16 4 16H3C1.34315 16 0 14.6569 0 13L0 12ZM10 13C9.44771 13 9 13.4477 9 14C9 14.5523 9.44771 15 10 15L15 15C15.5523 15 16 14.5523 16 14C16 13.4477 15.5523 13 15 13L10 13ZM9 11C9 10.4477 9.44771 10 10 10L15 10C15.5523 10 16 10.4477 16 11C16 11.5523 15.5523 12 15 12L10 12C9.44771 12 9 11.5523 9 11Z"/>
</svg>
