<svg viewBox="0 0 16 16" xmlns="http://www.w3.org/2000/svg">
<path fill-rule="evenodd" clip-rule="evenodd" d="M2.0001 3.98546C2.00788 3.43988 2.45257 3 3 3L13 3C13.5474 3 13.9921 3.43988 13.9999 3.98546L8 8.2711L2.0001 3.98546ZM2 6.44319L2 12C2 12.5523 2.44772 13 3 13L13 13C13.5523 13 14 12.5523 14 12L14 8V6.44319L8.58124 10.3137C8.23354 10.5621 7.76646 10.5621 7.41876 10.3137L2 6.44319ZM3 1C1.34315 1 0 2.34315 0 4L0 4.1L0 12C0 13.6569 1.34314 15 3 15L13 15C14.6569 15 16 13.6569 16 12V8V4C16 2.34315 14.6569 1 13 1L3 1Z"/>
</svg>
