<svg width="24" height="24" viewBox="0 0 24 24" fill="none" xmlns="http://www.w3.org/2000/svg">
<path fill-rule="evenodd" clip-rule="evenodd" d="M21 12C21 16.9706 16.9706 21 12 21C7.02944 21 3 16.9706 3 12C3 7.02944 7.02944 3 12 3C16.9706 3 21 7.02944 21 12ZM23 12C23 18.0751 18.0751 23 12 23C5.92487 23 1 18.0751 1 12C1 5.92487 5.92487 1 12 1C18.0751 1 23 5.92487 23 12ZM10 6H9V11H8C7.44772 11 7 11.4477 7 12C7 12.5523 7.44772 13 8 13H9V14H8C7.44772 14 7 14.4477 7 15C7 15.5523 7.44772 16 8 16H9V18H11V16H14C14.5523 16 15 15.5523 15 15C15 14.4477 14.5523 14 14 14H11V13H13.5C15.433 13 17 11.433 17 9.5C17 7.567 15.433 6 13.5 6H11H10ZM13.5 11H11V8H13.5C14.3284 8 15 8.67157 15 9.5C15 10.3284 14.3284 11 13.5 11Z" fill="#17181C"/>
</svg>
