<svg viewBox="0 0 16 16" xmlns="http://www.w3.org/2000/svg">
<path fill-rule="evenodd" clip-rule="evenodd" d="M15 10.4998C15 10.121 14.786 9.77464 14.4471 9.60525L11.4471 8.10553C11.0622 7.9131 10.5973 7.98855 10.2929 8.29286L8.8042 9.78146L8.79266 9.77461C8.41628 9.55054 7.89718 9.18813 7.35594 8.64687C6.81465 8.10557 6.4514 7.5856 6.22643 7.20817L6.21878 7.19531L7.70703 5.70724C8.01143 5.40288 8.08691 4.93787 7.8944 4.55285L6.3944 1.55279C6.22501 1.214 5.87875 0.999995 5.49997 1L0.999974 1.00006C0.729399 1.00006 0.470374 1.10971 0.282032 1.30398C0.0936898 1.49825 -0.00789099 1.76055 0.00047918 2.03101L0.999987 2.00007C0.00047918 2.03101 0.000489548 2.03134 0.000500716 2.0317L0.000526679 2.03251L0.00059289 2.03453L0.000786089 2.04007L0.00144913 2.05717C0.002027 2.07121 0.0028942 2.0905 0.004154 2.1148C0.00667304 2.1634 0.0107646 2.23212 0.017257 2.31912C0.0302364 2.49305 0.0528471 2.74052 0.0917738 3.04683C0.169507 3.6585 0.312972 4.51011 0.577025 5.48231C1.1018 7.41446 2.12177 9.8922 4.11621 11.8867C6.11069 13.8812 8.58772 14.9005 10.5193 15.4246C11.4911 15.6883 12.3424 15.8314 12.9539 15.9088C13.26 15.9476 13.5074 15.9701 13.6813 15.983C13.7683 15.9894 13.8369 15.9935 13.8855 15.996C13.9098 15.9972 13.9291 15.9981 13.9431 15.9987L13.9602 15.9993L13.9658 15.9995L13.9678 15.9996L13.9686 15.9996C13.969 15.9996 13.9693 15.9996 13.9997 15.0001L13.9693 15.9996C14.2397 16.0078 14.5018 15.9062 14.696 15.7179C14.8901 15.5296 14.9997 15.2706 14.9997 15.0001L15 10.4998ZM8.64584 11.9354C8.64612 11.9355 8.64639 11.9356 8.99974 11.0001L8.64639 11.9356L9.2503 12.1637L9.7068 11.7072L11.1974 10.2167L13 11.1178L12.9998 13.8971C12.4813 13.824 11.8037 13.7007 11.043 13.4943C9.29936 13.0212 7.18818 12.1303 5.5304 10.4725C3.87258 8.81459 2.98089 6.70258 2.50707 4.95807C2.30034 4.19692 2.17677 3.51892 2.10338 3.00007L4.88197 3.00003L5.78322 4.80257L4.2927 6.2929L3.83538 6.75016L4.06479 7.35482L4.99974 7.00007C4.06479 7.35482 4.06489 7.35509 4.065 7.35536L4.06521 7.35594L4.06568 7.35716L4.06674 7.35992L4.06936 7.3667L4.07668 7.38519C4.08249 7.39969 4.09018 7.41848 4.09985 7.44129C4.11917 7.48691 4.14642 7.54871 4.18233 7.62454C4.2541 7.77612 4.3608 7.98443 4.50849 8.23221C4.80352 8.72717 5.26481 9.38416 5.94174 10.0611C6.61871 10.7381 7.27506 11.1987 7.76958 11.4931C8.01712 11.6405 8.2252 11.7469 8.37666 11.8184C8.45243 11.8542 8.51419 11.8814 8.55981 11.9006C8.58262 11.9102 8.60142 11.9179 8.61593 11.9237L8.63446 11.931L8.64126 11.9336L8.64404 11.9347L8.64527 11.9352L8.64584 11.9354ZM12 6.00007C13.1046 6.00007 14 5.10464 14 4.00007C14 2.8955 13.1046 2.00007 12 2.00007C10.8954 2.00007 9.99999 2.8955 9.99999 4.00007C9.99999 5.10464 10.8954 6.00007 12 6.00007Z"/>
</svg>
