<svg viewBox="0 0 24 24" xmlns="http://www.w3.org/2000/svg">
<path fill-rule="evenodd" clip-rule="evenodd" d="M5 1C2.79086 1 1 2.79086 1 5V19C1 21.2091 2.79086 23 5 23H19C21.2091 23 23 21.2091 23 19V5C23 2.79086 21.2091 1 19 1H16V3H8V1H5ZM8 3V5L16 5V3H19C20.1046 3 21 3.89543 21 5V19C21 20.1046 20.1046 21 19 21V20C19 17.7909 17.2091 16 15 16H9C6.79086 16 5 17.7909 5 20V21C3.89543 21 3 20.1046 3 19V5C3 3.89543 3.89543 3 5 3H8ZM17 20V21H7V20C7 18.8954 7.89543 18 9 18H15C16.1046 18 17 18.8954 17 20ZM14 11C14 12.1046 13.1046 13 12 13C10.8954 13 10 12.1046 10 11C10 9.89543 10.8954 9 12 9C13.1046 9 14 9.89543 14 11ZM16 11C16 13.2091 14.2091 15 12 15C9.79086 15 8 13.2091 8 11C8 8.79086 9.79086 7 12 7C14.2091 7 16 8.79086 16 11Z"/>
</svg>
