<svg viewBox="0 0 24 24" xmlns="http://www.w3.org/2000/svg">
<path fill-rule="evenodd" clip-rule="evenodd" d="M3.40589 3.40589C2 4.81177 2 7.0745 2 11.6V12.4C2 16.9255 2 19.1882 3.40589 20.5941C4.81177 22 7.0745 22 11.6 22H12.4C16.9255 22 19.1882 22 20.5941 20.5941C22 19.1882 22 16.9255 22 12.4V11.6C22 7.0745 22 4.81177 20.5941 3.40589C19.1882 2 16.9255 2 12.4 2H11.6C7.0745 2 4.81177 2 3.40589 3.40589ZM5.37524 8.08337C5.48358 13.2834 8.08354 16.4084 12.6419 16.4084H12.9003V13.4334C14.5753 13.6 15.8418 14.825 16.3502 16.4084H18.7169C18.0669 14.0417 16.3585 12.7334 15.2918 12.2334C16.3585 11.6167 17.8585 10.1167 18.2168 8.08337H16.0668C15.6001 9.73337 14.217 11.2334 12.9003 11.375V8.08337H10.7502V13.85C9.41687 13.5167 7.73358 11.9 7.65858 8.08337H5.37524Z"/>
</svg>
