<svg viewBox="0 0 24 24" xmlns="http://www.w3.org/2000/svg">
<path fill-rule="evenodd" clip-rule="evenodd" d="M22 12.0035C21.9977 17.5157 17.512 22 12 22L11.9965 21.9994C10.2055 21.9995 8.44746 21.5181 6.90627 20.6058L6.54111 20.3895L2.75628 21.3816L3.76696 17.6934L3.52871 17.3155C2.5274 15.7219 1.99742 13.8775 2.00001 11.9954C2.00001 6.48373 6.48804 2 12.004 2C13.3173 2.00045 14.6176 2.25957 15.8307 2.76255C17.0438 3.26553 18.1459 4.00253 19.0741 4.93145C20.0023 5.86037 20.7385 6.96303 21.2405 8.17645C21.7425 9.38987 22.0006 10.6903 22 12.0035ZM8.98857 7.00662C9.16467 7.01426 9.35777 7.02291 9.54237 7.4647C9.6684 7.76725 9.88059 8.33101 10.0495 8.77968C10.1735 9.10922 10.2741 9.37667 10.3001 9.43292C10.3615 9.56577 10.4031 9.7205 10.3209 9.89762C10.3084 9.92468 10.2968 9.95017 10.2857 9.97451C10.2244 10.1095 10.1793 10.2088 10.0749 10.3399C10.0331 10.3925 9.98979 10.4492 9.94656 10.5059C9.86253 10.616 9.77867 10.726 9.70573 10.8046C9.5825 10.9385 9.45361 11.08 9.59761 11.3457C9.74161 11.6114 10.2354 12.4797 10.9668 13.1826C11.7528 13.938 12.4359 14.2575 12.7823 14.4196C12.8502 14.4513 12.9052 14.477 12.9454 14.4988C13.1914 14.6316 13.3349 14.6082 13.4785 14.4321C13.622 14.256 14.0913 13.6564 14.2551 13.3907C14.4189 13.1251 14.5837 13.1668 14.8089 13.2579C15.0341 13.349 16.2437 13.9903 16.4902 14.1232C16.5382 14.149 16.583 14.1724 16.6245 14.194C16.7961 14.2833 16.9113 14.3433 16.9623 14.4326C17.0255 14.5436 17.0279 15.0724 16.8206 15.6939C16.6134 16.3153 15.6082 16.9083 15.1583 16.9546C15.1159 16.959 15.0738 16.9645 15.0305 16.9701C14.6137 17.0246 14.0878 17.0933 12.2061 16.2929C9.89359 15.3092 8.36837 12.8702 8.05595 12.3707C8.0307 12.3303 8.01337 12.3026 8.00419 12.2893L8.00082 12.2845C7.86619 12.0903 6.99998 10.8411 6.99998 9.54592C6.99998 8.32285 7.55684 7.68228 7.81313 7.38747C7.83062 7.36735 7.84672 7.34883 7.86114 7.33186C7.94326 7.23085 8.04386 7.14923 8.15663 7.09213C8.2694 7.03502 8.3919 7.00366 8.51644 7C8.68074 7 8.84693 7 8.98857 7.00662Z"/>
</svg>
