<svg viewBox="0 0 24 24" xmlns="http://www.w3.org/2000/svg">
<path d="M2.3749 11.3185C7.74359 8.91938 11.3236 7.33777 13.1148 6.57361C18.2292 4.39178 19.2919 4.01277 19.9846 4.00012C20.1369 3.9975 20.4776 4.03623 20.6982 4.21986C20.8845 4.37492 20.9358 4.58438 20.9603 4.73139C20.9848 4.8784 21.0154 5.2133 20.9911 5.47498C20.714 8.46174 19.5147 15.7098 18.9046 19.055C18.6465 20.4705 18.1382 20.9451 17.6461 20.9916C16.5766 21.0925 15.7645 20.2667 14.7287 19.5702C13.1078 18.4805 12.1921 17.8021 10.6188 16.7387C8.80053 15.5097 9.97923 14.8343 11.0154 13.7304C11.2866 13.4415 15.9987 9.04555 16.0899 8.64677C16.1013 8.59689 16.1119 8.41098 16.0042 8.31282C15.8965 8.21465 15.7376 8.24822 15.6229 8.27492C15.4604 8.31276 12.871 10.0681 7.85486 13.5411C7.11988 14.0587 6.45416 14.3109 5.8577 14.2977C5.20015 14.2831 3.93528 13.9164 2.99498 13.6029C1.84166 13.2184 0.925027 13.0151 1.00485 12.362C1.04642 12.0219 1.5031 11.674 2.3749 11.3185Z"/>
</svg>
