<svg width="16" height="16" viewBox="0 0 16 16" fill="none" xmlns="http://www.w3.org/2000/svg"><path d="M8 1.822l.992-.12H7.006l.993.12zm.614 5.088l-.992.12.16 1.322 1.225-.522-.393-.92zm4.714-2.011l.6.8-.992-1.72.392.92zM9.23 7.976l-.6-.8-1.066.8 1.065.8.6-.8zm4.098 3.077l-.392.92.993-1.72-.6.8zM8.614 9.042l.393-.92-1.225-.523-.16 1.323.992.12zM8 14.129l-.993.12h1.986L8 14.129zm-.615-5.087l.992-.12-.16-1.323-1.225.523.393.92zm-4.714 2.01l-.6-.8.992 1.72-.392-.92zm4.098-3.076l.6.8 1.066-.8-1.065-.8-.6.8zM2.67 4.899l.392-.92L2.07 5.7l.6-.8zM7.384 6.91l-.393.92 1.226.522.16-1.322-.993-.12zm-.378-4.968l.616 5.088 1.985-.24-.615-5.088-1.986.24zm2 5.888l4.715-2.011-.785-1.84L8.222 5.99l.785 1.84zm3.722-3.73L8.629 7.175l1.201 1.6 4.099-3.077-1.201-1.6zM8.629 8.775l4.099 3.076 1.2-1.6L9.83 7.177l-1.2 1.6zm5.092 1.357l-4.714-2.01-.785 1.84 4.714 2.01.785-1.84zm-6.1-1.211l-.615 5.087 1.986.24.615-5.087-1.985-.24zm1.37 5.087l-.615-5.087-1.985.24.615 5.087 1.986-.24zm-2-5.887l-4.713 2.01.784 1.84 4.714-2.01-.785-1.84zm-3.72 3.73l4.098-3.076-1.201-1.6-4.098 3.077 1.2 1.6zm4.098-4.676L3.27 4.1l-1.2 1.6 4.098 3.077 1.2-1.6zM2.278 5.82l4.713 2.01.785-1.839-4.714-2.01-.784 1.839zm6.098 1.21l.616-5.088-1.986-.24-.615 5.088 1.985.24z" fill="#FB5A4F"/></svg>