<svg viewBox="0 0 24 24" xmlns="http://www.w3.org/2000/svg"><path fill-rule="evenodd" clip-rule="evenodd" d="M19 10.454A5.454 5.454 0 0013.544 5V3a7.454 7.454 0 017.454 7.454h-2zm1.998 5.104v7.491l-.976.024-.024-1 .023 1h-.032a6.732 6.732 0 01-.343-.004 15.81 15.81 0 01-.961-.058 20.793 20.793 0 01-3.262-.567c-2.623-.67-5.993-2.066-8.895-4.968-2.901-2.901-4.298-6.273-4.97-8.897A20.842 20.842 0 01.99 5.316a15.788 15.788 0 01-.064-1.23v-.107c0-.001 0-.002 1 .022l-1-.024.023-.976h7.492l.236.665 1.78 5.008.194.543-.374.44-1.338 1.572c.02.033.043.067.066.102.291.444.807 1.124 1.676 1.993.869.869 1.547 1.383 1.989 1.672l.1.065 1.575-1.338.439-.373.543.193 5.006 1.779.665.236zm-8.1.706l-.347.938h-.001l-.002-.001-.004-.002-.009-.003-.023-.01a4.026 4.026 0 01-.265-.122 7.067 7.067 0 01-.674-.395c-.564-.37-1.348-.973-2.306-1.931-.959-.958-1.562-1.744-1.934-2.308a7.12 7.12 0 01-.396-.675 3.983 3.983 0 01-.123-.266l-.01-.023-.003-.009-.001-.004-.001-.001v-.001l.936-.35-.937.349-.205-.55.38-.448L8.38 8.8 7.03 5H2.97l.011.135c.066.726.208 1.754.514 2.947.613 2.39 1.87 5.403 4.448 7.98 2.576 2.577 5.588 3.834 7.976 4.445a18.804 18.804 0 003.08.523v-4.06L15.2 15.62l-1.654 1.406-.446.379-.548-.203.347-.938zm.647-7.39a1.58 1.58 0 011.581 1.58h2a3.582 3.582 0 00-3.581-3.58v2z"/></svg>