<svg width="56" height="56" viewBox="0 0 56 56" fill="none" xmlns="http://www.w3.org/2000/svg"><path fill-rule="evenodd" clip-rule="evenodd" d="M54 28c0 14.36-11.64 26-26 26S2 42.36 2 28 13.64 2 28 2s26 11.64 26 26zm2 0c0 15.464-12.536 28-28 28S0 43.464 0 28 12.536 0 28 0s28 12.536 28 28zm-26.456-7a5.454 5.454 0 015.454 5.454h2A7.454 7.454 0 0029.544 19v2zm7.454 11.264v-.706l-.666-.237-5.006-1.778-.543-.193-.439.373-1.575 1.338a6.034 6.034 0 01-.1-.065c-.441-.29-1.12-.804-1.989-1.673s-1.384-1.549-1.676-1.992a7.335 7.335 0 01-.066-.102l1.338-1.572.374-.44-.193-.544-1.78-5.008L24.44 19h-7.49l-.023.977 1 .023-1-.022v.032a7.213 7.213 0 00.004.343c.006.229.022.555.059.962.074.813.231 1.949.568 3.263.673 2.625 2.069 5.996 4.97 8.898 2.902 2.902 6.272 4.297 8.896 4.968 1.313.336 2.45.493 3.261.566a15.807 15.807 0 001.23.063h.105c.001 0 .002 0-.023-1l.025 1 .976-.024v-6.785zm-8.448.937l.348-.937-.347.938.549.202.445-.378L31.2 31.62l3.798 1.35v4.06l-.074-.006-.06-.006a18.805 18.805 0 01-2.946-.512c-2.388-.61-5.4-1.868-7.976-4.444-2.577-2.577-3.835-5.59-4.448-7.98A18.846 18.846 0 0118.97 21h4.06l1.35 3.8-1.406 1.652-.38.447.204.55.938-.349-.937.35v.003l.002.004.004.009.009.023a2.812 2.812 0 00.123.265c.084.166.211.393.397.675.371.565.975 1.35 1.933 2.309.958.958 1.742 1.56 2.306 1.93.282.185.509.312.674.396a3.938 3.938 0 00.265.122l.023.01.01.003.003.001h.002l.001.001zm2.576-6.746c0-.874-.709-1.582-1.582-1.582v-2a3.582 3.582 0 013.582 3.582h-2z" fill="#fff"/></svg>