<svg width="24" height="24" viewBox="0 0 24 24" fill="none" xmlns="http://www.w3.org/2000/svg"><path fill-rule="evenodd" clip-rule="evenodd" d="M12 0C6.262 0 1.5 4.433 1.5 9.994c0 3.072 1.512 5.593 3.395 7.726 1.315 1.488 2.901 2.88 4.365 4.164a97.2 97.2 0 011.718 1.53 1.51 1.51 0 002.044 0c.532-.49 1.113-.999 1.713-1.526 1.466-1.286 3.053-2.68 4.369-4.17 1.884-2.133 3.396-4.654 3.396-7.724C22.5 4.433 17.738 0 12 0zM3.5 9.994C3.5 5.64 7.262 2 12 2c4.738 0 8.5 3.639 8.5 7.994 0 2.368-1.156 4.43-2.895 6.4-1.228 1.391-2.655 2.643-4.079 3.892-.512.45-1.024.898-1.526 1.354-.504-.457-1.017-.907-1.531-1.358-1.423-1.247-2.848-2.497-4.074-3.886-1.74-1.97-2.895-4.032-2.895-6.402zM14.158 7.03l-1.09-2.134a1.2 1.2 0 00-2.137 0L9.841 7.03l-2.366.377a1.2 1.2 0 00-.66 2.033l1.693 1.696-.374 2.367a1.2 1.2 0 001.73 1.257L12 13.672l2.136 1.087a1.2 1.2 0 001.73-1.257l-.374-2.367 1.694-1.696a1.2 1.2 0 00-.66-2.033l-2.368-.377zm-2.72 1.272L12 7.2l.562 1.1a1.2 1.2 0 00.88.64l1.221.195-.873.874a1.2 1.2 0 00-.337 1.035l.193 1.221-1.102-.56a1.2 1.2 0 00-1.088 0l-1.102.56.193-1.22a1.2 1.2 0 00-.337-1.036l-.873-.874 1.22-.194a1.2 1.2 0 00.881-.64z" fill="#17181C"/></svg>