<svg viewBox="0 0 24 24" xmlns="http://www.w3.org/2000/svg"><path fill-rule="evenodd" clip-rule="evenodd" d="M5.146 2.148l1.708 1.04c.99.604 2.28.07 2.554-1.058L9.88.187a12.072 12.072 0 014.24 0l.472 1.943a1.712 1.712 0 002.554 1.059l1.707-1.04a12.065 12.065 0 012.999 2.997l-1.04 1.708-1.709-1.04.316-.519a10.05 10.05 0 00-.714-.714l-.518.316c-2.147 1.307-4.946.148-5.539-2.295l-.143-.59a10.208 10.208 0 00-1.01 0l-.143.59c-.593 2.443-3.392 3.602-5.539 2.295l-.518-.316c-.25.226-.488.464-.714.714l.315.518c1.309 2.147.15 4.946-2.294 5.539l-.59.143a10.195 10.195 0 000 1.01l.59.143c2.443.593 3.603 3.392 2.294 5.539l-.315.518c.226.25.464.488.714.714l.518-.316 1.04 1.708-1.707 1.04a12.068 12.068 0 01-2.998-2.997l1.04-1.708a1.71 1.71 0 00-1.058-2.554L.187 14.12a12.076 12.076 0 010-4.24l1.943-.472a1.712 1.712 0 001.06-2.554L2.15 5.147a12.068 12.068 0 012.997-2.999zm1.708 18.663a1.712 1.712 0 012.554 1.058l.472 1.944a12.077 12.077 0 004.24 0l.472-1.944a1.712 1.712 0 012.554-1.058l1.707 1.04a12.066 12.066 0 002.999-2.997l-1.04-1.708a1.712 1.712 0 011.057-2.554l1.944-.472a12.078 12.078 0 000-4.24l-1.944-.472a1.712 1.712 0 01-1.058-2.554l-1.708-1.04c-1.308 2.146-.148 4.945 2.295 5.538l.59.143a10.183 10.183 0 010 1.01l-.59.143c-2.443.593-3.602 3.392-2.295 5.539l.316.518c-.226.25-.464.488-.714.714l-.518-.316c-2.147-1.308-4.946-.148-5.539 2.295l-.143.59a10.183 10.183 0 01-1.01 0l-.143-.59c-.593-2.443-3.392-3.602-5.539-2.294l1.04 1.707zM14 12a2 2 0 11-4 0 2 2 0 014 0zm2 0a4 4 0 11-8 0 4 4 0 018 0z"/></svg>