<svg viewBox="0 0 16 16" xmlns="http://www.w3.org/2000/svg"><path fill-rule="evenodd" clip-rule="evenodd" d="M3 2h1a1 1 0 011 1v1a1 1 0 01-1 1H3a1 1 0 01-1-1V3a1 1 0 011-1zM0 3a3 3 0 013-3h1a3 3 0 013 3v1a3 3 0 01-3 3H3a3 3 0 01-3-3V3zm10-2a1 1 0 100 2h5a1 1 0 100-2h-5zM9 5a1 1 0 011-1h5a1 1 0 110 2h-5a1 1 0 01-1-1zm-6 6h1a1 1 0 011 1v1a1 1 0 01-1 1H3a1 1 0 01-1-1v-1a1 1 0 011-1zm-3 1a3 3 0 013-3h1a3 3 0 013 3v1a3 3 0 01-3 3H3a3 3 0 01-3-3v-1zm10 1a1 1 0 100 2h5a1 1 0 100-2h-5zm-1-2a1 1 0 011-1h5a1 1 0 110 2h-5a1 1 0 01-1-1z"/></svg>