<svg viewBox="0 0 16 16" xmlns="http://www.w3.org/2000/svg"><path fill-rule="evenodd" clip-rule="evenodd" d="M3 0a3 3 0 00-3 3v1.5a3 3 0 003 3h1.5a3 3 0 003-3V3a3 3 0 00-3-3H3zM2 3a1 1 0 011-1h1.5a1 1 0 011 1v1.5a1 1 0 01-1 1H3a1 1 0 01-1-1V3zm1 5.5a3 3 0 00-3 3V13a3 3 0 003 3h1.5a3 3 0 003-3v-1.5a3 3 0 00-3-3H3zm-1 3a1 1 0 011-1h1.5a1 1 0 011 1V13a1 1 0 01-1 1H3a1 1 0 01-1-1v-1.5zM8.5 3a3 3 0 013-3H13a3 3 0 013 3v1.5a3 3 0 01-3 3h-1.5a3 3 0 01-3-3V3zm3-1a1 1 0 00-1 1v1.5a1 1 0 001 1H13a1 1 0 001-1V3a1 1 0 00-1-1h-1.5zm0 6.5a3 3 0 00-3 3V13a3 3 0 003 3H13a3 3 0 003-3v-1.5a3 3 0 00-3-3h-1.5zm-1 3a1 1 0 011-1H13a1 1 0 011 1V13a1 1 0 01-1 1h-1.5a1 1 0 01-1-1v-1.5z"/></svg>