<svg viewBox="0 0 16 16" xmlns="http://www.w3.org/2000/svg"><path fill-rule="evenodd" clip-rule="evenodd" d="M15 10.5a1 1 0 00-.553-.895l-3-1.5a1 1 0 00-1.154.188L8.804 9.78l-.011-.006a7.422 7.422 0 01-1.437-1.128 7.45 7.45 0 01-1.13-1.439l-.007-.013 1.488-1.488a1 1 0 00.187-1.154l-1.5-3A1 1 0 005.5 1H1a1 1 0 00-1 1.031l1-.03-1 .03v.009l.001.017a5.444 5.444 0 00.016.262c.013.174.036.422.075.728.078.611.221 1.463.485 2.435.525 1.932 1.545 4.41 3.54 6.405 1.994 1.994 4.47 3.013 6.402 3.538a18.23 18.23 0 002.435.484 14.158 14.158 0 00.99.09h.024L14 15l-.03 1A1 1 0 0015 15v-4.5zm-6.354 1.435L9 11l-.354.936.604.228.457-.457 1.49-1.49 1.803.9v2.78a16.134 16.134 0 01-1.957-.403c-1.744-.473-3.855-1.364-5.513-3.021-1.657-1.658-2.55-3.77-3.023-5.515-.207-.761-.33-1.44-.404-1.958h2.779l.901 1.803-1.49 1.49-.458.457.23.605L5 7l-.935.355v.002l.002.003.002.007.008.018a3.066 3.066 0 00.105.24c.072.151.179.36.326.607a9.449 9.449 0 001.434 1.83 9.42 9.42 0 001.828 1.431 7.225 7.225 0 00.79.408l.056.023.018.007.007.003h.003l.001.001zM12 6a2 2 0 100-4 2 2 0 000 4z"/></svg>