<svg width="200" height="200" viewBox="0 0 200 200" fill="none" xmlns="http://www.w3.org/2000/svg">
<g opacity="0.5">
<path d="M133.964 32.7813C133.157 39.1488 119.721 39.2365 116.897 34.3425C115.283 31.378 118.651 28.9397 121.247 28.2732C124.629 27.2983 128.254 27.6302 131.403 29.2029C132.086 29.5312 132.678 30.0233 133.125 30.6353C133.571 31.2474 133.86 31.9605 133.964 32.7111V36.921C133.908 37.7699 133.575 38.577 133.017 39.2189C129.509 42.7272 123.229 42.7272 118.984 40.4995C118.3 40.1709 117.707 39.679 117.257 39.0673C116.807 38.4555 116.515 37.7425 116.406 36.9912C116.406 33.6934 116.406 36.3422 116.406 33.0795M106.39 135.152C106.565 144.396 106.021 157.64 106.618 166.867C109.319 174.041 118.44 175.883 125.281 176.076M125.281 176.076C132.123 175.883 141.244 174.041 143.945 166.867C144.542 157.658 143.945 144.379 144.173 135.152M125.281 176.076V186.846M112.915 173.69V180.409L125.281 187.548L137.56 180.409V173.69M176.555 44.1831C181.221 46.902 186.273 45.183 187.079 39.5347C187.296 35.0745 186.224 30.6462 183.991 26.7795C181.757 22.9127 178.457 19.7713 174.485 17.7309C169.222 15.5558 165.223 19.0815 165.241 24.4843M181.905 41.1134C188.921 35.851 178.589 17.9063 170.538 21.4321M183.992 44.762C186.501 43.3236 189.728 41.4291 192.254 39.9908C193.727 39.1488 196.201 37.9209 197.025 36.3597C199.604 31.3078 197.552 25.0807 195.008 20.4322C192.465 15.7838 187.886 10.995 182.22 10.7144C180.466 10.7144 178.168 12.1878 176.695 13.0298L168.433 17.801M125.211 52.8836V141.432M149.874 38.5173L142.647 48.586M149.874 38.5173V127.066L142.647 137.134M149.874 38.5173L142.647 28.4486C123.58 23.5897 126.86 23.5721 107.775 28.4486L100.548 38.5173M142.647 48.586V137.134M142.647 48.586C123.562 53.4274 126.895 53.4449 107.775 48.586L100.548 38.5173M142.647 137.134C123.562 141.993 126.843 141.976 107.775 137.134M107.775 137.134V83.9141M107.775 137.134L100.548 127.066V88.0364M107.775 61.5139V48.6386M107.775 61.5139C114.283 62.9698 122.142 70.5301 117.897 77.4239C96.1629 91.7902 57.116 112.577 34.7684 126.066M107.775 61.5139C107.021 60.5667 105.811 58.988 104.442 59.5844L23.3841 106.385M100.548 38.5173V61.8297M115.809 79.2306C124.176 73.5122 115.125 62.7944 107.775 61.4613C107.021 60.5141 105.828 58.9354 104.442 59.5318M149.874 59.5668L181.905 41.0608L182.712 40.4293C183.366 39.5766 183.833 38.5948 184.081 37.5487C184.329 36.5026 184.352 35.4159 184.15 34.36C183.168 28.4837 178.993 21.5198 172.573 20.8357C171.867 20.8898 171.177 21.0742 170.538 21.3795L147.226 34.8336M20.56 139.064L28.822 134.293C31.7689 132.854 34.2597 131.013 34.6632 127.487C36.1893 118.839 25.8925 101.701 15.9992 105.753L7.73733 110.507C5.87595 111.32 4.23894 112.572 2.96605 114.155C0.0892758 119.997 2.96609 127.101 6.29893 132.135C9.63178 137.169 17.9814 143.625 22.5772 137.012C27.5765 128.241 15.5607 107.77 5.03591 112.103" stroke="white" stroke-linecap="round" stroke-linejoin="round"/>
</g>
</svg>
