<svg width="320" height="320" viewBox="0 0 320 320" fill="none" xmlns="http://www.w3.org/2000/svg">
<g opacity="0.5">
<path d="M190.099 288.856C144.299 296.321 89.0691 290.989 54.7752 256.499C41.5291 241.316 40.7429 223.496 43.8861 204.468M42.4829 214.655C47.3098 269.043 128.864 283.271 172.896 278.95M136.777 66.7312C138.44 67.0109 140.146 66.864 141.737 66.3045C143.327 65.7449 144.749 64.791 145.87 63.532C146.339 60.8083 146.471 58.0372 146.263 55.2812M135.543 59.7714C139.247 60.3888 145.506 59.7714 146.263 55.2812C145.337 50.0614 137.226 49.8368 133.241 51.4365M66.5618 51.9416C62.4364 49.7807 54.8592 49.7246 52.5299 54.5516C52.2098 57.5446 52.3141 60.5679 52.8389 63.532C55.0279 66.7032 59.6582 67.1241 63.1662 66.5629M52.4457 55.3373C53.3156 60.2485 60.4719 60.6133 64.3728 59.5469M2.91336 136.021L210.585 255.993L242.634 237.471M307.181 200.175L286.217 212.298M196.413 136.161L307.293 200.175M2.85718 136.021V180.67L210.529 300.615L234.046 287.06M307.181 200.062V224.057M172.896 193.383C174.945 213.336 222.737 213.336 224.814 193.383M3.11 119.211L99.7615 175.001L183.616 126.591M18.4608 110.342L3.50259 119.211V136.049L100.154 191.868L196.778 136.049V133.495M126.983 27.6103L137.226 69.0605M136.244 95.3282C138.385 92.8649 139.82 89.8687 140.398 86.6565M68.9475 99.7342C86.2909 110.791 110.706 110.707 128.751 101.25M62.8572 68.5554C60.7805 77.5077 56.1782 87.4704 63.6993 95.3282M72.9885 27.6103C70.6592 43.9996 96.674 47.5918 108.433 45.0941C117.497 43.6628 131.557 36.1978 125.973 25.1968C116.627 12.0349 93.8679 11.8665 80.6499 18.9386C78.6174 19.9806 76.8378 21.4552 75.4366 23.2589C74.0354 25.0625 73.0468 27.1514 72.5398 29.3783C70.5472 37.152 64.9059 60.4169 62.8572 68.6676M126.169 62.7742C124.093 61.6798 121.819 63.4759 120.557 64.9352C118.115 67.7415 117.049 73.0737 120.781 75.4029M168.49 77.6481C169.5 83.7098 181.651 83.7098 184.514 79.1074C186.17 75.8239 181.96 73.4946 179.238 73.1579C175.702 72.5966 171.099 73.1578 168.91 76.1887C168.446 78.9128 168.305 81.6823 168.49 84.4395C169.584 90.0522 179.547 90.0522 183.336 87.2459C186.142 85.113 184.514 80.6789 184.907 77.6761M13.7175 77.6761C14.7278 83.7379 26.88 83.7379 29.7144 79.1354C31.3982 75.852 27.1883 73.5227 24.4662 73.1859C20.9301 72.6246 16.3278 73.1859 14.1389 76.2168C13.6605 78.9393 13.5187 81.7105 13.7175 84.4676C14.7839 90.0803 24.7747 90.0803 28.5634 87.2739C31.3697 85.1411 29.7422 80.707 30.1351 77.7042M146.263 55.6741L176.151 72.9053M23.7646 72.9053L52.558 56.2915M13.8861 78.7425L13.1845 79.1635L3.39023 84.7763V101.615L100.042 157.405L178.873 111.802M196.666 92.3535V84.7482L184.935 77.9568M136.272 95.3002C137.942 93.2175 139.259 90.8761 140.173 88.3684M68.9475 99.7904C86.5996 111.016 111.857 111.016 129.874 100.576M52.558 106.694C53.3157 113.036 68.1898 113.036 68.9475 106.694M129.874 106.694C130.632 113.036 145.506 113.036 146.263 106.694M168.518 84.243C169.304 90.5574 184.149 90.5574 184.935 84.243M91.2019 128.864C91.9877 135.207 106.834 135.207 107.619 128.864M13.8861 84.243C14.6718 90.5574 29.5178 90.5574 30.3036 84.243M59.7706 80.8754C59.2256 83.4535 59.3187 86.1257 60.0426 88.6594C60.7665 91.1931 62.0992 93.5114 63.924 95.4124M136.637 66.5629C140.089 66.8716 145.674 66.0858 146.263 61.9323M52.558 61.9323C53.3157 66.4787 59.6304 67.0399 63.3628 66.3945M3.50259 84.7482L100.154 140.539L166.525 102.204M196.778 84.7482L180.894 93.925M217.601 178.116C209.456 174.009 200.176 172.726 191.221 174.468C183.784 175.984 173.878 180.081 173.288 188.725C172.867 194.057 173.737 198.743 178.228 202.139C189.986 211.26 218.527 211.204 224.897 195.684C226.188 187.967 224.898 182.13 217.601 178.116M173.288 188.725C175.365 208.678 223.158 208.65 225.206 188.725M129.79 99.9307C130.8 105.992 142.923 105.992 145.786 101.39C147.47 98.0785 143.26 95.7773 140.51 95.4124C137.002 94.8512 132.371 95.4124 130.182 98.4433C129.713 101.167 129.581 103.938 129.79 106.694C130.856 112.307 140.819 112.307 144.607 109.5C147.414 107.368 145.814 102.934 146.179 99.9588M52.4737 99.9588C53.456 106.021 65.6075 106.021 68.47 101.418C70.1538 98.1066 65.9446 95.8053 63.1943 95.4405C59.6863 94.8792 55.056 95.4405 52.867 98.4714C52.398 101.195 52.2656 103.966 52.4737 106.722C53.5402 112.335 63.5029 112.335 67.2915 109.529C70.0979 107.396 68.4984 102.962 68.8632 99.9868M162.035 83.5414C152.774 78.2935 134.729 67.6012 125.552 62.5217C120.921 62.0165 117.133 68.5554 118.564 72.6527C118.946 73.806 119.708 74.7955 120.725 75.4591L179.126 109.136M186.086 97.3769L162.147 83.5414M307.574 224.057C303.168 221.503 297.527 218.304 293.093 215.638C290.536 213.703 287.615 212.305 284.504 211.528C281.393 210.752 278.157 210.613 274.992 211.119C247.377 217.967 222.007 261.634 234.973 288.323C240.164 296.012 250.464 299.268 257.957 304.263C277.601 316.246 298.144 294.272 307.574 278.472C317.003 262.673 326.461 224.646 299.155 221.812C268.678 221.531 232.868 285.208 260.427 305.694M262.475 273.084C257.592 271.008 251.25 281.728 255.628 284.927M91.2019 122.157C92.2122 128.219 104.364 128.219 107.198 123.617C108.882 120.305 104.673 118.004 101.951 117.639C98.4145 117.106 93.8116 117.639 91.6226 120.698C91.1439 123.411 91.0028 126.173 91.2019 128.921C92.2964 134.674 102.259 134.674 106.048 131.727C108.854 129.566 107.227 125.16 107.619 122.157M262.475 273.112C258.069 271.513 254.056 278.248 254.225 282.065C253.663 285.124 260.118 287.144 261.83 288.519C264.327 289.698 270.529 294.385 273.448 293.851C274.61 293.757 275.73 293.369 276.7 292.723C277.671 292.077 278.462 291.195 278.998 290.159C279.534 289.123 279.797 287.969 279.764 286.803C279.731 285.637 279.403 284.499 278.809 283.496C275.16 279.37 266.993 276.143 262.475 273.112M214.514 98.752C211.99 96.1864 208.835 94.3309 205.366 93.3724C201.897 92.4138 198.237 92.386 194.754 93.2917C191.271 94.1974 188.088 96.0047 185.525 98.5316C182.963 101.059 181.111 104.216 180.156 107.686C179.202 111.156 179.179 114.816 180.089 118.298C180.998 121.78 182.81 124.961 185.34 127.521C187.87 130.08 191.03 131.928 194.501 132.878C197.972 133.829 201.632 133.848 205.113 132.934C208.575 132.007 211.735 130.191 214.278 127.665C216.821 125.14 218.659 121.993 219.609 118.537C220.56 115.081 220.59 111.437 219.696 107.966C218.802 104.495 217.015 101.319 214.514 98.752" stroke="white" stroke-linecap="round" stroke-linejoin="round"/>
</g>
</svg>
