<svg width="320" height="320" viewBox="0 0 320 320" fill="none" xmlns="http://www.w3.org/2000/svg">
<g opacity="0.5">
<path d="M96.2242 267.912C86.2212 267.197 76.065 261.609 67.7717 256.377C60.1163 251.657 49.9094 247.089 43.4023 240.684C8.59588 200.723 31.8172 132.105 56.1612 92.0422C79.6888 54.9647 123.477 8.93036 171.63 18.3975C180.459 20.9493 189.492 27.2522 197.428 31.6413C206.053 36.2345 216.056 42.1802 221.645 50.5245L203.553 35.2138C154.788 16.3816 104.16 68.3871 80.5817 106.205C55.4976 146.344 30.0817 224.684 73.7939 259.976M278.499 198.962C293.809 162.625 305.088 111.563 276.483 79.028C269.695 72.4699 259.411 67.7746 251.424 62.9262C227.207 45.6251 202.276 50.3204 177.728 64.1001C130.29 93.216 98.0104 145.757 87.8543 200.034C83.0569 229.456 85.7107 268.932 115.567 284.243C128.326 291.082 141.238 301.57 156.217 302.82C205.415 304.351 246.193 258.47 268.7 218.994M263.596 70.0713C214.831 51.239 164.076 103.245 140.625 141.062C115.541 181.176 90.1254 259.516 133.838 294.807M238.078 117.509C206.972 105.873 175.483 141.266 162.162 165.993C149.863 189.316 138.278 229.507 162.162 249.054M192.044 265.717C190.018 269.957 189.583 274.784 190.819 279.318L193.371 282.38L197.326 283.146C205.415 281.36 211.565 272.939 213.453 265.283M200.694 212.078C207.835 207.467 213.775 201.222 218.026 193.861C222.277 186.5 224.716 178.234 225.141 169.744M190.589 268.601C189.696 272.143 189.696 275.852 190.589 279.395L193.141 282.457L197.097 283.222C204.982 281.589 210.57 273.551 213.071 266.38M190.487 268.601L191.712 265.794M263.162 188.321L253.389 193.961L248.515 206.567L253.389 213.533M196.714 226.7L186.94 232.34L182.066 244.945L186.94 251.886M274.212 194.701C279.775 176.022 282.684 151.984 268.547 136.367C261.121 130.013 250.939 125.7 242.697 120.469C232.49 112.967 218.378 114.421 207.431 119.55C179.208 133.585 159.764 162.548 151.292 192.353C145.805 212.385 145.014 241.501 166.602 251.988C171.4 254.744 178.137 258.674 182.934 261.405C187.419 264.518 192.579 266.521 197.99 267.248C226.85 267.861 249.638 242.292 263.188 219.274M261.453 130.753C232.464 119.908 203.655 149.917 189.518 172.296C174.82 196.155 159.891 241.194 185.537 262.247M201.052 211.772C208.192 207.16 214.133 200.916 218.383 193.555C222.634 186.194 225.073 177.927 225.498 169.438M226.11 169.132C213.096 176.787 204.344 191.001 201.588 205.597C199.342 216.952 203.68 231.702 217.945 228.844C234.939 224.199 246.014 206.235 249.383 189.725C250.633 182.069 250.046 171.862 242.416 167.575M266.148 200.748L261.274 213.354M266.148 200.748L253.823 193.629M266.148 200.748L275.921 195.109M251.373 199.932C250.837 201.361 249.485 204.857 248.821 206.235L253.695 213.201L266.02 220.295L275.794 214.656L280.693 202.075L275.794 195.109L263.469 187.99L253.695 193.629L251.143 199.932M265.918 220.346L261.044 213.405L248.719 206.286M199.47 239.178L194.57 251.759M199.47 239.178L187.145 232.059M199.47 239.178L209.243 233.539M194.57 251.759L199.47 258.725M194.57 251.759C194.392 251.759 182.449 244.741 182.271 244.665M199.47 258.725C199.342 258.623 187.298 251.606 187.145 251.606L182.271 244.665M199.47 258.725L209.243 253.086L214.142 240.48L209.243 233.539M182.271 244.665L187.145 232.059M187.145 232.059L196.918 226.419L209.243 233.539M232.694 153.54L227.82 166.146M232.694 153.54L242.467 147.901M232.694 153.54L220.42 146.446C219.578 148.641 216.337 156.934 215.572 158.976C216.771 160.711 219.246 164.079 220.446 165.916L232.771 173.036L242.544 167.397L247.443 154.791L242.544 147.85L230.219 140.73L220.446 146.37M227.82 166.146L232.694 173.087M227.82 166.146L215.495 159.027M74.9935 134.683C78.5405 130.472 86.7317 125.853 90.3042 132.284C93.0346 138.51 90.049 145.859 86.451 151.116C81.9343 158.057 69.7622 164.105 68.2312 151.831C68.242 145.485 70.6164 139.372 74.8913 134.683M134.986 169.387C138.533 165.151 146.724 160.532 150.297 166.963C153.027 173.189 150.042 180.564 146.444 185.82C141.952 192.761 129.755 198.809 128.224 186.535C128.22 180.187 130.596 174.068 134.884 169.387M259.539 96.8906C263.086 92.6546 271.277 88.0359 274.85 94.3388C277.58 100.565 274.594 107.94 270.996 113.197C266.505 120.112 254.308 126.185 252.776 113.911C252.773 107.563 255.149 101.444 259.437 96.763" stroke="white" stroke-linecap="round" stroke-linejoin="round"/>
</g>
</svg>
