<svg width="320" height="320" viewBox="0 0 320 320" fill="none" xmlns="http://www.w3.org/2000/svg">
<g opacity="0.5">
<path d="M56.9282 173.148C54.8035 173.005 52.7156 172.521 50.7445 171.714C47.6573 170.03 45.0338 167.609 43.1068 164.667C41.1798 161.725 40.009 158.353 39.6983 154.85C39.1785 151.073 39.4418 147.23 40.4718 143.56C41.5018 139.89 43.2764 136.471 45.6852 133.516C48.1163 130.344 51.6686 128.222 55.6142 127.584C59.5598 126.947 63.5998 127.842 66.9063 130.087C77.1937 137.732 78.1493 153.754 71.4035 164.097C69.8578 166.754 67.6552 168.969 65.0072 170.529C62.3592 172.089 59.3546 172.943 56.2817 173.007M180.292 257.077V300.419M144.539 52.5387L152.016 56.8391M64.8826 207.861L57.2092 203.673M57.2092 203.673L64.6858 207.917M57.2092 203.673L52.3185 206.483M289.911 110.918L252.36 132.589M180.32 73.5631C133.071 107.882 99.1175 166.711 93.0182 224.781M93.7771 256.599C96.5879 274.475 105.161 292.886 121.351 302.189M289.996 111.058C285.667 65.187 252.472 41.2394 208.343 58.3007M64.7701 208.282C64.6296 209.884 64.3485 213.567 64.2923 215.141M180.376 116.764C176.953 119.471 173.688 122.371 170.595 125.45M149.514 257.555C147.434 262.783 146.704 272.199 153.73 273.745C161.629 274.251 167.503 266.577 170.595 260.141C173.928 259.568 177.202 258.693 180.376 257.527M252.444 132.673C251.875 129.346 250.99 126.08 249.802 122.92C253.849 117.017 257.559 108.107 253.175 101.502C248.34 96.1896 240.554 101.502 237.041 105.943M170.595 125.618C167.053 121.908 161.404 124.241 158.003 126.995C151.313 132.842 145.242 143.86 149.57 152.573C148.671 154.035 146.928 157.07 146.113 158.588C136.416 159.263 129.923 170.028 128.209 178.741C127.534 183.07 128.209 189.113 133.324 190.322M233.64 104.003C237.519 94.475 233.359 82.6699 221.835 89.9497M221.835 236.727C230.492 232.23 238.306 218.457 233.64 209.069C234.539 207.58 236.282 204.572 237.097 203.054C247.581 202.408 255.592 188.719 255.17 179.022M261.691 59.3969C234.23 43.5161 202.497 25.2463 174.952 9.33744C168.31 5.5996 160.914 3.40001 153.309 2.90082C113.958 1.57977 80.3979 30.3056 56.4504 58.8347C21.4003 101.614 -10.558 176.886 14.8793 230.6C18.9032 238.485 24.824 245.246 32.1092 250.275C52.3466 262.333 79.4704 277.624 99.8483 289.625C108.899 294.347 120.648 302.836 130.233 306.068C146.732 311.521 164.973 307.867 180.461 300.897M221.835 272.283C253.208 241.991 275.434 203.491 285.976 161.174M128.04 252.383C127.478 265.959 139.761 263.626 146.113 255.559C147.239 256.294 148.403 256.969 149.599 257.583M221.835 150.437L252.528 132.701M180.461 222.111V257.077M180.461 161.287C175.539 166.925 171.793 173.49 169.442 180.596M233.724 208.704C230.492 203.082 222.875 206.315 219.333 209.969M231.138 189.535C229.761 194.397 230.801 202.605 237.238 202.633M170.539 259.888C173.865 259.337 177.13 258.472 180.292 257.302M202.3 199.962C207.322 194.191 211.196 187.513 213.712 180.287M170.511 259.888C172.619 254.913 174.108 248.392 170.511 243.726C162.275 236.558 151.707 249.938 149.233 257.274C148.362 256.852 146.619 255.84 145.804 255.306C150.009 250.472 152.334 244.286 152.353 237.88M221.666 117.945C227.214 114.728 231.415 109.618 233.499 103.554C234.371 104.003 236.113 104.987 236.929 105.549C232.038 111.171 226.079 125.225 234.455 130.228C240.47 132.561 246.345 127.024 249.718 122.554M168.993 124.269C176.441 128.569 170.96 142.061 167.222 147.064C163.484 152.067 154.293 159.235 149.43 152.067C148.502 153.585 146.619 156.565 145.917 158.139C154.574 158.757 153.084 170.421 150.498 176.043C147.884 182.199 139.086 193.582 131.638 189.282M133.296 189.844C132.165 194.061 131.283 198.34 130.654 202.661M313.999 118.844L255.002 152.826L233.809 165.081M233.809 165.081L227.513 175.144M233.809 165.081L221.666 158.054M227.513 175.144V188.017M227.513 175.144L216.101 168.538M205.027 174.975C209.383 177.448 229.508 189.506 233.893 190.828L238.643 188.017L313.859 144.647V118.844L289.096 104.566M215.96 207.889L204.942 214.241L199.321 224.697V317.143M199.321 317.143L174.558 302.836M199.321 317.143L221.61 304.269V211.824C218.181 208.648 197.915 197.377 193.503 194.763M187.235 217.726L199.377 224.725M187.235 217.726L107.297 264.048L67.356 240.971V234.535L59.9357 230.262V236.84M187.235 217.726L193.531 207.664M193.531 207.664L204.942 214.269M193.531 207.664V194.791L169.161 180.737M180.292 300.531V221.83M210.536 223.432C208.908 224.478 207.55 225.894 206.573 227.565C205.596 229.235 205.028 231.113 204.914 233.045C204.914 235.041 206.095 237.289 208.343 237.008C210.333 236.369 212.102 235.181 213.445 233.579C214.788 231.977 215.65 230.029 215.932 227.958C216.635 224.219 214.19 221.24 210.479 223.432M67.1312 215.225L107.072 238.273L187.122 192.064M67.2436 221.549L59.8232 217.277V210.671L52.3185 206.483M52.3185 206.483V232.539L59.8232 236.868L65.4447 233.579M67.2436 221.69V215.253L72.1062 212.442L92.962 224.5L168.15 181.074M107.184 264.076V238.301M64.6858 208.001C64.5453 209.603 64.2642 213.285 64.208 214.859M64.1237 214.859L67.1593 216.63M199.265 78.6505V171.068M159.436 55.4618L199.377 78.51L221.666 65.6367M144.539 46.8891L152.016 51.2176L157.637 47.929L165.086 52.2295M144.539 46.8891L167.025 33.8753L174.446 38.2038V44.781M144.539 46.8891V52.5106L152.016 56.811M180.629 160.921L204.999 174.975L216.242 168.538L221.863 158.054V65.6367L181.95 42.5605L176.329 45.7929L168.908 41.4924L174.53 38.2038M180.376 159.909V73.0852L159.521 61.0552V55.4337L165.142 52.2014M157.694 52.9884C156.344 53.8316 153.337 55.7991 152.072 56.811M210.536 146.614C208.907 147.667 207.549 149.088 206.573 150.763C205.596 152.438 205.028 154.32 204.914 156.255C204.914 160.556 208.681 161.202 211.548 158.701C213.837 156.761 215.386 154.09 215.932 151.14C216.635 147.401 214.19 144.422 210.479 146.614M157.637 52.9884L160.673 54.8997M68.2274 145.097C65.8383 151.224 63.4772 157.38 61.0881 163.479L46.8376 155.243L53.9769 136.861L68.2274 145.097ZM245.726 165.081C243.747 165.721 241.989 166.907 240.656 168.504C239.323 170.101 238.469 172.042 238.193 174.104C237.744 176.38 238.643 179.725 241.51 179.332C243.491 178.703 245.251 177.523 246.585 175.93C247.919 174.337 248.772 172.397 249.043 170.337C249.493 168.06 248.593 164.716 245.726 165.081ZM175.176 205.921C173.438 207.788 172.259 210.106 171.775 212.611C170.876 219.863 177.397 218.879 180.461 214.297C181.497 213.049 182.226 211.574 182.587 209.992C182.949 208.41 182.933 206.765 182.541 205.19C180.995 201.93 176.919 203.898 175.176 205.921Z" stroke="white" stroke-linecap="round" stroke-linejoin="round"/>
</g>
</svg>
