<svg width="174" height="22" viewBox="0 0 174 22" fill="none" xmlns="http://www.w3.org/2000/svg"><path fill-rule="evenodd" clip-rule="evenodd" d="M78.043 9.467v4.73h5.095c-.87 1.302-2.27 2.333-4.203 2.333-3.394 0-5.69-2.44-5.714-5.497a5.41 5.41 0 01.412-2.125 5.514 5.514 0 011.216-1.807 5.667 5.667 0 011.833-1.213 5.778 5.778 0 012.17-.434c1.833 0 3.541 1.04 4.509 2.606l4.953-3.474C86.254 1.802 82.798 0 78.586 0c-6.47 0-11.68 5.007-11.633 11.074C67 17.14 71.8 21.989 78.741 21.989c6.361 0 10.99-4.482 10.99-11.074v-1.45l-11.688.002zm-16.018 12.07h-6.673l-.983-3.096h-7.602l-.999 3.13h-6.227L46.867.4l7.834-.03 7.324 21.167zM50.579 6.502l-2.275 7.126h4.537L50.58 6.501zM13.24 14.793l5.623 6.777H11.04l-4.893-6.544v6.54H0V.397h9.22c3.771 0 8.197 1.633 8.197 7.383v.42c0 3.569-1.85 5.599-4.177 6.593zm-2.093-6.802c-.024-1.92-1.872-2.202-3.02-2.202h-1.98v4.403h1.98c1.148 0 2.996-.282 3.02-2.201zm29.265 2.963v.033l-.002.03c-.036 8.768-7.37 10.553-11.757 10.553h-8.928V.4h8.93c4.386 0 11.722 1.787 11.757 10.553zm-14.539 5.229h1.688c1.154 0 6.468-.035 6.499-5.196-.022-5.162-5.345-5.198-6.499-5.198h-1.688v10.394zm84.371 5.4l-5.625-6.774c2.327-.995 4.179-3.027 4.179-6.595v-.419c0-5.752-4.428-7.382-8.2-7.382h-9.22v21.166h6.148V15.04l4.893 6.542h7.825zM99.506 5.802c1.147 0 2.996.282 3.022 2.202-.026 1.92-1.875 2.201-3.022 2.201h-1.98V5.802h1.98zM109.732 11c0-6.073 4.925-10.998 11.519-10.998 6.617 0 11.53 4.918 11.53 10.998 0 6.08-4.913 10.998-11.53 10.998-6.539 0-11.519-4.925-11.519-10.998zm6.23 0c0 2.975 2.287 5.387 5.289 5.387 3.038 0 5.289-2.412 5.289-5.387 0-2.975-2.259-5.387-5.289-5.387-3.029 0-5.289 2.412-5.289 5.387zM165.056.417h-9.324v21.166h6.148v-5.59h3.176c3.872 0 8.418-1.905 8.418-7.575v-.434c.009-5.887-4.546-7.567-8.418-7.567zm-1.123 10.05h-2.031l-.022.146V5.802l.022.145h2.031c1.181 0 3.076.289 3.113 2.26-.037 1.97-1.932 2.26-3.113 2.26zm-16.399 1.618V.418h6.154v11.668c0 8.592-5.536 9.915-9.593 9.915-4.056 0-9.586-1.32-9.586-9.915V.418h6.148v11.668c0 3.062 1.483 4.378 3.438 4.378s3.439-1.316 3.439-4.378z" fill="#fff"/></svg>