<svg width="46" height="48" viewBox="0 0 46 48" fill="none" xmlns="http://www.w3.org/2000/svg"><path d="M43.383 26.808l-1.69-.149-.479-.043-.151-.015-.837-.076-1.207-.106-.365-.033-.32-.114M9.642 41.773l-1.23-.714-3.283-1.902-.42-.263-.403-.293-.386-.319-.365-.349-.348-.377-.328-.402-.307-.43-.285-.453-.264-.48-.245-.504-.221-.526-.2-.549-.173-.572-.154-.592-.131-.612-.106-.63-.083-.65-.06-.665-.036-.683-.012-.695.01-.653.002-.273.008-.165.027-.549.058-.726.084-.733.105-.746.129-.754.151-.76.174-.766.196-.768.217-.775.242-.774.272-.723.295-.731.307-.784.328-.782.348-.779.365-.774.386-.766.403-.76.42-.75.436-.742.454-.73.471-.72.484-.702.496-.691.512-.675.524-.66.481-.623.487-.6.549-.594.56-.577.564-.556.574-.534.58-.51.587-.489.59-.465.591-.44.598-.413.458-.298.139-.089.234-.139.56-.334.607-.339.605-.308.604-.281.6-.253.597-.223.595-.192.587-.164.58-.132.574-.101.564-.07.557-.041.545-.01.536.02.524.053.51.083.498.114.484.144.469.175.453.205.439.232 3.283 1.905 3.285 1.902 3.284 1.905 2.328 1.348.44.256.17.099.06.035.285.164M22.049 7.87l1.169.678m17.369 24.857l-.408.731-.434.731-.448.721-.461.711-.479.696-.491.683-.507.665-.516.653-.527.632-.54.617-.548.597-.56.577-.564.554-.575.534-.58.51-.584.491-.592.463-.592.44-.597.413-.598.387-.6.361-.551.309-.25.142-.1.053-.504.255-.605.283-.6.251-.597.223-.594.192-.588.164-.579.132-.575.1-.564.072-.557.04-.544.01-.537-.02-.524-.053-.509-.084-.499-.113-.484-.145-.468-.174-.454-.205-.438-.233-.413-.24" stroke="#fff" stroke-width=".5" stroke-linecap="round" stroke-linejoin="round"/><path d="M11.705 41.694l-.524-.3-.236-.433-.14-.288-1.168-.676M40.121 8.768l.42.263.404.293.386.321.365.347.348.377.327.402.308.43.284.455.265.478.244.504.222.526.2.551.173.57.154.591.13.613.107.632.083.648.06.665.03.566.005.117.005.341.008.354v.223M20.09 29.495l-.074.288-.11.493-.099.491-.083.488-.068.48-.053.474-.038.47-.023.46-.005.34.003.27.003.286.022.435.038.425.453 1.928.063.303-.365.458-1.207 1.508-.839 1.047-.627.784-1.691 2.112-.363.099-.156-.091-2.9-1.682M.602 29.113v-.223l.01-.43.037-.78.06-.735.084-.744.106-.756.13-.762.155-.769.173-.776.2-.78.221-.784.245-.784.254-.842.272-.83.303-.776.322-.772.343-.769.363-.764.378-.756.398-.751.416-.741.433-.732.446-.72.464-.711.478-.696.492-.68.504-.668.519-.653.58-.65.599-.642.557-.605.564-.584.572-.562.582-.541.587-.519.592-.493.598-.47.602-.446.605-.42.652-.422.366-.222.194-.112m13.328 43.331l-.194.112-.358.197-.645.331-.597.278-.595.248-.59.22-.584.19-.58.162-.574.13-.564.1-.56.071-.549.04-.539.008-.53-.02-.516-.05-.504-.084-.491-.111-.479-.142-.463-.172-.449-.203-.43-.232-.416-.258-.134-.099" stroke="#fff" stroke-width=".5" stroke-linecap="round" stroke-linejoin="round"/><path d="M32.174 8.876l.191-.07.585-.193.58-.16.574-.13.564-.1.56-.07.549-.04.54-.01.526.022.516.05.507.081.491.114.479.142.461.172.449.202.433.23.416.26.395.29.38.316.364.344.342.371.323.4.302.423.285.447.26.476.241.495.217.522.197.54.173.565.152.584.128.605.106.622.083.643.058.657.035.673.013.686-.013.703-.035.713-.058.726-.083.736-.106.744-.128.754-.151.759-.174.766-.197.77-.217.773-.103.329" stroke="#fff" stroke-width=".5" stroke-linecap="round" stroke-linejoin="round"/><path d="M36.857 16.106l.069-.056.07-.063.38-.233.177-.068.196-.079.3-.04.056-.01.32.045.02.01.257.132.053.053.169.175.057.118.099.19.045.205.04.175.008.318.005.111-.063.471-.005.015-.129.473-.115.286-.084.202-.1.18.075.205.111.364.098.377.084.39.068.402.052.415.038.422.023.435.008.445-.008.453-.023.46-.038.468-.052.476-.068.48-.084.486-.098.491-.11.493-.104.408M20.09 29.494l-.099-.065-.083-.106-.116-.152-.13-.322-.003-.012-.063-.397.002-.117.01-.329.04-.22.046-.258.098-.303.058-.187.169-.37.053-.113.254-.428.02-.033.323-.42.055-.055.3-.304.197-.152.176-.136.378-.205.073-.023.068-.02.237-.445.267-.479.28-.473.287-.465.3-.458.31-.447.315-.443.328-.43.332-.42.343-.41.348-.397.355-.384.358-.372.367-.36.368-.344.376-.33.378-.317.184-.142v-6.336l-.194-.337-3.057-1.773M35.81 32.818l-.025.038-.297.458-.31.45-.318.44-.325.43-.335.423-.34.407-.348.397-.355.387-.36.372-.366.36-.37.344-.373.328-.378.316-.096.076-.043.185-.176.488-.003.003-.239.478-.118.182-.174.266-.224.268-.111.134-.308.286-.055.05-.376.263-.378.175-.053.012-.307.071-.113-.005-.222-.01-.174-.063-.118-.046-.242-.2v-.002l-.063-.099m6.096-25.366l.045-.003.34.015.335.033.325.053.318.074.31.09.297.112.29.13.28.149.267.169.236.17" stroke="#fff" stroke-width=".5" stroke-linecap="round" stroke-linejoin="round"/><path d="M15.39 43.035l-.103-.213-.22-.518-.194-.544-.173-.564-.154-.584-.129-.605-.103-.622-.083-.64-.058-.658-.035-.673-.013-.688.013-.7.035-.714.058-.726.083-.736.103-.744.129-.753.154-.762.173-.764.194-.771.22-.772.239-.776.262-.777.282-.776.305-.774.323-.774.342-.767.36-.764.381-.759.398-.748.416-.742.43-.733.45-.721.463-.708.479-.696.491-.683.504-.668.517-.65.529-.635.539-.614.55-.597.559-.577.564-.557.574-.533.58-.511.585-.489.59-.463.594-.44.055-.037m-7.503 25.877l-.025-.066-.063-.303-.05-.269-.109-.356-.096-.372-.083-.382-.065-.395-.053-.404-.036-.415-.025-.48-.005-.158.003-.114m8.822-5.104l3.056 1.77.242.266-.018.076-.134.177-.136.172-.14.17-.144.164-.146.157-.15.154-.15.147-.152.142-.153.136-.156.13-.096.075M27.47 17.79l.18.314v6.536l-.104.119-.141.17-.136.171-.136.177-.129.183-.128.184-.124.188-.118.192-.116.194-.108.198-.106.2-.013.022-.09.177-.096.205-.091.203-.086.207-.08.205-.076.205-.068.207-.066.208-.057.205-.05.204-.049.203-.04.202-.033.2-.027.2-.023.195-.015.192-.01.19v.121l-.003.066.01.174.003.12v.078l-.33.412-.419.521-.511.64-.65.81-.242.306-.058.07-.441.552-.035.043-.068.086-1.157 1.442-.262.329-.685.854-.026.03-.362.102M36.457 16.49l-.174.193-.307.432-.26.47-.199.491-.088.322-.045.166-.056.415m.275 1.199l.028.03.166.173.222.111.056.028.229.033.09.012.298-.043.058-.007.373-.144.338-.21.042-.026.368-.313.346-.38.005-.007.15-.213m-.06 7.133l-.023-.002-.686-.061-.264-.025-1.154-.104-.068-.005-.035-.003-.441-.04-.058-.005-.245-.023-.166-.015" stroke="#fff" stroke-width=".5" stroke-linecap="round" stroke-linejoin="round"/><path d="M40.712 33.418l-4.575-.41-4.508-2.613-.214-.25-3.057-1.771-.363-1.047-.249-.48h-.002l-.058-.115.436-1.125.163-.428m6.537 1.558l3.057 1.771m5.611-2.042l1.77 1.025m-3.04.199l1.545.896" stroke="#fff" stroke-width=".5" stroke-linecap="round" stroke-linejoin="round"/><path d="M36.138 33.008l-.413-1.202.435-1.123.434-1.125 1.285-1.05 4.573.412m-.232-1.23l1.112.1.375.035.734.066m-.966-.56l1.106.1.199.017.479.043m-.001 0l-.13.334-.16.412-.146.377-.012.033-.16.41-.158.41-.103.273-.053.137-.159.41-.159.41-.065.169-.093.24-.159.412-.159.413-.023.058m-5.185-5.717l.32.114.365.033 1.207.106.837.076.151.015.479.043 1.69.15m-8.211-.737l.166.015.245.023.058.005.44.04.036.003.068.005 1.154.104.264.025.686.06.023.003m3.219 2.032l.121.01.925.083.073.008 1.091.096.023.003m-1.311.333l-.01.033-.06.228-.063.23-.066.233-.07.23-.056.18-.017.05-.076.23-.078.233-.083.23-.086.23-.058.155-.03.076-.093.23-.093.23-.099.23-.1.23-.056.124-.048.104-.106.228-.108.225-.063.129-.05.099-.114.225-.055.106m1.505-5.728l1.545.896m-21.64 12.542l-1.545-.896m-1.449 4.698l-1.106 1.383-.675.845m1.011-4.153l.734-.916.375-.468 1.111-1.389" stroke="#fff" stroke-width=".5" stroke-linecap="round" stroke-linejoin="round"/><path d="M42.22 27.69l1.112.1.375.035.734.066m-12.314-6.737l-.92-.533v-2.988l-1.545-.895v-2.972l-.965-.56V10.82l.151-.089.318-.184.317-.185.084-.048.234-.137.317-.182.318-.185.315-.182.317-.184.237-.137.08-.045.318-.185.318-.185.154-.088m-.001-.001v2.388M15.613 44.674l.477-.597.199-.247 1.108-1.384m4.923.27l-.434.544-.678.843-.985 1.231-.123.155m6-4.665l-.409.509-.71.888-.285.354-.829 1.037m21.391-16.121l-.131.334-.159.412-.146.377-.013.033-.158.41-.159.41-.103.273-.053.137-.159.41-.159.41-.065.169-.094.24-.158.412-.159.413-.023.058-.607-.053m.852-3.35l-.083.291-.088.294-.096.296-.096.296-.103.296-.106.296-.108.296-.114.293-.116.296-.123.293-.124.294-.128.293-.109.24-.025.054-.136.29-.138.291-.046.092-1.093-.1" stroke="#fff" stroke-width=".5" stroke-linecap="round" stroke-linejoin="round"/><path d="M42.371 32.36l.33.028.156-.331.056-.122.106-.235.156-.357.151-.356.149-.36.143-.359.136-.361.134-.36.129-.359.125-.361.119-.36.113-.361.066-.215-.965-.56 1.106.1.199.017.479.043M20.098 45.489l-.156-.152-.161-.17-.156-.174-.152-.182-.148-.187-.144-.195-.136-.2-.134-.205-.128-.21-.126-.217-.119-.223-.113-.227-.065-.142-.965-.56m6.963-4.105l-.118.15-.925 1.156-.073.09-1.103 1.38.073.204.088.192.093.188.098.182.101.18.106.171.11.17.114.164.116.157.121.154.126.15.129.144.13.139.137.134.14.126.046.04m7.34-25.977l.146-.11.227-.164.227-.161.229-.155.227-.149.227-.147.229-.139.227-.134.229-.131.227-.124.229-.12.227-.113.227-.109.226-.101.227-.099.146-.06m-2.559 5.537l.141-.114.177-.137.176-.131.176-.13.18-.126.02-.012.156-.107.178-.119.177-.113.179-.11.179-.103.178-.104.18-.096.176-.093.179-.089.156-.073.02-.01.179-.081.176-.076.177-.073.174-.069.143-.05m-5.94-5.373l.073-.054.277-.194.277-.19.278-.182.277-.177.28-.172.277-.165.277-.156.28-.152.277-.144.277-.14.277-.134.277-.124.073-.033" stroke="#fff" stroke-width=".5" stroke-linecap="round" stroke-linejoin="round"/><path d="M27.016 41.355l-.056-.042-.116-.092-.11-.096-.109-.1-.106-.105-.047-.048-.056-.06-.1-.112-.099-.116-.093-.121-.093-.124-.028-.043-.06-.084-.086-.134-.084-.134-.078-.14-.075-.14-.018-.034-.055-.113-.07-.15-.069-.154-.063-.157-.06-.16-.008-.022-.92-.534m-7.005 8.818l-.023-.033-.161-.227-.159-.228-.093-.134-.066-.093-.158-.226-.159-.227-.05-.074-.106-.151-.159-.226-.159-.227-.012-.018-.147-.207-.158-.228-.129-.185m25.102-11.256l.055-.106.114-.225.05-.099.063-.13.108-.224.106-.228.048-.104.056-.123.1-.23.099-.23.093-.231.093-.23.03-.076.058-.154.086-.23.083-.23.078-.234.076-.23.017-.05.056-.18.07-.23.066-.233.063-.23.06-.228.01-.032-.92-.534.122.01.924.083.074.008 1.09.096.023.003M31.047 36.32l.123.194.111.357.038.417-.02.23" stroke="#fff" stroke-width=".5" stroke-linecap="round" stroke-linejoin="round"/><path d="M29.85 33.162l-4.573 5.712.008.023.06.159.063.157.068.154.071.15.055.113.018.033.076.142.078.139.083.134.086.134.06.083.028.043.093.124.093.122.099.116.1.111.056.061.048.048.105.104.109.101.11.096.116.091.056.043" stroke="#fff" stroke-width=".5" stroke-linecap="round" stroke-linejoin="round"/><path d="M25.39 29.39l5.746 3.332.433.62.436.622-.416 1.68-4.573 5.711m-4.891-.227l-1.545-.896m3.286 3.38l-1.548-.896m-1.737-2.484l-1.111 1.39-.375.467-.734.916m-.964-.559L16.29 43.83l-.2.247-.476.597m3.517.256l-1.106 1.383-.675.845M8.975 40.82l.446.634.433.623.436.62.443.634 1.17.678-.447-.635.653.377.51.294.433.622 4.298 2.491" stroke="#fff" stroke-width=".5" stroke-linecap="round" stroke-linejoin="round"/><path d="M8.975 40.82l1.169.677.443.635 1.16.673-.434-.622.39-.488.268-.334m-1.826.136l.66-.825m11.515 2.044l-.434.544-.678.843-.985 1.231-.123.155m6-4.665l-.409.509-.71.888-.285.354-.829 1.037" stroke="#fff" stroke-width=".5" stroke-linecap="round" stroke-linejoin="round"/><path d="M11.705 41.694l-.524-.3-.236-.433-.14-.288-1.168-.676m10.461-3.195l.363-.1.025-.031.685-.855.262-.33 1.157-1.44.068-.087.035-.043.44-.551.059-.071.242-.306.65-.81.511-.64.419-.52.33-.413v-.079l.002-.128M11.97 41.36l3.057 1.774.363-.099 1.69-2.112.628-.784.84-1.047 1.206-1.508.365-.458-.022-.324m4.261 1.538l-.119.15-.925 1.156-.073.09-1.09 1.364-.026.028m-4.775 6.03l-.023-.033-.161-.227-.159-.228-.093-.134-.066-.094-.158-.225-.16-.227-.05-.074-.105-.152-.16-.225-.158-.227-.012-.018-.147-.207-.158-.228-.129-.185-4.299-2.491" stroke="#fff" stroke-width=".5" stroke-linecap="round" stroke-linejoin="round"/><path d="M25.34 30.547l.002.002.03.018 4.478 2.595 1.285-.44M8.975 40.82l.66-.823m2.267 4.012v-.377M24.398 8.327l4.3 2.492v2.388l.964.559v2.972l1.545.895v2.988l.92.534v6.25l.869.503" stroke="#fff" stroke-width=".5" stroke-linecap="round" stroke-linejoin="round"/><path d="M27.649 17.651v-6.336l-.194-.337-3.057-1.773v-.878l.184-.106.686-.397m-3.219-.834l1.169.677.89-.516 1.159.673" stroke="#fff" stroke-width=".5" stroke-linecap="round" stroke-linejoin="round"/><path d="M27.551 24.754l4.576 2.651.87.504.868-.504.87-.503.869-1.642v-6.12l-.92-.531v-2.991l-1.544-.896V11.75l-.965-.56V8.804l-4.299-2.492-.87.504-.269-.157-.143-.081-.746-.433.89-.516m-3.519 2.918l.546-.38.343-.222" stroke="#fff" stroke-width=".5" stroke-linecap="round" stroke-linejoin="round"/><path d="M28.697 10.819l.151-.089.318-.184.317-.185.084-.048.234-.137.317-.182.318-.185.315-.182.317-.184.237-.137.08-.045.318-.185.318-.185.154-.088m3.427 10.336l-.143.05-.174.069-.177.073-.176.076-.179.08-.02.01-.156.074-.18.089-.176.093-.178.096-.18.104-.178.104-.18.109-.176.113-.178.12-.157.106-.02.012-.179.127-.176.129-.176.131-.177.137-.141.114m-5.39-14.497v-1.03l-1.169-.678-.89.516-.868.504-.87.503-.89.516v.88l1.17.678m.889-.602l.474.276m-2.264 16.465l.174-.008.262.066.045.01.257.17.202.258.088.22.045.113.058.383.003.015-.01.407-.003.038-.063.351-.022.127-.079.245-.078.246-.055.118-.164.365-.224.372-.053.09-.23.297-.092.121-.298.301-.055.058-.376.289-.335.182-.043.023-.368.113-.345.02-.005-.002-.151-.038-.312-.139-.03-.023-.069-.045-.083-.106-.116-.152-.13-.322-.003-.012-.063-.397.002-.117.01-.329.04-.22.046-.258.098-.303.058-.187.169-.37.053-.113.254-.428.02-.033.323-.42.055-.055.3-.304.197-.152.176-.136.378-.205.073-.023.068-.02m-12.055.521l.099-.256.085-.222.078-.2.068-.18.066-.167.06-.156.038-.099.02-.05.056-.142.053-.14.053-.138.052-.137.056-.14.053-.143.058-.15.06-.154.066-.167.068-.182.078-.197.086-.226.098-.252m-4.056 1.93l.099-.256.088-.223.075-.2.07-.179.064-.167.063-.157.055-.149.056-.142.053-.139.055-.139.053-.137.053-.139.055-.144.058-.146.06-.157.064-.167.07-.18.078-.2.086-.222.098-.256m.001 0l.196.114.174.099.154.09.138.082.129.073.12.07.117.067.11.065.107.061.108.063.106.061.108.063.11.063.114.066.121.071.129.076.14.081.154.088.172.1.196.116" stroke="#fff" stroke-width=".5" stroke-linecap="round" stroke-linejoin="round"/><path d="M9.862 25.288l-.199-.114-.171-.101-.154-.088-.14-.081-.13-.076-.12-.069-.114-.068-.11-.063-.109-.063-.106-.061-.105-.06-.109-.064-.11-.063-.114-.069-.121-.07-.129-.074-.14-.08-.154-.09-.172-.1-.199-.114" stroke="#fff" stroke-width=".5" stroke-linecap="round" stroke-linejoin="round"/><path d="M9.861 25.288l.099-.256.085-.222.078-.2.068-.18.066-.167.06-.156.058-.15.056-.141.053-.14.053-.138.052-.137.056-.14.053-.143.058-.15.06-.154.066-.167.068-.182.078-.197.086-.226.098-.252m-4.056 1.93l.099-.256.088-.223.075-.2.07-.179.064-.167.063-.157.055-.149.056-.142.053-.139.055-.139.053-.137.053-.139.055-.144.058-.146.06-.157.064-.167.07-.18.078-.2.086-.222.098-.256" stroke="#fff" stroke-width=".5" stroke-linecap="round" stroke-linejoin="round"/><path d="M11.921 22.852l-.022.273-.04.27-.059.267-.073.26-.088.253-.103.245-.119.236-.13.222-.147.21-.156.195-.169.18-.179.162-.186.146-.197.127-.199.106-.207.086-.211.068-.214.046-.215.025-.216.003-.214-.02-.212-.039-.207-.063-.204-.08-.196-.102-.187-.121-.181-.14-.169-.159-.161-.174-.146-.193-.136-.205-.119-.22-.108-.23-.091-.243-.076-.25-.06-.258-.045-.266-.026-.268-.01-.273.005-.273.026-.273.04-.269.058-.268.073-.26.088-.253.103-.245.119-.233.13-.223.147-.21.156-.195.17-.18.175-.164.19-.144.193-.126.202-.106.207-.089.211-.066.214-.045.215-.026.214-.002.214.018.212.04.209.06.201.082.197.103.189.122.181.139.17.157.158.177.149.19.133.207.121.218.108.232.091.24.076.253.06.259.043.265.028.268.01.273-.008.271z" stroke="#fff" stroke-width=".5" stroke-linecap="round" stroke-linejoin="round"/><path d="M8.51 20.221l.196.114.174.099.154.09.138.082.129.073.12.07.117.067.11.065.107.061.108.063.106.061.108.063.11.063.114.066.121.071.129.076.14.081.154.088.172.1.196.116m-1.351 3.498l-.199-.114-.171-.101-.154-.088-.14-.081-.13-.076-.12-.069-.114-.068-.11-.063-.109-.063-.106-.061-.105-.06-.109-.064-.11-.063-.114-.069-.121-.07-.129-.074-.14-.08-.154-.09-.172-.1-.199-.114m8.234 19.315l-.517-1.275-.642-3.015-.106-2.018.048-1.414" stroke="#fff" stroke-width=".5" stroke-linecap="round" stroke-linejoin="round"/></svg>