<svg width="174" height="22" viewBox="0 0 174 22" fill="none" xmlns="http://www.w3.org/2000/svg">
<path fill-rule="evenodd" clip-rule="evenodd" d="M78.0429 9.46704V14.1962H83.1384C82.2687 15.499 80.8675 16.5304 78.9348 16.5304C75.5407 16.5304 73.2454 14.0898 73.2209 11.0326C73.2136 10.3048 73.3537 9.58279 73.6331 8.90802C73.9125 8.23326 74.3257 7.61905 74.849 7.10069C75.3723 6.58233 75.9954 6.17004 76.6824 5.88752C77.3695 5.60499 78.107 5.45781 78.8525 5.45441C80.6852 5.45441 82.3933 6.49448 83.3608 8.06001L88.314 4.58587C86.2544 1.80221 82.7981 0 78.5856 0C72.1155 0 66.9066 5.00711 66.9533 11.0738C67 17.1406 71.7997 21.9892 78.7413 21.9892C85.1023 21.9892 89.7307 17.5075 89.7307 10.9153V9.46487L78.0429 9.46704ZM62.0246 21.5377H55.3522L54.3691 18.4414H46.767L45.7683 21.5703H39.5408L46.8671 0.401899L54.7005 0.371501L62.0246 21.5377ZM50.5792 6.50119L48.3039 13.6275H52.8411L50.5792 6.50119ZM13.2403 14.7934L18.8629 21.5702H11.0406L6.14753 15.0258V21.5659H0V0.397461H9.21906C12.9912 0.397461 17.4172 2.03031 17.4172 7.78002V8.19909C17.4172 11.7688 15.5668 13.799 13.2403 14.7934ZM11.1474 7.99064C11.1229 6.07117 9.27467 5.7889 8.12701 5.7889H6.14753V10.1924H8.12701C9.27467 10.1924 11.1229 9.9101 11.1474 7.99064ZM40.4122 10.9542V10.9868L40.41 11.0172C40.3744 19.785 33.0392 21.5699 28.6531 21.5699H19.7254V0.401489H28.6554C33.0414 0.401489 40.3766 2.1885 40.4122 10.9542ZM25.873 16.1828H27.5611C28.7154 16.1828 34.0289 16.148 34.06 10.9868C34.0378 5.8255 28.7154 5.78858 27.5611 5.78858H25.873V16.1828ZM110.244 21.5832L104.619 14.8087C106.946 13.8142 108.798 11.7818 108.798 8.2143V7.79523C108.798 2.04335 104.37 0.412679 100.598 0.412679H91.3787V21.5789H97.5263V15.041L102.419 21.5832H110.244ZM99.5058 5.80194C100.653 5.80194 102.502 6.08422 102.528 8.00368C102.502 9.92314 100.653 10.2054 99.5058 10.2054H97.5263V5.80194H99.5058ZM109.732 11.0001C109.732 4.92684 114.657 0.00223796 121.251 0.00223796C127.868 0.00223796 132.781 4.92032 132.781 11.0001C132.781 17.0798 127.868 21.9979 121.251 21.9979C114.712 21.9979 109.732 17.0733 109.732 11.0001ZM115.962 11.0001C115.962 13.9748 118.249 16.3872 121.251 16.3872C124.289 16.3872 126.54 13.9748 126.54 11.0001C126.54 8.02534 124.281 5.61298 121.251 5.61298C118.222 5.61298 115.962 8.02534 115.962 11.0001ZM165.056 0.416707H155.732V21.5829H161.88V15.9939H165.056C168.928 15.9939 173.474 14.0875 173.474 8.41809V7.98383C173.483 2.09733 168.928 0.416707 165.056 0.416707ZM163.933 10.4678H161.902L161.88 10.6133V5.80163L161.902 5.94711H163.933C165.114 5.94711 167.009 6.2359 167.046 8.20747C167.009 10.1769 165.114 10.4678 163.933 10.4678ZM147.534 12.0855V0.416707H153.688V12.0855C153.688 20.6775 148.152 21.9998 144.095 21.9998C140.039 21.9998 134.509 20.6796 134.509 12.0855V0.416707H140.657V12.0855C140.657 15.1471 142.14 16.4629 144.095 16.4629C146.05 16.4629 147.534 15.1471 147.534 12.0855Z" fill="white"/>
</svg>
