<svg width="46" height="48" viewBox="0 0 46 48" fill="none" xmlns="http://www.w3.org/2000/svg">
<path d="M43.3835 26.8082L41.6928 26.659L41.214 26.616L41.0628 26.6008L40.2263 26.5249L39.0193 26.4187L38.654 26.3858L38.334 26.272" stroke="white" stroke-width="0.5" stroke-linecap="round" stroke-linejoin="round"/>
<path d="M9.64233 41.7728L8.4127 41.0595L5.1295 39.1573L4.70871 38.8942L4.30556 38.6008L3.92004 38.2821L3.55468 37.933L3.20696 37.5561L2.87939 37.1539L2.57199 36.7239L2.28726 36.2711L2.02269 35.7905L1.77827 35.2871L1.55654 34.7609L1.35748 34.212L1.18362 33.6404L1.02992 33.0484L0.89889 32.4363L0.793061 31.8064L0.70991 31.1564L0.649437 30.4911L0.614161 29.8081L0.601562 29.1125L0.611641 28.4599L0.614161 28.1867L0.62172 28.0222L0.649437 27.4733L0.707391 26.7474L0.790542 26.0138L0.89637 25.2676L1.02488 24.5138L1.17606 23.7549L1.34992 22.9885L1.54646 22.2195L1.76315 21.4454L2.00505 20.6714L2.27718 19.948L2.57199 19.2169L2.87939 18.4328L3.20696 17.6511L3.55468 16.872L3.92004 16.098L4.30556 15.3315L4.70871 14.5727L5.1295 13.8214L5.56542 13.0802L6.01897 12.3492L6.49015 11.6308L6.97394 10.9276L7.47033 10.237L7.98183 9.56165L8.50593 8.90144L8.9872 8.27918L9.47351 7.67968L10.0228 7.08523L10.5822 6.5085L11.1466 5.952L11.7211 5.41827L12.3006 4.9073L12.8877 4.4191L13.4773 3.95366L14.0695 3.51352L14.6667 3.10121L15.1252 2.80272L15.2638 2.71419L15.4982 2.57506L16.0575 2.24116L16.6648 1.9022L17.2695 1.5936L17.8743 1.31282L18.474 1.05987L19.0711 0.837266L19.6658 0.645021L20.2529 0.480601L20.8324 0.349064L21.4069 0.247883L21.9713 0.177056L22.5282 0.136583L23.0725 0.126465L23.6092 0.146701L24.1333 0.199822L24.6422 0.283296L25.1411 0.397126L25.6249 0.54131L26.0936 0.715848L26.5471 0.920741L26.9856 1.15346L30.2688 3.0582L33.5545 4.96042L36.8377 6.86516L39.1659 8.21341L39.6069 8.46889L39.7757 8.56754L39.8362 8.60296L40.1209 8.76738" stroke="white" stroke-width="0.5" stroke-linecap="round" stroke-linejoin="round"/>
<path d="M22.0488 7.86963L23.218 8.54755" stroke="white" stroke-width="0.5" stroke-linecap="round" stroke-linejoin="round"/>
<path d="M40.587 33.4053L40.1788 34.1363L39.7454 34.8673L39.2969 35.5883L38.8358 36.2991L38.3571 36.9947L37.8657 37.6777L37.3593 38.3429L36.8427 38.9956L36.3161 39.6279L35.7769 40.2452L35.2276 40.8421L34.6682 41.4189L34.1038 41.9728L33.5293 42.5066L32.9497 43.0175L32.3652 43.5083L31.773 43.9712L31.1809 44.4113L30.5837 44.8236L29.9865 45.2106L29.3869 45.5724L28.835 45.881L28.5856 46.0226L28.4848 46.0757L27.9808 46.3312L27.3761 46.6145L26.7764 46.865L26.1792 47.0876L25.5846 47.2798L24.9975 47.4442L24.418 47.5758L23.8435 47.6769L23.279 47.7478L22.7222 47.7882L22.1779 47.7984L21.6412 47.7781L21.1171 47.725L20.6081 47.6415L20.1092 47.5277L19.6254 47.3835L19.1568 47.209L18.7032 47.0041L18.2648 46.7714L17.8516 46.5311" stroke="white" stroke-width="0.5" stroke-linecap="round" stroke-linejoin="round"/>
<path d="M11.7054 41.6944L11.1813 41.3934L10.9445 40.9608L10.8059 40.6725L9.63672 39.9971" stroke="white" stroke-width="0.5" stroke-linecap="round" stroke-linejoin="round"/>
<path d="M40.1211 8.76758L40.5419 9.03065L40.945 9.32408L41.3306 9.64533L41.6959 9.99188L42.0436 10.3688L42.3712 10.771L42.6786 11.201L42.9633 11.6563L43.2279 12.1344L43.4723 12.6378L43.6941 13.1639L43.8931 13.7154L44.067 14.2845L44.2207 14.8764L44.3517 15.4886L44.4575 16.121L44.5407 16.7685L44.6012 17.4338L44.6314 18.0004L44.6364 18.1168L44.6415 18.4583L44.649 18.8124V19.035" stroke="white" stroke-width="0.5" stroke-linecap="round" stroke-linejoin="round"/>
<path d="M20.0892 29.4946L20.0162 29.783L19.9053 30.2763L19.807 30.767L19.7239 31.2552L19.6559 31.7358L19.6029 32.2088L19.5651 32.6793L19.5425 33.1397L19.5374 33.4787L19.5399 33.7493L19.5425 34.0352L19.5651 34.4702L19.6029 34.8952L20.0565 36.8227L20.1195 37.1263L19.7541 37.5841L18.5472 39.0917L17.7081 40.1389L17.0807 40.9231L15.39 43.0353L15.0271 43.1339L14.8709 43.0429L11.9707 41.3607" stroke="white" stroke-width="0.5" stroke-linecap="round" stroke-linejoin="round"/>
<path d="M0.601562 29.1125V28.8899L0.611641 28.4599L0.649437 27.6808L0.70991 26.9447L0.793061 26.201L0.89889 25.4447L1.02992 24.6833L1.18362 23.9143L1.35748 23.1378L1.55654 22.3587L1.77827 21.5745L2.02269 20.7903L2.27718 19.948L2.54931 19.1183L2.85167 18.3417L3.1742 17.5702L3.51688 16.8012L3.87972 16.0373L4.25768 15.281L4.6558 14.5297L5.07155 13.7886L5.50494 13.0575L5.95093 12.3366L6.41456 11.6258L6.89331 10.9302L7.38466 10.2497L7.8886 9.58194L8.40766 8.92932L8.9872 8.27923L9.58689 7.63672L10.1438 7.03216L10.7082 6.44784L11.2801 5.88628L11.8622 5.34496L12.4493 4.8264L13.0414 4.33314L13.6386 3.86265L14.2408 3.41745L14.8456 2.99754L15.4982 2.57511L15.8635 2.35251L16.0575 2.24121" stroke="white" stroke-width="0.5" stroke-linecap="round" stroke-linejoin="round"/>
<path d="M29.3862 45.5723L29.1922 45.6836L28.8344 45.8809L28.1893 46.2122L27.5922 46.4905L26.9975 46.7384L26.4079 46.9585L25.8233 47.1482L25.2438 47.3101L24.6693 47.4391L24.1049 47.5402L23.5455 47.6111L22.9962 47.6515L22.457 47.6591L21.9278 47.6389L21.4113 47.5883L20.9073 47.5048L20.416 47.3935L19.9372 47.2519L19.4736 47.0799L19.0251 46.8775L18.5942 46.6448L18.1785 46.3868L18.0449 46.2881" stroke="white" stroke-width="0.5" stroke-linecap="round" stroke-linejoin="round"/>
<path d="M32.1738 8.87609L32.3653 8.80526L32.9499 8.61302L33.5294 8.45366L34.1039 8.32212L34.6684 8.22347L35.2277 8.15264L35.777 8.11217L36.3163 8.10205L36.8429 8.12482L37.3594 8.17541L37.8659 8.25635L38.3572 8.37018L38.836 8.51184L39.2971 8.68385L39.7456 8.88621L40.179 9.1164L40.5947 9.37694L40.9903 9.66531L41.3708 9.9815L41.7337 10.3255L42.0763 10.6974L42.3989 11.097L42.7012 11.5195L42.986 11.9672L43.2455 12.4427L43.4874 12.9385L43.7041 13.4596L43.9006 14.0009L44.0745 14.565L44.2257 15.1494L44.3542 15.7539L44.46 16.3762L44.5431 17.0187L44.6011 17.6764L44.6364 18.3492L44.649 19.0347L44.6364 19.7379L44.6011 20.4513L44.5431 21.1773L44.46 21.9133L44.3542 22.657L44.2257 23.4108L44.0745 24.1697L43.9006 24.9361L43.7041 25.7051L43.4874 26.4792L43.3841 26.808" stroke="white" stroke-width="0.5" stroke-linecap="round" stroke-linejoin="round"/>
<path d="M36.8574 16.1056L36.9255 16.0499L36.996 15.9867L37.3765 15.7539L37.5529 15.6856L37.7494 15.6072L38.0492 15.5668L38.1047 15.5566L38.4247 15.6022L38.4448 15.6123L38.7019 15.7438L38.7548 15.7969L38.9236 15.9715L38.9815 16.0904L39.0798 16.2801L39.1252 16.485L39.1655 16.6595L39.173 16.9782L39.1781 17.0895L39.1151 17.56L39.1101 17.5752L38.9815 18.0482L38.8656 18.3341L38.7825 18.5364L38.6817 18.716L38.7573 18.9209L38.8682 19.2852L38.9664 19.6621L39.0496 20.0516L39.1176 20.4538L39.1705 20.8687L39.2083 21.2911L39.231 21.7262L39.2386 22.1714L39.231 22.6242L39.2083 23.0846L39.1705 23.5525L39.1176 24.0281L39.0496 24.5087L38.9664 24.9944L38.8682 25.4851L38.7573 25.9784L38.654 26.3856" stroke="white" stroke-width="0.5" stroke-linecap="round" stroke-linejoin="round"/>
<path d="M20.0896 29.4945L19.9913 29.4288L19.9081 29.3225L19.7922 29.1707L19.6612 28.8495L19.6587 28.8368L19.5957 28.4397L19.5982 28.3234L19.6083 27.9945L19.6486 27.7744L19.694 27.5164L19.7922 27.2129L19.8502 27.0257L20.019 26.6564L20.0719 26.5426L20.3264 26.1151L20.3466 26.0822L20.6691 25.6623L20.7245 25.6066L21.0244 25.3031L21.2209 25.1513L21.3973 25.0147L21.7753 24.8098L21.8483 24.7871L21.9164 24.7668L22.1532 24.3216L22.4203 23.8435L22.7 23.3705L22.9872 22.9051L23.2871 22.4472L23.597 21.9995L23.912 21.5568L24.2396 21.1268L24.5722 20.7069L24.9148 20.2971L25.2626 19.9L25.6178 19.5155L25.9756 19.1436L26.3435 18.7845L26.7114 18.4404L27.0868 18.1091L27.4648 17.7929L27.6487 17.6512V16.1638V15.5441V14.9851V14.4235V11.8611V11.3147L27.4547 10.9783L24.3983 9.20508" stroke="white" stroke-width="0.5" stroke-linecap="round" stroke-linejoin="round"/>
<path d="M35.8101 32.8184L35.785 32.8563L35.4876 33.3141L35.1777 33.7644L34.8602 34.2045L34.5352 34.6346L34.2 35.057L33.8599 35.4643L33.5122 35.8614L33.1569 36.2484L32.7966 36.6203L32.4312 36.9795L32.0608 37.3235L31.6879 37.6523L31.3099 37.9685L31.2142 38.0444L31.1713 38.229L30.995 38.7172L30.9924 38.7198L30.7531 39.1979L30.6346 39.38L30.4608 39.6456L30.2365 39.9137L30.1257 40.0478L29.8182 40.3336L29.7628 40.3842L29.3874 40.6473L29.0094 40.8218L28.9565 40.8345L28.6491 40.9053L28.5357 40.9002L28.314 40.8901L28.1401 40.8269L28.0217 40.7814L27.7798 40.5815V40.579L27.7168 40.4803" stroke="white" stroke-width="0.5" stroke-linecap="round" stroke-linejoin="round"/>
<path d="M33.8125 15.1139L33.8579 15.1113L34.198 15.1265L34.5331 15.1594L34.8582 15.2125L35.1757 15.2859L35.4856 15.3769L35.7829 15.4882L36.0727 15.6172L36.3524 15.7665L36.6195 15.936L36.8563 16.1054" stroke="white" stroke-width="0.5" stroke-linecap="round" stroke-linejoin="round"/>
<path d="M15.3899 43.0349L15.2866 42.8224L15.0674 42.3039L14.8734 41.76L14.6995 41.1959L14.5458 40.6116L14.4173 40.007L14.314 39.3848L14.2308 38.7448L14.1729 38.0871L14.1376 37.4143L14.125 36.7262L14.1376 36.0255L14.1729 35.3122L14.2308 34.5862L14.314 33.8501L14.4173 33.1065L14.5458 32.3526L14.6995 31.5913L14.8734 30.8273L15.0674 30.0558L15.2866 29.2843L15.526 28.5077L15.788 27.7312L16.0702 26.9546L16.3751 26.1806L16.6976 25.4065L17.0403 24.6401L17.4006 23.8762L17.7811 23.1173L18.1792 22.3685L18.595 21.6274L19.0259 20.8938L19.4744 20.1729L19.938 19.4646L20.4167 18.769L20.9081 18.086L21.412 17.4182L21.9286 16.7681L22.4577 16.1332L22.9969 15.5186L23.5462 14.9216L24.1056 14.3448L24.67 13.7883L25.2445 13.2546L25.8241 12.7436L26.4087 12.2554L26.9983 11.7925L27.5929 11.3524L27.6484 11.3145" stroke="white" stroke-width="0.5" stroke-linecap="round" stroke-linejoin="round"/>
<path d="M20.1449 37.1919L20.1197 37.1261L20.0567 36.8226L20.0063 36.5544L19.898 36.1978L19.8022 35.8259L19.7191 35.444L19.6536 35.0494L19.6007 34.6446L19.5654 34.2298L19.5402 33.7492L19.5352 33.5923L19.5377 33.4785" stroke="white" stroke-width="0.5" stroke-linecap="round" stroke-linejoin="round"/>
<path d="M28.3594 28.374L31.4158 30.1447L31.6577 30.4103L31.6401 30.4862L31.5065 30.6633L31.3704 30.8353L31.2293 31.0047L31.0857 31.1692L30.9396 31.326L30.7909 31.4803L30.6397 31.627L30.4885 31.7687L30.3348 31.9053L30.1786 32.0343L30.0829 32.1102" stroke="white" stroke-width="0.5" stroke-linecap="round" stroke-linejoin="round"/>
<path d="M27.4704 17.79L27.6493 18.1037V18.2808V18.7563V19.0548V20.4941V21.043V21.301V21.7437V21.7589V22.6872V23.4259V24.0228V24.5161V24.64L27.546 24.7589L27.4049 24.9284L27.2688 25.1004L27.1327 25.2775L27.0042 25.4596L26.8757 25.6443L26.7522 25.8315L26.6338 26.0237L26.5179 26.2185L26.4096 26.4158L26.3037 26.6156L26.2911 26.6384L26.2004 26.8154L26.1047 27.0203L26.014 27.2227L25.9283 27.4301L25.8477 27.635L25.7721 27.8399L25.704 28.0473L25.6385 28.2548L25.5806 28.4596L25.5302 28.6645L25.4823 28.8669L25.442 29.0693L25.4092 29.2691L25.3815 29.4689L25.3588 29.6637L25.3437 29.856L25.3336 30.0457V30.119V30.1671L25.3311 30.2329L25.3412 30.4074L25.3437 30.5263V30.549V30.5718V30.6047L25.0136 31.017L24.5954 31.5381L24.0839 32.1781L23.4338 32.9875L23.1919 33.2936L23.1339 33.3644L22.693 33.9159L22.6577 33.9589L22.5897 34.0449L21.4331 35.4867L21.1711 35.8156L20.4857 36.6705L20.4605 36.7009L20.0977 36.8021" stroke="white" stroke-width="0.5" stroke-linecap="round" stroke-linejoin="round"/>
<path d="M36.457 16.4902L36.2831 16.6825L35.9757 17.115L35.7162 17.5855L35.5171 18.0763L35.4289 18.3975L35.3836 18.5645L35.3281 18.9793" stroke="white" stroke-width="0.5" stroke-linecap="round" stroke-linejoin="round"/>
<path d="M35.6035 20.1783L35.6312 20.2087L35.7975 20.3807L36.0193 20.492L36.0747 20.5198L36.304 20.5527L36.3947 20.5654L36.692 20.5224L36.75 20.5148L37.1229 20.3706L37.4606 20.1606L37.5034 20.1353L37.8713 19.8217L38.2165 19.4422L38.2215 19.4347L38.3727 19.2222" stroke="white" stroke-width="0.5" stroke-linecap="round" stroke-linejoin="round"/>
<path d="M38.3115 26.3551L38.2888 26.3526L37.6034 26.2918L37.3388 26.2666L36.1848 26.1628L36.1168 26.1578L36.0815 26.1553L35.6405 26.1148L35.5826 26.1097L35.3382 26.087L35.1719 26.0718" stroke="white" stroke-width="0.5" stroke-linecap="round" stroke-linejoin="round"/>
<path d="M40.7125 33.4179L36.1367 33.0081L31.6289 30.3951L31.4147 30.1447L28.3583 28.374L27.9955 27.3268L27.746 26.8462H27.7435L27.6855 26.7323L28.1215 25.6067L28.2852 25.1792" stroke="white" stroke-width="0.5" stroke-linecap="round" stroke-linejoin="round"/>
<path d="M34.8223 26.7373L37.8787 28.508" stroke="white" stroke-width="0.5" stroke-linecap="round" stroke-linejoin="round"/>
<path d="M43.4902 26.4663L45.2591 27.4908" stroke="white" stroke-width="0.5" stroke-linecap="round" stroke-linejoin="round"/>
<path d="M42.2207 27.6909L43.7653 28.5864" stroke="white" stroke-width="0.5" stroke-linecap="round" stroke-linejoin="round"/>
<path d="M36.1378 33.0079L35.7246 31.8063L36.1605 30.6832L36.5939 29.5576L37.879 28.5078L42.4523 28.9201" stroke="white" stroke-width="0.5" stroke-linecap="round" stroke-linejoin="round"/>
<path d="M42.2207 27.6909L43.3319 27.7896L43.7073 27.825L44.4406 27.8908" stroke="white" stroke-width="0.5" stroke-linecap="round" stroke-linejoin="round"/>
<path d="M43.4746 27.3315L44.5808 27.4302L44.7798 27.4479L45.2586 27.4909" stroke="white" stroke-width="0.5" stroke-linecap="round" stroke-linejoin="round"/>
<path d="M45.2581 27.4912L45.1271 27.8251L44.9684 28.2374L44.8222 28.6143L44.8096 28.6472L44.6509 29.057L44.4921 29.4668L44.3888 29.74L44.3359 29.8766L44.1772 30.2864L44.0184 30.6961L43.9529 30.8656L43.8597 31.1059L43.701 31.5182L43.5422 31.9306L43.5195 31.9887" stroke="white" stroke-width="0.5" stroke-linecap="round" stroke-linejoin="round"/>
<path d="M38.334 26.272L38.654 26.3858L39.0193 26.4187L40.2263 26.5249L41.0628 26.6008L41.214 26.616L41.6928 26.659L43.3835 26.8082" stroke="white" stroke-width="0.5" stroke-linecap="round" stroke-linejoin="round"/>
<path d="M35.1719 26.0718L35.3382 26.087L35.5826 26.1097L35.6405 26.1148L36.0815 26.1553L36.1168 26.1578L36.1848 26.1628L37.3388 26.2666L37.6034 26.2918L38.2888 26.3526L38.3115 26.3551" stroke="white" stroke-width="0.5" stroke-linecap="round" stroke-linejoin="round"/>
<path d="M41.5312 28.3867L41.6522 28.3968L42.5769 28.4803L42.65 28.4879L43.741 28.584L43.7637 28.5866" stroke="white" stroke-width="0.5" stroke-linecap="round" stroke-linejoin="round"/>
<path d="M42.4535 28.9204L42.4434 28.9533L42.3829 29.181L42.3199 29.4111L42.2544 29.6439L42.1838 29.874L42.1284 30.0536L42.1108 30.1042L42.0352 30.3344L41.9571 30.5671L41.8739 30.7973L41.7882 31.0275L41.7303 31.1818L41.7001 31.2577L41.6068 31.4879L41.5136 31.7181L41.4153 31.9483L41.3145 32.1785L41.2591 32.3024L41.2112 32.4061L41.1054 32.6338L40.9971 32.8589L40.9341 32.9879L40.8837 33.0866L40.7703 33.3117L40.7148 33.4179" stroke="white" stroke-width="0.5" stroke-linecap="round" stroke-linejoin="round"/>
<path d="M42.2207 27.6909L43.7653 28.5864" stroke="white" stroke-width="0.5" stroke-linecap="round" stroke-linejoin="round"/>
<path d="M22.1247 41.1279L20.5801 40.2324" stroke="white" stroke-width="0.5" stroke-linecap="round" stroke-linejoin="round"/>
<path d="M19.1311 44.9297L18.0249 46.3133L17.3496 47.1582" stroke="white" stroke-width="0.5" stroke-linecap="round" stroke-linejoin="round"/>
<path d="M18.3613 43.0048L19.0946 42.0891L19.47 41.6211L20.5812 40.2324" stroke="white" stroke-width="0.5" stroke-linecap="round" stroke-linejoin="round"/>
<path d="M42.2207 27.6909L43.3319 27.7896L43.7073 27.825L44.4406 27.8908" stroke="white" stroke-width="0.5" stroke-linecap="round" stroke-linejoin="round"/>
<path d="M32.1266 21.1545L31.2069 20.6208V19.6646V19.1258V18.2278V17.6334L29.6623 16.7379V15.4858V15.2505V13.7657L28.6973 13.2067V12.468V11.7218V10.8188L28.8484 10.7302L29.1659 10.5456L29.4834 10.3609L29.5666 10.3129L29.8009 10.1763L30.1184 9.99415L30.4359 9.80949L30.7508 9.62737L31.0683 9.44271L31.3052 9.30611L31.3858 9.26058L31.7033 9.07593L32.0208 8.89127L32.1745 8.80273" stroke="white" stroke-width="0.5" stroke-linecap="round" stroke-linejoin="round"/>
<path d="M32.1738 8.80273V9.70831V10.452V11.1906" stroke="white" stroke-width="0.5" stroke-linecap="round" stroke-linejoin="round"/>
<path d="M15.6133 44.6743L16.0895 44.0774L16.2886 43.8295L17.3972 42.4458" stroke="white" stroke-width="0.5" stroke-linecap="round" stroke-linejoin="round"/>
<path d="M22.3195 42.7163L21.8861 43.2602L21.2083 44.1025L20.2231 45.3344L20.0996 45.4887" stroke="white" stroke-width="0.5" stroke-linecap="round" stroke-linejoin="round"/>
<path d="M26.0997 40.8242L25.6915 41.3327L24.9809 42.2205L24.6962 42.5747L23.8672 43.6118" stroke="white" stroke-width="0.5" stroke-linecap="round" stroke-linejoin="round"/>
<path d="M45.258 27.4912L45.1269 27.8251L44.9682 28.2374L44.8221 28.6143L44.8095 28.6472L44.6507 29.057L44.492 29.4668L44.3887 29.74L44.3358 29.8766L44.177 30.2864L44.0183 30.6961L43.9528 30.8656L43.8595 31.1059L43.7008 31.5182L43.542 31.9306L43.5194 31.9887L42.9121 31.9356" stroke="white" stroke-width="0.5" stroke-linecap="round" stroke-linejoin="round"/>
<path d="M43.7638 28.5864L43.6807 28.8773L43.5925 29.1707L43.4967 29.4667L43.401 29.7627L43.2977 30.0586L43.1918 30.3546L43.0835 30.6505L42.9701 30.944L42.8542 31.2399L42.7307 31.5333L42.6073 31.8268L42.4788 32.1202L42.3704 32.3605L42.3452 32.4136L42.2091 32.7045L42.0706 32.9954L42.0252 33.0865L40.9316 32.9878" stroke="white" stroke-width="0.5" stroke-linecap="round" stroke-linejoin="round"/>
<path d="M42.3711 32.3603L42.7012 32.3881L42.8574 32.0567L42.9128 31.9353L43.0187 31.7001L43.1749 31.3434L43.3261 30.9867L43.4747 30.6275L43.6184 30.2683L43.7544 29.9066L43.888 29.5474L44.0165 29.1882L44.1425 28.8265L44.2609 28.4673L44.3743 28.1056L44.4398 27.8906L43.4747 27.3315L44.5809 27.4302L44.7799 27.4479L45.2587 27.4909" stroke="white" stroke-width="0.5" stroke-linecap="round" stroke-linejoin="round"/>
<path d="M20.0982 45.4888L19.942 45.3371L19.7807 45.1676L19.6245 44.993L19.4733 44.8109L19.3246 44.6237L19.181 44.429L19.0449 44.2291L18.9114 44.0242L18.7829 43.8143L18.6569 43.5967L18.5385 43.3741L18.4251 43.1465L18.3596 43.0048L17.3945 42.4458" stroke="white" stroke-width="0.5" stroke-linecap="round" stroke-linejoin="round"/>
<path d="M24.3585 38.3403L24.2401 38.4896L23.3154 39.6456L23.2423 39.7366L22.1387 41.1152L22.2117 41.3201L22.2999 41.5124L22.3932 41.6996L22.4914 41.8817L22.5922 42.0613L22.6981 42.2333L22.8089 42.4028L22.9223 42.5672L23.0382 42.724L23.1592 42.8783L23.2851 43.0276L23.4137 43.1718L23.5447 43.3109L23.6807 43.4449L23.8218 43.5714L23.8672 43.6119" stroke="white" stroke-width="0.5" stroke-linecap="round" stroke-linejoin="round"/>
<path d="M31.207 17.6337L31.3532 17.5249L31.58 17.3605L31.8067 17.1986L32.036 17.0443L32.2628 16.8951L32.4896 16.7484L32.7189 16.6093L32.9456 16.4752L33.1749 16.3437L33.4017 16.2197L33.631 16.1008L33.8578 15.987L34.0846 15.8782L34.3113 15.777L34.5381 15.6784L34.6842 15.6177" stroke="white" stroke-width="0.5" stroke-linecap="round" stroke-linejoin="round"/>
<path d="M32.125 21.1547L32.2661 21.0409L32.4425 20.9043L32.6189 20.7728L32.7952 20.6437L32.9741 20.5173L32.9943 20.5046L33.1505 20.3984L33.3294 20.2795L33.5058 20.1657L33.6847 20.0569L33.8636 19.9532L34.0425 19.8495L34.2214 19.7533L34.3978 19.6598L34.5767 19.5712L34.7329 19.4979L34.7531 19.4877L34.932 19.4068L35.1084 19.3309L35.2847 19.2576L35.4586 19.1893L35.6022 19.1387" stroke="white" stroke-width="0.5" stroke-linecap="round" stroke-linejoin="round"/>
<path d="M29.6621 13.7656L29.7352 13.7124L30.0124 13.5177L30.2895 13.3279L30.5667 13.1458L30.8439 12.9688L31.1235 12.7967L31.4007 12.6323L31.6779 12.4755L31.9576 12.3237L32.2347 12.1795L32.5119 12.0404L32.7891 11.9063L33.0663 11.7824L33.1393 11.7495" stroke="white" stroke-width="0.5" stroke-linecap="round" stroke-linejoin="round"/>
<path d="M27.0157 41.3555L26.9603 41.3125L26.8444 41.2215L26.7335 41.1254L26.6252 41.0242L26.5193 40.9205L26.4715 40.8724L26.416 40.8117L26.3152 40.7004L26.217 40.584L26.1237 40.4626L26.0305 40.3387L26.0028 40.2957L25.9423 40.2122L25.8567 40.0781L25.7735 39.9441L25.6954 39.8049L25.6198 39.6633L25.6022 39.6304L25.5467 39.5166L25.4762 39.3673L25.4081 39.213L25.3452 39.0562L25.2847 38.8968L25.2771 38.8741L24.3574 38.3403" stroke="white" stroke-width="0.5" stroke-linecap="round" stroke-linejoin="round"/>
<path d="M17.3519 47.1583L17.3292 47.1254L17.1679 46.8978L17.0092 46.6701L16.916 46.5361L16.8505 46.4425L16.6917 46.2173L16.533 45.9897L16.4826 45.9163L16.3768 45.7645L16.218 45.5394L16.0593 45.3118L16.0467 45.2941L15.9005 45.0866L15.7418 44.859L15.6133 44.6743" stroke="white" stroke-width="0.5" stroke-linecap="round" stroke-linejoin="round"/>
<path d="M40.7148 33.418L40.7703 33.3117L40.8837 33.0866L40.9341 32.988L40.9971 32.8589L41.1054 32.6338L41.2112 32.4062L41.2591 32.3024L41.3145 32.1785L41.4153 31.9483L41.5136 31.7181L41.6068 31.4879L41.7001 31.2577L41.7303 31.1819L41.7882 31.0276L41.8739 30.7974L41.9571 30.5672L42.0352 30.3345L42.1108 30.1043L42.1284 30.0537L42.1838 29.8741L42.2544 29.6439L42.3199 29.4112L42.3829 29.181L42.4434 28.9533L42.4535 28.9205L41.5338 28.3867L41.6547 28.3968L42.5794 28.4803L42.6525 28.4879L43.7435 28.584L43.7662 28.5866" stroke="white" stroke-width="0.5" stroke-linecap="round" stroke-linejoin="round"/>
<path d="M31.0469 36.3193L31.1703 36.5141L31.2812 36.8708L31.319 37.2882L31.2988 37.5183" stroke="white" stroke-width="0.5" stroke-linecap="round" stroke-linejoin="round"/>
<path d="M29.8506 33.1621L25.2773 38.8738L25.2849 38.8966L25.3454 39.0559L25.4084 39.2128L25.4764 39.3671L25.547 39.5163L25.6024 39.6301L25.62 39.663L25.6956 39.8047L25.7737 39.9438L25.8569 40.0779L25.9426 40.2119L26.003 40.2954L26.0307 40.3384L26.124 40.4624L26.2172 40.5838L26.3155 40.7001L26.4163 40.8114L26.4717 40.8722L26.5196 40.9202L26.6254 41.0239L26.7337 41.1251L26.8446 41.2212L26.9605 41.3123L27.016 41.3553" stroke="white" stroke-width="0.5" stroke-linecap="round" stroke-linejoin="round"/>
<path d="M25.3906 29.3906L31.1356 32.722L31.569 33.3418L32.0049 33.964L31.5891 35.6437L27.0158 41.3554" stroke="white" stroke-width="0.5" stroke-linecap="round" stroke-linejoin="round"/>
<path d="M22.1247 41.1279L20.5801 40.2324" stroke="white" stroke-width="0.5" stroke-linecap="round" stroke-linejoin="round"/>
<path d="M23.8655 43.6118L22.3184 42.7163" stroke="white" stroke-width="0.5" stroke-linecap="round" stroke-linejoin="round"/>
<path d="M20.5812 40.2324L19.47 41.6211L19.0946 42.0891L18.3613 43.0048" stroke="white" stroke-width="0.5" stroke-linecap="round" stroke-linejoin="round"/>
<path d="M17.3972 42.4458L16.2886 43.8295L16.0895 44.0774L15.6133 44.6743" stroke="white" stroke-width="0.5" stroke-linecap="round" stroke-linejoin="round"/>
<path d="M19.1311 44.9297L18.0249 46.3133L17.3496 47.1582" stroke="white" stroke-width="0.5" stroke-linecap="round" stroke-linejoin="round"/>
<path d="M8.97461 40.8193L9.4206 41.4543L9.85399 42.0765L10.2899 42.6963L10.7334 43.3312L11.9025 44.0091L11.4565 43.3742L12.1091 43.7511L12.6181 44.0445L13.0515 44.6668L17.3502 47.1584" stroke="white" stroke-width="0.5" stroke-linecap="round" stroke-linejoin="round"/>
<path d="M8.97461 40.8193L10.1438 41.4973L10.5872 42.1322L11.7463 42.805L11.3129 42.1828L11.7035 41.6946L11.9706 41.3607" stroke="white" stroke-width="0.5" stroke-linecap="round" stroke-linejoin="round"/>
<path d="M10.1445 41.497L10.8047 40.6724" stroke="white" stroke-width="0.5" stroke-linecap="round" stroke-linejoin="round"/>
<path d="M22.3195 42.7163L21.8861 43.2602L21.2083 44.1025L20.2231 45.3344L20.0996 45.4887" stroke="white" stroke-width="0.5" stroke-linecap="round" stroke-linejoin="round"/>
<path d="M26.0997 40.8242L25.6915 41.3327L24.9809 42.2205L24.6962 42.5747L23.8672 43.6118" stroke="white" stroke-width="0.5" stroke-linecap="round" stroke-linejoin="round"/>
<path d="M11.7054 41.6944L11.1813 41.3934L10.9445 40.9608L10.8059 40.6725L9.63672 39.9971" stroke="white" stroke-width="0.5" stroke-linecap="round" stroke-linejoin="round"/>
<path d="M20.0977 36.8023L20.4605 36.7011L20.4857 36.6707L21.1711 35.8157L21.4331 35.4869L22.5897 34.0451L22.6577 33.9591L22.693 33.9161L23.1339 33.3646L23.1919 33.2938L23.4338 32.9877L24.0839 32.1783L24.5954 31.5383L25.0136 31.0172L25.3437 30.6049V30.572V30.5492V30.5265L25.3462 30.3975" stroke="white" stroke-width="0.5" stroke-linecap="round" stroke-linejoin="round"/>
<path d="M11.9707 41.3605L15.0271 43.1337L15.39 43.035L17.0807 40.9229L17.7081 40.1387L18.5472 39.0915L19.7541 37.5839L20.1195 37.126L20.0968 36.8022" stroke="white" stroke-width="0.5" stroke-linecap="round" stroke-linejoin="round"/>
<path d="M24.3575 38.3403L24.239 38.4896L23.3143 39.6456L23.2412 39.7366L22.1502 41.1001L22.125 41.1279" stroke="white" stroke-width="0.5" stroke-linecap="round" stroke-linejoin="round"/>
<path d="M17.3498 47.1582L17.3271 47.1253L17.1658 46.8977L17.0071 46.67L16.9138 46.536L16.8483 46.4424L16.6896 46.2172L16.5308 45.9896L16.4805 45.9162L16.3746 45.7644L16.2159 45.5393L16.0571 45.3117L16.0445 45.294L15.8984 45.0865L15.7397 44.8589L15.6111 44.6742L11.3125 42.1826" stroke="white" stroke-width="0.5" stroke-linecap="round" stroke-linejoin="round"/>
<path d="M25.3398 30.5469L25.3424 30.5494L25.3726 30.5671L29.8501 33.1624L31.1352 32.7223" stroke="white" stroke-width="0.5" stroke-linecap="round" stroke-linejoin="round"/>
<path d="M8.97461 40.8192L9.63478 39.9971" stroke="white" stroke-width="0.5" stroke-linecap="round" stroke-linejoin="round"/>
<path d="M11.9023 44.0087V43.6318" stroke="white" stroke-width="0.5" stroke-linecap="round" stroke-linejoin="round"/>
<path d="M24.3984 8.32715L28.6971 10.8187V11.7218V12.468V13.2066L29.6621 13.7657V15.2505V15.4858V16.7379L31.2067 17.6333V18.2278V19.1258V19.6646V20.6207L32.1264 21.1545V27.4049L32.9957 27.9083" stroke="white" stroke-width="0.5" stroke-linecap="round" stroke-linejoin="round"/>
<path d="M27.6489 17.651V16.1636V15.5439V14.9849V14.4233V11.8609V11.3145L27.4549 10.9781L24.3984 9.20486V8.32711L24.5824 8.22087L25.2677 7.82373" stroke="white" stroke-width="0.5" stroke-linecap="round" stroke-linejoin="round"/>
<path d="M22.0488 6.98926L23.218 7.66718L24.1074 7.15115L25.2665 7.82401" stroke="white" stroke-width="0.5" stroke-linecap="round" stroke-linejoin="round"/>
<path d="M27.551 24.7543L32.1268 27.4052L32.9961 27.9086L33.8654 27.4052L34.7347 26.9019L35.604 25.2602V19.1387L34.6843 18.6075V17.6513V17.11V16.212V15.6176L33.1397 14.7221V13.47V13.2347V11.7499L32.1747 11.1909V10.4523V9.70857V8.80299L27.876 6.31139L27.0067 6.81477L26.7371 6.65794L26.5935 6.577L25.8477 6.14444L26.7371 5.62842" stroke="white" stroke-width="0.5" stroke-linecap="round" stroke-linejoin="round"/>
<path d="M23.2188 8.54734L23.7655 8.16791L24.1082 7.94531" stroke="white" stroke-width="0.5" stroke-linecap="round" stroke-linejoin="round"/>
<path d="M28.6973 10.8188L28.8484 10.7302L29.1659 10.5456L29.4834 10.3609L29.5666 10.3129L29.8009 10.1763L30.1184 9.99415L30.4359 9.80949L30.7508 9.62737L31.0683 9.44271L31.3052 9.30611L31.3858 9.26058L31.7033 9.07593L32.0208 8.89127L32.1745 8.80273" stroke="white" stroke-width="0.5" stroke-linecap="round" stroke-linejoin="round"/>
<path d="M35.6022 19.1387L35.4586 19.1893L35.2847 19.2576L35.1084 19.3309L34.932 19.4068L34.7531 19.4877L34.7329 19.4979L34.5767 19.5712L34.3978 19.6598L34.2214 19.7533L34.0425 19.8495L33.8636 19.9532L33.6847 20.0569L33.5058 20.1657L33.3294 20.2795L33.1505 20.3984L32.9943 20.5046L32.9741 20.5173L32.7952 20.6437L32.6189 20.7728L32.4425 20.9043L32.2661 21.0409L32.125 21.1547" stroke="white" stroke-width="0.5" stroke-linecap="round" stroke-linejoin="round"/>
<path d="M26.7355 6.65764V6.50839V5.62811L25.5664 4.9502L24.6769 5.46622L23.8076 5.9696L22.9383 6.47298L22.0488 6.98901V7.86929L23.218 8.5472" stroke="white" stroke-width="0.5" stroke-linecap="round" stroke-linejoin="round"/>
<path d="M24.1074 7.94531L24.5811 8.22103" stroke="white" stroke-width="0.5" stroke-linecap="round" stroke-linejoin="round"/>
<path d="M22.317 24.6858L22.4909 24.6782L22.7529 24.744L22.7983 24.7541L23.0553 24.9236L23.2569 25.1816L23.3451 25.4017L23.3904 25.5155L23.4484 25.8975L23.4509 25.9126L23.4408 26.3199L23.4383 26.3578L23.3753 26.7094L23.3526 26.8359L23.2745 27.0813L23.1964 27.3267L23.141 27.4455L22.9772 27.8098L22.7529 28.1816L22.7 28.2727L22.4707 28.5687L22.3775 28.6901L22.0802 28.9911L22.0247 29.0493L21.6493 29.3376L21.3142 29.5198L21.2713 29.5425L20.9034 29.6564L20.5582 29.6766L20.5532 29.6741L20.402 29.6361L20.0896 29.497L20.0593 29.4742L19.9913 29.4287L19.9081 29.3225L19.7922 29.1707L19.6612 28.8494L19.6587 28.8368L19.5957 28.4397L19.5982 28.3233L19.6083 27.9945L19.6486 27.7744L19.694 27.5164L19.7922 27.2128L19.8502 27.0256L20.019 26.6563L20.0719 26.5425L20.3264 26.115L20.3466 26.0821L20.6691 25.6622L20.7245 25.6066L21.0244 25.303L21.2209 25.1512L21.3973 25.0147L21.7753 24.8098L21.8483 24.787L21.9164 24.7668" stroke="white" stroke-width="0.5" stroke-linecap="round" stroke-linejoin="round"/>
<path d="M9.86133 25.2879L9.9596 25.0324L10.0453 24.8098L10.1234 24.61L10.1914 24.4304L10.2569 24.2634L10.3174 24.1066L10.3552 24.008L10.3754 23.9574L10.4308 23.8157L10.4837 23.6766L10.5366 23.5375L10.5895 23.4009L10.645 23.2617L10.6979 23.1176L10.7558 22.9683L10.8163 22.814L10.8818 22.6471L10.9498 22.4649L11.028 22.2676L11.1136 22.0425L11.2119 21.7896" stroke="white" stroke-width="0.5" stroke-linecap="round" stroke-linejoin="round"/>
<path d="M7.15625 23.7195L7.25452 23.4641L7.34271 23.2415L7.4183 23.0416L7.48885 22.862L7.55185 22.6951L7.61484 22.5383L7.67027 22.389L7.72571 22.2474L7.77862 22.1082L7.83406 21.9691L7.88697 21.8325L7.93988 21.6934L7.99532 21.5492L8.05327 21.4025L8.11374 21.2457L8.17674 21.0787L8.24729 20.8991L8.3254 20.6993L8.41107 20.4767L8.50934 20.2212" stroke="white" stroke-width="0.5" stroke-linecap="round" stroke-linejoin="round"/>
<path d="M8.50977 20.2212L8.7063 20.335L8.88017 20.4337L9.03387 20.5247L9.17245 20.6057L9.30096 20.679L9.42191 20.7499L9.53781 20.8156L9.64868 20.8814L9.75451 20.9421L9.86286 21.0053L9.96869 21.0661L10.077 21.1293L10.1879 21.1925L10.3013 21.2583L10.4222 21.3291L10.5507 21.405L10.6918 21.486L10.8455 21.5745L11.0169 21.6731L11.2134 21.7895" stroke="white" stroke-width="0.5" stroke-linecap="round" stroke-linejoin="round"/>
<path d="M9.86243 25.288L9.66337 25.1742L9.49203 25.073L9.33833 24.9845L9.19723 24.9036L9.06872 24.8277L8.94777 24.7594L8.83439 24.6911L8.72352 24.6278L8.61517 24.5646L8.50934 24.5039L8.40351 24.4432L8.29516 24.3799L8.1843 24.3167L8.07091 24.2484L7.94996 24.1776L7.82146 24.1042L7.68035 24.0233L7.52665 23.9347L7.35531 23.8336L7.15625 23.7197" stroke="white" stroke-width="0.5" stroke-linecap="round" stroke-linejoin="round"/>
<path d="M9.86133 25.2879L9.9596 25.0324L10.0453 24.8098L10.1234 24.61L10.1914 24.4304L10.2569 24.2634L10.3174 24.1066L10.3754 23.9574L10.4308 23.8157L10.4837 23.6766L10.5366 23.5375L10.5895 23.4009L10.645 23.2617L10.6979 23.1176L10.7558 22.9683L10.8163 22.814L10.8818 22.6471L10.9498 22.4649L11.028 22.2676L11.1136 22.0425L11.2119 21.7896" stroke="white" stroke-width="0.5" stroke-linecap="round" stroke-linejoin="round"/>
<path d="M7.15625 23.7195L7.25452 23.4641L7.34271 23.2415L7.4183 23.0416L7.48885 22.862L7.55185 22.6951L7.61484 22.5383L7.67027 22.389L7.72571 22.2474L7.77862 22.1082L7.83406 21.9691L7.88697 21.8325L7.93988 21.6934L7.99532 21.5492L8.05327 21.4025L8.11374 21.2457L8.17674 21.0787L8.24729 20.8991L8.3254 20.6993L8.41107 20.4767L8.50934 20.2212" stroke="white" stroke-width="0.5" stroke-linecap="round" stroke-linejoin="round"/>
<path d="M11.9212 22.8521L11.8986 23.1253L11.8582 23.3959L11.8003 23.6615L11.7272 23.9221L11.639 24.175L11.5357 24.4204L11.4173 24.6556L11.2863 24.8782L11.1401 25.0882L10.9839 25.283L10.8151 25.4626L10.6362 25.6245L10.4497 25.7712L10.2532 25.8976L10.0541 26.0039L9.8475 26.0899L9.63585 26.1582L9.42167 26.2037L9.20749 26.229L8.9908 26.2315L8.77662 26.2113L8.56497 26.1734L8.35835 26.1101L8.15425 26.0292L7.95771 25.928L7.77125 25.8066L7.58983 25.6675L7.42101 25.5081L7.25975 25.3336L7.11361 25.1413L6.97754 24.9364L6.85911 24.7163L6.75076 24.4862L6.66005 24.2433L6.58446 23.9929L6.52399 23.7349L6.47864 23.4693L6.45344 23.2012L6.44336 22.928L6.4484 22.6548L6.4736 22.3816L6.51391 22.1134L6.57186 21.8453L6.64494 21.5848L6.73313 21.3318L6.83644 21.0865L6.95486 20.8537L7.08589 20.6311L7.23203 20.4212L7.38826 20.2264L7.55708 20.0468L7.73346 19.8824L7.92244 19.7382L8.11646 19.6117L8.31803 19.5055L8.52465 19.417L8.73631 19.3512L8.95048 19.3057L9.16466 19.2804L9.37884 19.2778L9.59301 19.2955L9.80467 19.336L10.0138 19.3967L10.2154 19.4777L10.4119 19.5814L10.6009 19.7028L10.7823 19.8419L10.9511 19.9988L11.1099 20.1758L11.2585 20.3655L11.3921 20.573L11.513 20.7905L11.6214 21.0232L11.7121 21.2635L11.7877 21.5165L11.8482 21.7745L11.891 22.0401L11.9187 22.3082L11.9288 22.5814L11.9212 22.8521Z" stroke="white" stroke-width="0.5" stroke-linecap="round" stroke-linejoin="round"/>
<path d="M8.50977 20.2212L8.7063 20.335L8.88017 20.4337L9.03387 20.5247L9.17245 20.6057L9.30096 20.679L9.42191 20.7499L9.53781 20.8156L9.64868 20.8814L9.75451 20.9421L9.86286 21.0053L9.96869 21.0661L10.077 21.1293L10.1879 21.1925L10.3013 21.2583L10.4222 21.3291L10.5507 21.405L10.6918 21.486L10.8455 21.5745L11.0169 21.6731L11.2134 21.7895" stroke="white" stroke-width="0.5" stroke-linecap="round" stroke-linejoin="round"/>
<path d="M9.86243 25.288L9.66337 25.1742L9.49203 25.073L9.33833 24.9845L9.19723 24.9036L9.06872 24.8277L8.94777 24.7594L8.83439 24.6911L8.72352 24.6278L8.61517 24.5646L8.50934 24.5039L8.40351 24.4432L8.29516 24.3799L8.1843 24.3167L8.07091 24.2484L7.94996 24.1776L7.82146 24.1042L7.68035 24.0233L7.52665 23.9347L7.35531 23.8336L7.15625 23.7197" stroke="white" stroke-width="0.5" stroke-linecap="round" stroke-linejoin="round"/>
<path d="M15.3899 43.0352L14.8734 41.7603L14.2308 38.7451L14.125 36.7265L14.1729 35.3125" stroke="white" stroke-width="0.5" stroke-linecap="round" stroke-linejoin="round"/>
</svg>
