<svg viewBox="0 0 24 24" xmlns="http://www.w3.org/2000/svg"><path fill-rule="evenodd" clip-rule="evenodd" d="M19 3H5a2 2 0 00-2 2v1.535A3.982 3.982 0 015 6h14c.729 0 1.412.195 2 .535V5a2 2 0 00-2-2zM3 13v-3a2 2 0 012-2h14a2 2 0 012 2v3h-5.72l-.229.684-.544 1.632a1 1 0 01-.948.684h-3.117a1 1 0 01-.95-.684l-.543-1.632L8.72 13H3zm0 2v4a2 2 0 002 2h14a2 2 0 002-2v-4h-4.28l-.316.949A3 3 0 0113.56 18h-3.117a3 3 0 01-2.847-2.051L7.28 15H3zM1 5v14a4 4 0 004 4h14a4 4 0 004-4V5a4 4 0 00-4-4H5a4 4 0 00-4 4z"/></svg>