<svg width="112" height="112" viewBox="0 0 112 112" fill="none" xmlns="http://www.w3.org/2000/svg"><g opacity=".6" clip-path="url(#clip0_803_47855)" stroke="#fff" stroke-linecap="round" stroke-linejoin="round"><path d="M103.56 62.552l-3.945-.348-1.118-.1-.352-.036-1.952-.177-2.817-.248-.852-.076-.747-.266M24.833 97.47l-2.869-1.664-7.66-4.439-.982-.614-.941-.684-.9-.744-.852-.815-.811-.879-.765-.939-.717-1.003-.664-1.056-.618-1.122-.57-1.174-.517-1.228-.465-1.28-.406-1.335-.358-1.38-.306-1.43-.247-1.469-.194-1.517-.141-1.552-.082-1.594-.03-1.623.024-1.523.006-.637.017-.384.065-1.28.135-1.694.194-1.712.247-1.741.3-1.76.353-1.77.405-1.788.459-1.794.506-1.807.564-1.806.635-1.688.688-1.706.717-1.83.765-1.823.81-1.818.853-1.806.9-1.788.94-1.771.982-1.753 1.018-1.73 1.058-1.705 1.1-1.676 1.128-1.641 1.158-1.611 1.194-1.576 1.223-1.54 1.123-1.453 1.134-1.399 1.282-1.387 1.305-1.345 1.317-1.299 1.34-1.245 1.353-1.193 1.37-1.139 1.376-1.086 1.381-1.027 1.394-.962 1.07-.696.323-.207.547-.324 1.305-.78 1.417-.79 1.411-.72 1.411-.656 1.4-.59 1.393-.52 1.387-.448 1.37-.384 1.353-.306 1.34-.237 1.317-.165 1.3-.094 1.27-.024 1.252.047 1.223.124 1.187.195 1.164.266 1.13.336 1.093.407 1.058.478 1.023.543 7.66 4.445 7.668 4.438 7.66 4.445 5.433 3.146 1.029.596.394.23.14.083.665.383m-42.169-2.095l2.728 1.582m40.529 58.001l-.953 1.706-1.011 1.706-1.046 1.682-1.077 1.659-1.116 1.623-1.147 1.593-1.182 1.552-1.205 1.523-1.229 1.476-1.258 1.44-1.282 1.393-1.305 1.346-1.317 1.292-1.34 1.246-1.353 1.192-1.364 1.145-1.381 1.08-1.382 1.027-1.393.962-1.394.903-1.399.844-1.288.72-.582.331-.235.124-1.176.596-1.41.661-1.4.584-1.394.52-1.387.448-1.37.384-1.352.307-1.34.236-1.318.165-1.299.095-1.27.023-1.252-.047-1.223-.124-1.188-.195-1.164-.265-1.129-.337-1.093-.407-1.059-.478-1.023-.543-.964-.561"/><path d="M29.643 97.287l-1.223-.702-.552-1.01-.324-.672-2.728-1.576m71.134-72.87l.981.614.94.685.9.75.853.808.811.88.764.938.718 1.003.664 1.063.617 1.115.571 1.175.517 1.227.465 1.287.405 1.328.359 1.381.306 1.429.247 1.475.194 1.511.141 1.552.07 1.323.012.271.012.797.017.826v.52M49.209 68.82l-.17.673-.26 1.151-.229 1.145-.194 1.14-.158 1.12-.124 1.104-.088 1.098-.053 1.075-.012.79.006.632.006.667.053 1.015.088.992 1.059 4.497.146.708-.852 1.069-2.816 3.517-1.958 2.444-1.464 1.83-3.945 4.928-.847.23-.364-.212-6.767-3.925M3.738 67.93v-.52l.024-1.004.088-1.817.141-1.718.194-1.735.247-1.765.306-1.777.358-1.794.406-1.812.465-1.818.517-1.83.57-1.83.594-1.965.635-1.936.706-1.812.752-1.8.8-1.794.846-1.783.882-1.764.93-1.753.97-1.73 1.01-1.705 1.041-1.683 1.082-1.658 1.117-1.623 1.146-1.588 1.176-1.558 1.212-1.523 1.352-1.517 1.4-1.499 1.298-1.41 1.317-1.364 1.335-1.31 1.358-1.263 1.37-1.21 1.382-1.151 1.393-1.098 1.405-1.039 1.411-.98 1.523-.985.852-.52.453-.26M70.9 106.335l-.452.26-.835.46-1.505.773-1.394.65-1.387.578-1.376.514-1.364.442-1.352.378-1.34.301-1.318.236-1.305.165-1.282.095-1.258.018-1.234-.048-1.206-.118-1.176-.194-1.146-.26-1.117-.331-1.082-.401-1.046-.472-1.006-.543-.97-.602-.312-.23"/><path d="M77.406 20.711l.447-.165 1.364-.449 1.352-.372 1.34-.306 1.318-.23 1.305-.166 1.282-.094 1.258-.024 1.229.053 1.205.118 1.182.19 1.146.265 1.117.33 1.076.402 1.047.472 1.01.537.971.608.923.673.888.737.847.803.799.868.753.932.705.986.665 1.045.605 1.11.565 1.156.505 1.216.459 1.263.405 1.316.353 1.364.3 1.41.247 1.452.194 1.5.135 1.534.083 1.57.029 1.6-.029 1.64-.083 1.665-.135 1.694-.194 1.717-.247 1.736-.3 1.759-.353 1.77-.405 1.789-.459 1.794-.505 1.806-.242.767"/><path d="M88.336 37.58l.159-.13.164-.148.888-.543.412-.159.458-.183.7-.094.13-.024.746.106.047.024.6.307.123.124.394.407.135.277.23.443.105.478.094.407.018.744.012.26-.147 1.098-.012.035-.3 1.104-.27.667-.194.472-.235.419.176.478.259.85.229.88.194.908.159.939.123.968.088.985.053 1.016.018 1.038-.018 1.057-.053 1.074-.088 1.092-.123 1.11-.159 1.121-.194 1.133-.23 1.145-.258 1.151-.241.95M49.207 68.82l-.23-.153-.193-.248-.27-.354-.306-.75-.006-.029-.147-.927.006-.271.023-.767.094-.514.106-.602.23-.708.134-.437.394-.862.124-.265.594-.998.047-.077.752-.98.13-.13.7-.707.458-.355.411-.318.882-.478.17-.053.16-.048.552-1.039.623-1.115.653-1.104.67-1.086.7-1.068.723-1.045.735-1.033.764-1.003.776-.98.8-.956.811-.927.83-.897.834-.867.859-.839.858-.802.876-.773.882-.738.43-.33V26.4l-.454-.785-7.131-4.137m26.627 55.098l-.058.089-.694 1.068-.723 1.05-.741 1.027-.759 1.004-.781.985-.794.95-.812.927-.829.903-.84.868-.853.838-.864.803-.87.767-.882.738-.224.177-.1.43-.411 1.14-.006.006-.559 1.115-.276.425-.406.62-.523.626-.258.313-.718.667-.13.118-.875.613-.882.408-.123.03-.718.164-.264-.011-.518-.024-.405-.147-.277-.107-.564-.466v-.006l-.147-.23M81.23 35.266l.106-.006.794.035.782.077.758.124.741.171.723.213.694.26.676.3.653.349.623.395.553.396"/><path d="M38.244 100.415l-.24-.496-.512-1.21-.453-1.269-.406-1.316-.358-1.363-.3-1.41-.241-1.453-.194-1.493-.135-1.535-.083-1.57-.029-1.605.03-1.635.082-1.664.135-1.694.194-1.718.241-1.735.3-1.759.358-1.777.406-1.782.453-1.8.511-1.8.559-1.812.611-1.812.659-1.812.711-1.806.753-1.807.8-1.788.84-1.782.888-1.771.929-1.747.97-1.73 1.005-1.711 1.047-1.682 1.082-1.653 1.117-1.623L51.12 42.2l1.176-1.558 1.205-1.517 1.235-1.481 1.258-1.435 1.282-1.392 1.305-1.346 1.317-1.299 1.34-1.245 1.353-1.192 1.364-1.14 1.376-1.08 1.387-1.027.13-.088M49.337 86.781l-.059-.154-.147-.708-.117-.625-.253-.833-.224-.867-.194-.891-.153-.921-.123-.945-.082-.968-.06-1.121-.01-.366.005-.266m20.584-11.91l7.132 4.131.564.62-.041.177-.312.413-.317.402-.33.395-.335.384-.34.366-.348.36-.352.342-.353.33-.359.32-.364.3-.224.178M66.43 41.51l.417.733v15.251l-.241.278-.33.395-.317.401-.317.413-.3.425-.3.431-.288.437-.276.449-.27.454-.254.46-.247.467-.029.053-.212.413-.223.478-.212.472-.2.484-.188.478-.176.478-.159.484-.153.484-.135.478-.117.479-.112.472-.094.472-.077.466-.064.466-.053.455-.036.449-.023.442v.283l-.006.154.023.407.006.278v.183l-.77.962-.976 1.216-1.193 1.493-1.517 1.889-.565.714-.135.165-1.029 1.287-.082.1-.159.2-2.698 3.365-.612.767-1.599 1.995-.059.071-.846.236M87.4 38.477l-.406.448-.717 1.01-.606 1.097-.464 1.146-.206.75-.106.389-.13.968m.641 2.797l.065.071.388.402.517.26.13.064.535.077.211.03.694-.1.135-.019.87-.336.788-.49.1-.059.859-.732.805-.885.012-.018.353-.496m-.14 16.644l-.053-.005-1.6-.142-.616-.06-2.693-.241-.159-.012-.082-.006-1.03-.094-.134-.012-.57-.053-.389-.035"/><path d="M97.33 77.975l-10.677-.956-10.518-6.098-.5-.584-7.132-4.132-.846-2.443-.582-1.121h-.006l-.135-.266 1.017-2.627.382-.997m15.253 3.636l7.132 4.132m13.091-4.764l4.127 2.39m-7.088.467l3.604 2.09"/><path d="M86.656 77.018l-.965-2.803 1.017-2.62 1.012-2.627 2.998-2.45 10.671.962m-.541-2.868l2.592.23.876.083 1.711.154m-2.254-1.305l2.581.23.465.042 1.117.1m0 0l-.306.779-.37.962-.341.88-.03.076-.37.956-.371.956-.241.638-.123.319-.371.956-.37.956-.153.395-.217.561-.371.962-.37.962-.053.136M91.777 61.301l.747.266.852.076 2.817.248 1.952.177.352.036 1.118.1 3.945.348m-19.158-1.718l.388.036.57.053.136.012 1.029.094.082.006.159.012 2.693.242.617.059 1.6.142.052.005m7.51 4.74l.282.024 2.158.195.171.017 2.545.225.053.006"/><path d="M101.389 67.48l-.024.077-.141.531-.147.538-.153.542-.164.538-.13.419-.041.118-.176.537-.182.543-.194.537-.2.537-.136.36-.07.177-.218.537-.217.537-.23.538-.235.537-.129.289-.112.242-.247.531-.252.525-.147.301-.118.23-.265.526-.129.248m3.516-13.363l3.604 2.09M53.956 95.965l-3.604-2.09m-3.379 10.961l-2.58 3.228-1.577 1.972m2.36-9.692l1.71-2.136.877-1.092 2.593-3.24m50.492-29.264l2.592.23.876.083 1.711.154M77.295 49.36l-2.146-1.245v-6.97l-3.604-2.09V32.12l-2.252-1.304v-5.572l.353-.207.74-.43.741-.431.194-.113.547-.318.74-.425.742-.431.735-.425.74-.43.553-.32.188-.106.741-.43.74-.432.36-.206m-.001 0v5.571M38.762 104.24l1.11-1.393.465-.578 2.587-3.229m11.486.631l-1.01 1.269-1.582 1.966-2.298 2.874-.288.36m14.001-10.883l-.953 1.186-1.658 2.072-.664.826-1.935 2.42m49.912-37.615l-.306.779-.371.962-.341.88-.029.076-.37.956-.371.956-.241.638-.123.319-.371.956-.37.956-.153.395-.217.561-.371.962-.37.962-.053.136-1.417-.124"/><path d="M104.448 66.701l-.194.68-.206.684-.223.69-.223.691-.241.69-.247.691-.253.69-.265.685-.27.69-.288.686-.288.684-.3.685-.253.56-.059.124-.317.68-.324.678-.106.212-2.551-.23"/><path d="M101.199 75.508l.77.065.365-.773.129-.284.247-.549.365-.832.352-.832.347-.838.335-.838.318-.844.312-.838.299-.839.294-.844.277-.838.264-.844.153-.501-2.252-1.305 2.581.23.465.042 1.117.1M49.23 106.14l-.364-.354-.376-.395-.365-.407-.353-.425-.346-.437-.336-.455-.317-.466-.312-.478-.3-.49-.294-.507-.276-.52-.264-.531-.153-.331-2.252-1.304m16.246-9.58l-.276.349-2.158 2.697-.17.213-2.576 3.217.17.478.207.448.217.437.23.425.235.419.247.401.258.396.265.383.27.366.282.36.294.349.3.336.306.325.317.312.33.296.106.094m17.126-60.616l.341-.254.53-.384.529-.377.535-.36.529-.349.529-.342.535-.325.53-.313.534-.306.53-.29.534-.277.53-.266.529-.253.529-.236.529-.23.34-.142M77.293 49.36l.33-.265.41-.319.412-.307.412-.3.417-.296.047-.03.365-.247.417-.278.412-.265.417-.254.418-.242.417-.242.418-.224.411-.219.418-.206.364-.171.047-.024.418-.189.411-.177.412-.171.405-.16.335-.117M71.543 32.12l.17-.124.647-.454.647-.443.647-.425.646-.413.653-.401.647-.384.647-.366.652-.354.647-.337.646-.324.647-.313.647-.29.17-.076M65.37 96.496l-.129-.1-.27-.213-.259-.224-.253-.236-.246-.242-.112-.112-.13-.142-.235-.26-.23-.271-.217-.283-.217-.29-.065-.1-.14-.195-.2-.313-.195-.312-.182-.325-.176-.33-.042-.077-.129-.266-.165-.348-.158-.36-.147-.366-.141-.372-.018-.053-2.146-1.245m-16.349 20.575l-.053-.077-.377-.531-.37-.531-.218-.313-.153-.219-.37-.525-.37-.531-.118-.171-.247-.354-.37-.526-.37-.531-.03-.041-.341-.484-.37-.531-.3-.431"/><path d="M97.332 77.975l.13-.248.264-.525.118-.23.147-.301.252-.526.247-.531.112-.242.13-.29.234-.536.23-.537.217-.537.218-.538.07-.177.136-.36.2-.537.194-.537.182-.543.176-.537.041-.118.13-.42.164-.536.153-.543.147-.537.141-.531.024-.077-2.146-1.246.282.024 2.158.195.17.017 2.546.225.053.006M74.777 84.745l.288.454.26.832.087.974-.047.537m-3.381-10.163L61.313 90.706l.017.053.141.372.147.366.159.36.165.348.129.266.041.076.176.331.183.325.194.312.2.313.14.195.065.1.218.29.218.283.229.271.235.26.13.142.111.112.247.242.253.236.258.224.27.213.13.1"/><path d="M61.578 68.578l13.405 7.774 1.011 1.446 1.017 1.452-.97 3.919-10.67 13.327m-11.415-.531l-3.604-2.09m7.668 7.886l-3.61-2.09m-4.055-5.795l-2.592 3.24-.876 1.092-1.711 2.136m-2.252-1.304l-2.587 3.229-.464.578-1.111 1.393m8.211.596l-2.58 3.228-1.577 1.972M23.273 95.245l1.041 1.481 1.011 1.452 1.018 1.446 1.034 1.482 2.728 1.581-1.04-1.481 1.522.879 1.188.685 1.011 1.452 10.03 5.814"/><path d="M23.273 95.245l2.729 1.581 1.034 1.482 2.705 1.57-1.011-1.452.91-1.14.624-.778m-4.26.319l1.54-1.924m26.866 4.768l-1.01 1.269-1.582 1.966-2.298 2.874-.288.36m14.001-10.883l-.953 1.186-1.658 2.072-.664.826-1.935 2.42"/><path d="M29.643 97.287l-1.223-.702-.552-1.01-.324-.672-2.728-1.576m24.411-7.455l.846-.236.059-.07 1.6-1.996.61-.767 2.7-3.364.158-.201.082-.1 1.03-1.287.134-.165.565-.715 1.517-1.888 1.193-1.494.976-1.215.77-.962v-.183l.006-.302M30.266 96.508l7.131 4.137.847-.23 3.945-4.928 1.464-1.83 1.958-2.443 2.816-3.518.852-1.068-.053-.756m9.94 3.588l-.276.349-2.158 2.697-.17.213-2.546 3.181-.059.065m-11.14 14.071l-.053-.077-.376-.531-.37-.531-.218-.313-.153-.218-.37-.526-.37-.531-.118-.171-.247-.354-.37-.525-.37-.532-.03-.041-.341-.484-.37-.531-.3-.431-10.03-5.814"/><path d="M61.46 71.276l.007.006.07.041 10.448 6.056 2.998-1.027m-51.71 18.893l1.54-1.919m5.292 9.362v-.88M59.262 19.43l10.03 5.814v5.572l2.252 1.304v6.935l3.604 2.09v6.97l2.146 1.246v14.584l2.028 1.175"/><path d="M66.846 41.186V26.401l-.453-.785-7.131-4.137V19.43l.429-.247 1.6-.927m-7.51-1.948l2.728 1.582 2.076-1.204 2.704 1.57"/><path d="M66.619 57.76l10.677 6.185 2.028 1.175 2.029-1.175 2.028-1.174 2.028-3.831V44.657l-2.146-1.24v-6.976l-3.604-2.09v-6.935l-2.251-1.304V20.54l-10.03-5.814-2.029 1.175-.63-.366-.334-.19-1.74-1.008 2.075-1.204m-8.212 6.811l1.276-.886.8-.52"/><path d="M69.293 25.244l.353-.207.74-.43.741-.431.194-.113.547-.318.74-.425.742-.431.735-.425.74-.43.553-.32.188-.106.741-.43.74-.432.36-.206m7.999 24.117l-.335.118-.405.159-.412.171-.411.177-.418.189-.047.024-.364.17-.418.207-.411.219-.418.224-.417.242-.418.242-.417.254-.412.265-.417.278-.365.248-.047.03-.417.294-.412.301-.411.307-.412.319-.329.266M64.717 15.535v-2.403l-2.728-1.582-2.076 1.205-2.028 1.174-2.028 1.175-2.076 1.204v2.054l2.728 1.582m2.073-1.405l1.105.643M54.404 57.6l.406-.018.611.154.106.023.6.396.47.602.206.513.106.266.135.891.006.036-.023.95-.006.088-.147.82-.053.296-.182.572-.183.573-.13.277-.381.85-.523.868-.124.212-.535.691-.218.283-.693.703-.13.135-.876.673-.782.425-.1.053-.858.266-.805.047-.012-.006-.353-.088-.729-.325-.07-.053-.16-.106-.193-.248-.27-.354-.306-.75-.006-.03-.147-.926.006-.272.023-.767.094-.513.106-.602.23-.709.134-.436.394-.862.124-.266.594-.997.047-.077.752-.98.13-.13.7-.708.458-.354.411-.319.882-.478.17-.053.16-.047m-28.126 1.216l.229-.596.2-.52.182-.466.159-.419.153-.39.14-.365.09-.23.046-.119.13-.33.123-.325.123-.325.124-.318.13-.325.123-.336.135-.349.141-.36.153-.39.159-.424.182-.46.2-.526.23-.59m-9.465 4.503l.23-.596.205-.52.177-.465.164-.42.147-.389.147-.366.13-.348.129-.33.123-.325.13-.325.123-.319.124-.324.13-.337.134-.342.141-.366.147-.39.165-.419.182-.466.2-.52.23-.595"/><path d="M22.188 47.183l.458.265.406.23.358.213.324.189.3.17.282.166.27.154.259.153.247.142.253.147.247.142.253.147.258.148.265.154.282.165.3.177.329.189.359.206.4.23.458.272m-3.15 8.163l-.465-.266-.4-.236-.358-.206-.33-.19-.3-.176-.281-.16-.265-.16-.259-.147-.253-.147-.246-.142-.247-.142-.253-.147-.259-.148-.264-.159-.283-.165-.3-.171-.329-.19-.359-.206-.4-.236-.464-.265"/><path d="M25.344 59.005l.229-.596.2-.52.182-.466.159-.419.153-.39.14-.365.136-.349.13-.33.123-.325.123-.325.124-.318.13-.325.123-.336.135-.349.141-.36.153-.39.159-.424.182-.46.2-.526.23-.59m-9.465 4.503l.23-.596.205-.52.177-.465.164-.42.147-.389.147-.366.13-.348.129-.33.123-.325.13-.325.123-.319.124-.324.13-.337.134-.342.141-.366.147-.39.165-.419.182-.466.2-.52.23-.595"/><path d="M30.149 53.321l-.053.638-.094.631-.135.62-.17.608-.207.59-.24.572-.277.55-.306.519-.34.49-.365.454-.394.42-.418.377-.435.342-.458.295-.465.248-.482.201-.494.16-.5.106-.5.059-.505.005-.5-.047-.493-.088-.483-.148-.476-.189-.458-.236-.435-.283-.424-.325-.394-.371-.376-.408-.34-.448-.318-.478-.277-.514-.253-.537-.211-.567-.177-.584-.14-.602-.107-.62-.058-.625-.024-.638.012-.637.059-.638.094-.625.135-.626.17-.608.206-.59.241-.573.277-.543.305-.52.341-.489.365-.455.394-.419.411-.383.441-.337.453-.295.47-.248.483-.206.493-.154.5-.106.5-.059.5-.006.5.041.493.095.488.142.47.188.46.242.44.284.423.324.394.366.37.414.348.442.311.484.282.508.253.543.212.56.176.59.141.603.1.62.065.625.023.638-.017.631z"/><path d="M22.188 47.183l.458.265.406.23.358.213.324.189.3.17.282.166.27.154.259.153.247.142.253.147.247.142.253.147.258.148.265.154.282.165.3.177.329.189.359.206.4.23.458.272m-3.15 8.163l-.465-.266-.4-.236-.358-.206-.33-.19-.3-.176-.281-.16-.265-.16-.259-.147-.253-.147-.246-.142-.247-.142-.253-.147-.259-.148-.264-.159-.283-.165-.3-.171-.329-.19-.359-.206-.4-.236-.464-.265m19.213 45.069L37.04 97.44l-1.5-7.035-.246-4.71.112-3.3"/></g><defs><clipPath id="clip0_803_47855"><path fill="#fff" d="M0 0h112v112H0z"/></clipPath></defs></svg>