<svg width="55" height="55" viewBox="0 0 55 55" fill="none" xmlns="http://www.w3.org/2000/svg">
<g clip-path="url(#clip0_425_49021)">
<path fill-rule="evenodd" clip-rule="evenodd" d="M42.0704 50.8396C46.025 48.3719 49.2869 44.9387 51.5489 40.8629C53.811 36.7872 54.9988 32.2029 55.0007 27.5415C54.9988 22.8801 53.811 18.2959 51.5489 14.2201C49.2869 10.1443 46.025 6.71112 42.0704 4.24349L41.8872 4.11035L40.8223 8.91973L40.972 9.01959C43.8974 11.1419 46.279 13.9265 47.9219 17.1457C49.5648 20.3649 50.4223 23.9273 50.4243 27.5415C50.4249 31.1585 49.5686 34.7242 47.9257 37.9465C46.2827 41.1689 43.8997 43.9562 40.972 46.0801L40.8223 46.2132L41.8872 51.006L42.0704 50.8396Z" fill="white"/>
<path fill-rule="evenodd" clip-rule="evenodd" d="M0 26.5431C0.254239 19.4203 3.26151 12.6738 8.38898 7.72326C13.5165 2.7727 20.3644 0.0040824 27.4917 0C31.9957 0.00272452 36.4301 1.11133 40.4055 3.22845L40.6052 3.34494L36.994 6.67323H36.8275C33.8931 5.37081 30.7188 4.69627 27.5084 4.69289C21.8442 4.69063 16.3798 6.78624 12.1697 10.5754C7.95951 14.3645 5.30189 19.5787 4.70956 25.2118V25.3782L0.0333154 26.8593L0 26.5431Z" fill="white"/>
<path fill-rule="evenodd" clip-rule="evenodd" d="M40.4055 51.7884C36.4294 53.9036 31.9954 55.0121 27.4917 55.0169C20.3644 55.0128 13.5165 52.2442 8.38898 47.2936C3.26151 42.343 0.254239 35.5966 0 28.4737V28.2241L4.67624 29.7052V29.9049C5.26858 35.538 7.9262 40.7522 12.1364 44.5413C16.3465 48.3305 21.8109 50.4261 27.4751 50.4238C30.6854 50.419 33.8593 49.7445 36.7942 48.4435H36.9774L40.5719 51.7718L40.4055 51.7884Z" fill="white"/>
<path d="M15.377 39.1904H17.5404C17.8618 39.1676 18.1842 39.1676 18.5056 39.1904C18.7077 39.2301 18.9 39.3093 19.0714 39.4234C19.2386 39.544 19.3801 39.6967 19.4874 39.8727C19.6022 40.0633 19.6599 40.2827 19.6538 40.5051C19.6543 40.7522 19.5851 40.9945 19.4541 41.204C19.3108 41.4114 19.1158 41.5778 18.8884 41.6866C19.1886 41.7616 19.4568 41.9307 19.6538 42.1693C19.8324 42.403 19.9264 42.6905 19.9201 42.9847C19.9212 43.2382 19.8642 43.4887 19.7537 43.7169C19.6437 43.9391 19.4773 44.1285 19.2711 44.2661C19.0541 44.4165 18.8018 44.5082 18.5389 44.5323H17.2242H15.377V39.1904ZM16.4753 40.0891V41.3538H17.9897C18.1506 41.3318 18.3012 41.2623 18.4224 41.1541C18.4791 41.0978 18.5233 41.0302 18.552 40.9556C18.5807 40.881 18.5931 40.8012 18.5887 40.7214C18.5941 40.5766 18.5469 40.4347 18.4557 40.322C18.3436 40.2129 18.1959 40.1479 18.0396 40.139C17.7292 40.1218 17.4181 40.1218 17.1077 40.139L16.4753 40.0891ZM16.4753 42.2525V43.7003H17.4905C17.7398 43.7167 17.99 43.7167 18.2393 43.7003C18.3933 43.6759 18.5342 43.5995 18.6387 43.4839C18.7445 43.3525 18.798 43.1865 18.7885 43.018C18.7958 42.8703 18.7549 42.7243 18.672 42.6019C18.5795 42.4932 18.4585 42.4125 18.3225 42.3689C18.0028 42.3176 17.677 42.3176 17.3573 42.3689L16.4753 42.2525Z" fill="white"/>
<path d="M22.3659 39.2573H21.2676V44.6824H22.3659V39.2573Z" fill="white"/>
<path d="M23.6816 42.8852L24.7134 42.7854C24.7533 43.0757 24.8878 43.3448 25.0961 43.5509C25.3171 43.714 25.5873 43.7962 25.8617 43.7839C26.1346 43.8068 26.4065 43.7299 26.6271 43.5675C26.7082 43.5117 26.7747 43.4372 26.821 43.3503C26.8673 43.2634 26.8922 43.1667 26.8934 43.0683C26.8971 43.0104 26.8886 42.9523 26.8685 42.8979C26.8485 42.8434 26.8173 42.7937 26.7769 42.7521C26.6715 42.6428 26.5396 42.5625 26.3941 42.5191L25.5455 42.2861C25.1147 42.2156 24.7085 42.0382 24.3639 41.7702C24.209 41.6437 24.085 41.4835 24.0014 41.3018C23.9178 41.1201 23.8767 40.9218 23.8813 40.7218C23.8781 40.4563 23.9534 40.1958 24.0977 39.973C24.264 39.7354 24.495 39.5505 24.7633 39.4404C25.0917 39.3117 25.4424 39.2495 25.795 39.2574C26.3243 39.2222 26.849 39.3755 27.2761 39.6901C27.4391 39.8372 27.5692 40.0169 27.6581 40.2176C27.7469 40.4183 27.7926 40.6355 27.792 40.855H26.7436C26.7134 40.6322 26.6076 40.4267 26.4441 40.2725C26.2466 40.1451 26.0125 40.0866 25.7784 40.1061C25.527 40.0946 25.2778 40.1583 25.0628 40.2892C25.009 40.3259 24.9656 40.3757 24.9365 40.434C24.9073 40.4922 24.8936 40.5569 24.8964 40.622C24.8969 40.6824 24.9106 40.742 24.9365 40.7966C24.9623 40.8512 24.9997 40.8995 25.0462 40.9382C25.3406 41.1194 25.6691 41.2383 26.0114 41.2876C26.4057 41.3699 26.7905 41.4926 27.1596 41.6537C27.3937 41.782 27.5934 41.9646 27.7421 42.1863C27.8829 42.4464 27.9519 42.7394 27.9418 43.035C27.9417 43.3308 27.8549 43.62 27.6922 43.8671C27.5297 44.1329 27.284 44.3376 26.9933 44.4495C26.628 44.5932 26.2373 44.6612 25.845 44.6492C25.2998 44.6877 24.7598 44.5216 24.3306 44.1833C23.9516 43.8391 23.7193 43.3625 23.6816 42.8519" fill="white"/>
<path d="M29.2888 42.0028C29.2723 41.5422 29.3516 41.0832 29.5217 40.6548C29.6412 40.3909 29.8045 40.149 30.0044 39.9393C30.1968 39.7381 30.4292 39.5794 30.6866 39.4733C31.0438 39.3205 31.4298 39.2467 31.8182 39.257C32.1586 39.2448 32.4978 39.302 32.8154 39.425C33.1329 39.5481 33.4222 39.7343 33.6655 39.9725C33.9075 40.2432 34.0938 40.5588 34.2137 40.9015C34.3336 41.2441 34.3849 41.6071 34.3644 41.9695C34.3849 42.332 34.3336 42.6949 34.2137 43.0376C34.0938 43.3802 33.9075 43.6959 33.6655 43.9665C33.4265 44.2059 33.1403 44.393 32.8252 44.5162C32.5101 44.6394 32.1729 44.6959 31.8349 44.6821C31.4918 44.6965 31.1494 44.6404 30.8288 44.5173C30.5083 44.3943 30.2164 44.2068 29.9711 43.9665C29.4966 43.4257 29.2519 42.7212 29.2888 42.0028ZM30.3704 42.0028C30.3357 42.4883 30.4842 42.9692 30.7865 43.3508C30.9152 43.4964 31.0743 43.6122 31.2526 43.6898C31.4308 43.7674 31.6239 43.8051 31.8182 43.8001C32.0154 43.8075 32.2117 43.7711 32.393 43.6934C32.5743 43.6157 32.7361 43.4986 32.8667 43.3508C33.1599 42.9589 33.3017 42.4743 33.266 41.9862C33.3022 41.5031 33.1602 41.0235 32.8667 40.6382C32.7385 40.4874 32.5772 40.3684 32.3953 40.2904C32.2134 40.2125 32.0158 40.1777 31.8182 40.1889C31.6211 40.1814 31.4249 40.2179 31.2435 40.2956C31.0622 40.3733 30.9004 40.4903 30.7698 40.6382C30.4738 41.0287 30.3316 41.5143 30.3704 42.0028Z" fill="white"/>
<path d="M35.6953 44.6658V39.2573H36.7604L38.9903 42.8685V39.2573H40.0054V44.6658H38.9071L36.7271 41.1378V44.6658H35.6953Z" fill="white"/>
<path d="M19.5531 12.481L10.6167 24.313L1.86328 27.6247L9.06903 28.956L10.9162 36.5112L14.0282 37.9257L19.5199 33.3161L19.5032 37.9257L22.8981 33.4658V37.9257L27.5244 31.0195L36.5441 31.0029V37.959L40.0055 33.4658L40.0221 37.959L48.0766 25.6776" fill="white"/>
</g>
<defs>
<clipPath id="clip0_425_49021">
<rect width="55" height="55" fill="white"/>
</clipPath>
</defs>
</svg>
