<svg viewBox="0 0 24 24" xmlns="http://www.w3.org/2000/svg">
<path fill-rule="evenodd" clip-rule="evenodd" d="M19 3.00009H5C3.89543 3.00009 3 3.89552 3 5.00009V6.53522C3.58835 6.19488 4.27143 6.00009 5 6.00009H19C19.7286 6.00009 20.4117 6.19488 21 6.53522V5.00009C21 3.89552 20.1046 3.00009 19 3.00009ZM3 13.0001V10.0001C3 8.89552 3.89543 8.00009 5 8.00009H19C20.1046 8.00009 21 8.89552 21 10.0001V13.0001H16H15.2792L15.0513 13.6839L14.5072 15.3163C14.3711 15.7247 13.9889 16.0001 13.5585 16.0001H10.4415C10.0111 16.0001 9.62895 15.7247 9.49284 15.3163L8.94868 13.6839L8.72076 13.0001H8H3ZM3 15.0001V19.0001C3 20.1047 3.89543 21.0001 5 21.0001H19C20.1046 21.0001 21 20.1047 21 19.0001V15.0001H16.7208L16.4045 15.9488C15.9962 17.1738 14.8498 18.0001 13.5585 18.0001H10.4415C9.15023 18.0001 8.00381 17.1738 7.59547 15.9488L7.27924 15.0001H3ZM1 5.00009V10.0001V19.0001C1 21.2092 2.79086 23.0001 5 23.0001H19C21.2091 23.0001 23 21.2092 23 19.0001V10.0001V5.00009C23 2.79095 21.2091 1.00009 19 1.00009H5C2.79086 1.00009 1 2.79095 1 5.00009Z"/>
</svg>
