<svg viewBox="0 0 24 24" xmlns="http://www.w3.org/2000/svg">
<path fill-rule="evenodd" clip-rule="evenodd" d="M4.46606 10.0001L9.43497 15.8724L7.29957 10.0001H4.46606ZM14.565 15.8724L19.5339 10.0001H16.7004L14.565 15.8724ZM16.7208 8.00009H19.8279L16.9708 4.00009H15.3874L16.7208 8.00009ZM13.2792 4.00009L14.6126 8.00009H9.38743L10.7208 4.00009H13.2792ZM14.5723 10.0001L12 17.0739L9.4277 10.0001H14.5723ZM7.02924 4.00009H8.61257L7.27924 8.00009H4.17209L7.02924 4.00009ZM6 2.00009L1 9.00009L10.3077 20.0001H3C2.44772 20.0001 2 20.4478 2 21.0001C2 21.5524 2.44772 22.0001 3 22.0001H12H21C21.5523 22.0001 22 21.5524 22 21.0001C22 20.4478 21.5523 20.0001 21 20.0001H13.6923L23 9.00009L18 2.00009H6Z"/>
</svg>
