<svg viewBox="0 0 24 24" xmlns="http://www.w3.org/2000/svg">
<path fill-rule="evenodd" clip-rule="evenodd" d="M5 1.00009C2.79086 1.00009 1 2.79095 1 5.00009V19.0001C1 21.2092 2.79086 23.0001 5 23.0001H19C21.2091 23.0001 23 21.2092 23 19.0001V5.00009C23 2.79095 21.2091 1.00009 19 1.00009H16V3.00009H8V1.00009H5ZM8 3.00009V5.00009L16 5.00009V3.00009H19C20.1046 3.00009 21 3.89552 21 5.00009V19.0001C21 20.1047 20.1046 21.0001 19 21.0001V20.0001C19 17.791 17.2091 16.0001 15 16.0001H9C6.79086 16.0001 5 17.791 5 20.0001V21.0001C3.89543 21.0001 3 20.1047 3 19.0001V5.00009C3 3.89552 3.89543 3.00009 5 3.00009H8ZM17 20.0001V21.0001H7V20.0001C7 18.8955 7.89543 18.0001 9 18.0001H15C16.1046 18.0001 17 18.8955 17 20.0001ZM14 11.0001C14 12.1047 13.1046 13.0001 12 13.0001C10.8954 13.0001 10 12.1047 10 11.0001C10 9.89552 10.8954 9.00009 12 9.00009C13.1046 9.00009 14 9.89552 14 11.0001ZM16 11.0001C16 13.2092 14.2091 15.0001 12 15.0001C9.79086 15.0001 8 13.2092 8 11.0001C8 8.79095 9.79086 7.00009 12 7.00009C14.2091 7.00009 16 8.79095 16 11.0001Z"/>
</svg>
