<svg viewBox="0 0 24 24" xmlns="http://www.w3.org/2000/svg">
<path fill-rule="evenodd" clip-rule="evenodd" d="M11 4C11 5.10457 10.1046 6 8.99999 6C7.89542 6 6.99999 5.10457 6.99999 4C6.99999 2.89543 7.89542 2 8.99999 2C10.1046 2 11 2.89543 11 4ZM13 4C13 6.20914 11.2091 8 8.99999 8C8.25861 8 7.56433 7.7983 6.96905 7.44679L3.95763 10.4578C2.82929 11.5859 2.82922 13.4152 3.95748 14.5435C5.08568 15.6717 6.91486 15.6717 8.04306 14.5435L14.5432 8.04338C16.4525 6.13407 19.5481 6.13408 21.4574 8.04338C23.3667 9.95269 23.3667 13.0483 21.4574 14.9576L18.4465 17.9685C18.7982 18.5639 19 19.2584 19 20C19 22.2091 17.2092 24 15 24C12.7909 24 11 22.2091 11 20C11 17.7909 12.7909 16 15 16C15.742 16 16.4368 16.202 17.0324 16.5541L20.0432 13.5434C21.1714 12.4151 21.1714 10.5859 20.0432 9.45759C18.9149 8.32934 17.0856 8.32934 15.9574 9.45759L9.45727 15.9577C7.54802 17.8669 4.45252 17.8669 2.54327 15.9577C0.633915 14.0483 0.63403 10.9526 2.54352 9.04343L5.55442 6.03299C5.20215 5.43725 4.99999 4.74224 4.99999 4C4.99999 1.79086 6.79085 0 8.99999 0C11.2091 0 13 1.79086 13 4ZM15 22C16.1046 22 17 21.1046 17 20C17 18.8954 16.1046 18 15 18C13.8954 18 13 18.8954 13 20C13 21.1046 13.8954 22 15 22Z"/>
</svg>
