<svg viewBox="0 0 24 24" xmlns="http://www.w3.org/2000/svg">
<path fill-rule="evenodd" clip-rule="evenodd" d="M10 2H14C14.5523 2 15 2.44772 15 3V4H9V3C9 2.44772 9.44772 2 10 2ZM7 4V3C7 1.34315 8.34315 0 10 0H14C15.6569 0 17 1.34315 17 3V4H20C22.2091 4 24 5.79086 24 8V19C24 21.2091 22.2091 23 20 23H4C1.79086 23 0 21.2091 0 19V8C0 5.79086 1.79086 4 4 4H7ZM17 6H15H9H7H4C2.89543 6 2 6.89543 2 8V10H22V8C22 6.89543 21.1046 6 20 6H17ZM2 19V12H22V19C22 20.1046 21.1046 21 20 21H4C2.89543 21 2 20.1046 2 19ZM10 13C9.44772 13 9 13.4477 9 14C9 14.5523 9.44771 15 10 15H14C14.5523 15 15 14.5523 15 14C15 13.4477 14.5523 13 14 13H10Z"/>
</svg>
