<svg viewBox="0 0 24 24" xmlns="http://www.w3.org/2000/svg">
<path fill-rule="evenodd" clip-rule="evenodd" d="M1 1C0.447715 1 0 1.44772 0 2C0 2.55228 0.447715 3 1 3L8 3C8.55229 3 9 2.55228 9 2C9 1.44772 8.55228 1 8 1H1ZM11 2C11 1.44772 11.4477 1 12 1C18.0751 1 23 5.92487 23 12C23 18.0751 18.0751 23 12 23C5.92487 23 1 18.0751 1 12C1 11.4477 1.44772 11 2 11C2.55228 11 3 11.4477 3 12C3 16.9706 7.02944 21 12 21C16.9706 21 21 16.9706 21 12C21 7.02944 16.9706 3 12 3C11.4477 3 11 2.55228 11 2ZM11 6.5C11.5523 6.5 12 6.94772 12 7.5V11.382L15.4472 13.1056C15.9412 13.3526 16.1414 13.9532 15.8944 14.4472C15.6474 14.9412 15.0468 15.1414 14.5528 14.8944L10.5528 12.8944L10 12.618V12V7.5C10 6.94772 10.4477 6.5 11 6.5ZM0 5C0 4.44772 0.447715 4 1 4H6C6.55228 4 7 4.44772 7 5C7 5.55228 6.55228 6 6 6H1C0.447715 6 0 5.55228 0 5ZM1 7C0.447715 7 0 7.44772 0 8C0 8.55228 0.447715 9 1 9H3C3.55228 9 4 8.55228 4 8C4 7.44772 3.55228 7 3 7H1Z"/>
</svg>
