<svg viewBox="0 0 24 24" xmlns="http://www.w3.org/2000/svg">
<path fill-rule="evenodd" clip-rule="evenodd" d="M3 21.0006V9.01909L12 2.47363L21 9.01909V21.0006C21 21.5529 20.5523 22.0006 20 22.0006H19V22V18C19 16.8954 18.1046 16 17 16H16V12C16 10.8954 15.1046 10 14 10H10C8.89543 10 8 10.8954 8 12V16H7C5.89543 16 5 16.8954 5 18V22V22.0006H4C3.44772 22.0006 3 21.5529 3 21.0006ZM10 16H11H13H14V12H10V16ZM10 18H7V22H11V18H10ZM13 18V22H17V18H14H13ZM13.1763 0.856161L23 8.00064V21.0006C23 22.6575 21.6569 24.0006 20 24.0006H4C2.34315 24.0006 1 22.6575 1 21.0006V8.00064L10.8237 0.856161C11.525 0.346124 12.475 0.346123 13.1763 0.856161Z"/>
</svg>
