<svg width="112" height="112" viewBox="0 0 112 112" fill="none" xmlns="http://www.w3.org/2000/svg">
<g opacity="0.6" clip-path="url(#clip0_803_47855)">
<path d="M103.56 62.5523L99.6145 62.2041L98.4974 62.1037L98.1447 62.0683L96.1927 61.8913L93.3765 61.6434L92.524 61.5666L91.7773 61.301" stroke="white" stroke-linecap="round" stroke-linejoin="round"/>
<path d="M24.8334 97.47L21.9643 95.8056L14.3035 91.3671L13.3216 90.7532L12.3809 90.0686L11.4814 89.3249L10.6289 88.5104L9.81753 87.631L9.05322 86.6925L8.33594 85.6891L7.67157 84.6326L7.05424 83.5112L6.48394 82.3366L5.96656 81.1089L5.50209 79.8282L5.09641 78.4943L4.73777 77.1131L4.43204 75.6848L4.18511 74.2151L3.99109 72.6982L3.84999 71.1459L3.76768 69.5523L3.73828 67.9292L3.7618 66.4064L3.76768 65.769L3.78532 65.3853L3.84999 64.1045L3.98521 62.4106L4.17923 60.6989L4.42617 58.9578L4.72601 57.1989L5.07877 55.4282L5.48445 53.6398L5.94304 51.8455L6.44866 50.0394L7.01308 48.2333L7.64805 46.5453L8.33594 44.8395L9.05322 43.0098L9.81753 41.186L10.6289 39.3681L11.4814 37.5621L12.3809 35.7737L13.3216 34.003L14.3035 32.25L15.3206 30.5207L16.3789 28.8149L17.4783 27.1387L18.6072 25.4978L19.7654 23.8865L20.9589 22.3106L22.1818 20.7701L23.3048 19.3182L24.4395 17.9193L25.7212 16.5323L27.0264 15.1866L28.3434 13.8881L29.6839 12.6427L31.0361 11.4504L32.406 10.3113L33.7818 9.22529L35.1634 8.1983L36.5568 7.23623L37.6269 6.53976L37.9502 6.33318L38.497 6.00856L39.8022 5.22946L41.2192 4.43855L42.6302 3.71848L44.0412 3.06333L45.4405 2.4731L46.8339 1.9537L48.2215 1.50513L49.5914 1.12148L50.9436 0.814565L52.2841 0.578475L53.6011 0.413211L54.9004 0.318775L56.1704 0.295166L57.4227 0.342384L58.6456 0.466332L59.8332 0.661106L60.9973 0.926708L62.1261 1.26314L63.2197 1.67039L64.278 2.14848L65.301 2.69148L72.9618 7.13589L80.6285 11.5744L88.2893 16.0188L93.7218 19.1647L94.7507 19.7608L95.1446 19.991L95.2857 20.0736L95.9501 20.4573" stroke="white" stroke-linecap="round" stroke-linejoin="round"/>
<path d="M53.7812 18.3621L56.5093 19.9439" stroke="white" stroke-linecap="round" stroke-linejoin="round"/>
<path d="M97.0377 77.9453L96.0852 79.6511L95.074 81.3568L94.0275 83.039L92.9515 84.6975L91.8345 86.3206L90.688 87.9142L89.5062 89.4665L88.301 90.9893L87.0722 92.4649L85.814 93.905L84.5323 95.298L83.2271 96.6437L81.9101 97.9363L80.5696 99.1817L79.2174 100.374L77.8534 101.519L76.4717 102.599L75.0901 103.626L73.6967 104.588L72.3032 105.491L70.904 106.335L69.6164 107.055L69.0343 107.386L68.7992 107.51L67.6233 108.106L66.2122 108.767L64.8129 109.351L63.4195 109.871L62.032 110.319L60.6621 110.703L59.3099 111.01L57.9694 111.246L56.6524 111.411L55.3531 111.506L54.0831 111.529L52.8308 111.482L51.6079 111.358L50.4203 111.163L49.2562 110.898L48.1273 110.561L47.0338 110.154L45.9755 109.676L44.9525 109.133L43.9883 108.572" stroke="white" stroke-linecap="round" stroke-linejoin="round"/>
<path d="M29.6434 97.2871L28.4205 96.5847L27.8678 95.5754L27.5444 94.9026L24.8164 93.3267" stroke="white" stroke-linecap="round" stroke-linejoin="round"/>
<path d="M95.9492 20.4573L96.9311 21.0711L97.8718 21.7558L98.7713 22.5054L99.6238 23.314L100.435 24.1934L101.199 25.1319L101.917 26.1353L102.581 27.1977L103.198 28.3132L103.769 29.4877L104.286 30.7154L104.751 32.0021L105.156 33.3301L105.515 34.7112L105.821 36.1396L106.068 37.6152L106.262 39.1261L106.403 40.6784L106.473 42.0005L106.485 42.272L106.497 43.0688L106.514 43.8952V44.4146" stroke="white" stroke-linecap="round" stroke-linejoin="round"/>
<path d="M49.2089 68.8203L49.0384 69.4932L48.7797 70.6441L48.5504 71.7892L48.3564 72.9283L48.1977 74.0497L48.0742 75.1534L47.986 76.2513L47.9331 77.3255L47.9213 78.1164L47.9272 78.7479L47.9331 79.4149L47.986 80.4301L48.0742 81.4216L49.1325 85.9192L49.2795 86.6274L48.4269 87.6958L45.6107 91.2135L43.6529 93.657L42.189 95.4867L38.2439 100.415L37.3973 100.645L37.0328 100.433L30.2656 96.5078" stroke="white" stroke-linecap="round" stroke-linejoin="round"/>
<path d="M3.73828 67.9292V67.4098L3.7618 66.4064L3.84999 64.5886L3.99109 62.871L4.18511 61.1357L4.43204 59.3709L4.73777 57.5944L5.09641 55.8001L5.50209 53.9881L5.96656 52.1702L6.48394 50.3405L7.05424 48.5108L7.64805 46.5453L8.28302 44.6094L8.98854 42.7974L9.7411 40.9972L10.5407 39.2029L11.3873 37.4204L12.2692 35.6557L13.1982 33.9027L14.1683 32.1733L15.1795 30.4676L16.2201 28.7854L17.3019 27.1269L18.419 25.5038L19.5655 23.9161L20.7414 22.3579L21.9525 20.8351L23.3048 19.3182L24.7041 17.819L26.0034 16.4084L27.3204 15.045L28.655 13.7347L30.0131 12.4716L31.383 11.2616L32.7646 10.1107L34.1581 9.01284L35.5632 7.97404L36.9743 6.99427L38.497 6.00859L39.3495 5.48919L39.8022 5.22949" stroke="white" stroke-linecap="round" stroke-linejoin="round"/>
<path d="M70.9005 106.335L70.4478 106.595L69.6129 107.055L68.1078 107.828L66.7144 108.478L65.3268 109.056L63.9511 109.57L62.5871 110.012L61.2348 110.39L59.8943 110.691L58.5773 110.927L57.2721 111.092L55.9904 111.187L54.7322 111.205L53.4976 111.157L52.2923 111.039L51.1164 110.845L49.97 110.585L48.8529 110.254L47.7711 109.853L46.7246 109.381L45.7192 108.838L44.7491 108.236L44.4375 108.006" stroke="white" stroke-linecap="round" stroke-linejoin="round"/>
<path d="M77.4062 20.7111L77.8531 20.5459L79.2171 20.0973L80.5693 19.7254L81.9098 19.4185L83.2268 19.1883L84.532 19.0231L85.8137 18.9286L87.0719 18.905L88.3007 18.9581L89.506 19.0762L90.6877 19.2651L91.8342 19.5307L92.9513 19.8612L94.0272 20.2626L95.0737 20.7347L96.0849 21.2718L97.055 21.8798L97.9781 22.5526L98.8659 23.2904L99.7125 24.0931L100.512 24.9608L101.265 25.8933L101.97 26.879L102.635 27.9237L103.24 29.0333L103.805 30.1902L104.31 31.406L104.769 32.6691L105.174 33.9853L105.527 35.3487L105.827 36.7594L106.074 38.2113L106.268 39.7105L106.403 41.2451L106.486 42.8151L106.515 44.4146L106.486 46.0554L106.403 47.7199L106.268 49.4138L106.074 51.1314L105.827 52.8667L105.527 54.6255L105.174 56.3962L104.769 58.1846L104.31 59.9789L103.805 61.785L103.563 62.5523" stroke="white" stroke-linecap="round" stroke-linejoin="round"/>
<path d="M88.3359 37.5799L88.4947 37.45L88.6593 37.3025L89.5471 36.7594L89.9586 36.6001L90.4172 36.4171L91.1169 36.3227L91.2462 36.2991L91.9929 36.4053L92.0399 36.4289L92.6396 36.7358L92.7631 36.8598L93.157 37.267L93.2922 37.5445L93.5215 37.9871L93.6274 38.4652L93.7214 38.8725L93.7391 39.6161L93.7508 39.8758L93.6038 40.9737L93.5921 41.0091L93.2922 42.1128L93.0218 42.7798L92.8278 43.2519L92.5926 43.671L92.769 44.1491L93.0277 44.999L93.257 45.8784L93.451 46.7874L93.6097 47.7259L93.7332 48.6938L93.8214 49.6795L93.8743 50.6947L93.8919 51.7335L93.8743 52.79L93.8214 53.8642L93.7332 54.9561L93.6097 56.0658L93.451 57.1872L93.257 58.3204L93.0277 59.4655L92.769 60.6164L92.5279 61.5667" stroke="white" stroke-linecap="round" stroke-linejoin="round"/>
<path d="M49.207 68.8206L48.9777 68.6671L48.7837 68.4192L48.5133 68.0651L48.2076 67.3155L48.2017 67.286L48.0547 66.3593L48.0606 66.0878L48.0841 65.3205L48.1782 64.807L48.284 64.205L48.5133 63.4967L48.6485 63.06L49.0424 62.1982L49.1659 61.9326L49.7597 60.9351L49.8067 60.8584L50.5593 59.8786L50.6886 59.7488L51.3883 59.0405L51.8469 58.6864L52.2584 58.3677L53.1403 57.8896L53.3108 57.8365L53.4696 57.7892L54.0222 56.7504L54.6454 55.6349L55.2981 54.5312L55.9683 53.4452L56.6679 52.3769L57.3911 51.3322L58.126 50.2993L58.8903 49.2959L59.6664 48.3161L60.466 47.3599L61.2774 46.4333L62.1063 45.5361L62.9412 44.6685L63.7996 43.8304L64.658 43.0277L65.534 42.2545L66.4159 41.5167L66.8451 41.1862V37.7156V36.2696V34.9652V33.6549V27.6759V26.401L66.3924 25.616L59.2607 21.4785" stroke="white" stroke-linecap="round" stroke-linejoin="round"/>
<path d="M85.8884 76.5759L85.8296 76.6645L85.1358 77.7328L84.4127 78.7834L83.6719 79.8104L82.9134 80.8137L82.1315 81.7994L81.3378 82.7497L80.5264 83.6763L79.6974 84.5794L78.8567 85.447L78.0042 86.2851L77.1399 87.0879L76.2698 87.8552L75.3879 88.5929L75.1645 88.77L75.0645 89.2009L74.6529 90.34L74.6471 90.3459L74.0885 91.4614L73.8122 91.8864L73.4065 92.5061L72.8833 93.1318L72.6246 93.4446L71.9073 94.1115L71.7779 94.2296L70.9019 94.8434L70.02 95.2507L69.8965 95.2802L69.1793 95.4455L68.9147 95.4337L68.3973 95.41L67.9916 95.2625L67.7153 95.1562L67.1509 94.69V94.6841L67.0039 94.4539" stroke="white" stroke-linecap="round" stroke-linejoin="round"/>
<path d="M81.2305 35.2659L81.3363 35.26L82.13 35.2954L82.912 35.3722L83.6704 35.4961L84.4112 35.6673L85.1344 35.8797L85.8281 36.1394L86.5042 36.4405L87.1569 36.7887L87.7801 37.1841L88.3327 37.5796" stroke="white" stroke-linecap="round" stroke-linejoin="round"/>
<path d="M38.2444 100.415L38.0034 99.9195L37.4918 98.7095L37.0391 97.4405L36.6335 96.1243L36.2748 94.7609L35.975 93.3503L35.7339 91.8983L35.5399 90.405L35.4047 88.8704L35.3224 87.3004L35.293 85.695L35.3224 84.0601L35.4047 82.3957L35.5399 80.7017L35.7339 78.9841L35.975 77.2489L36.2748 75.49L36.6335 73.7134L37.0391 71.9309L37.4918 70.1307L38.0034 68.3306L38.5619 66.5186L39.1733 64.7066L39.8318 62.8946L40.5432 61.0885L41.2958 59.2824L42.0954 57.494L42.9361 55.7115L43.8239 53.9408L44.7529 52.1938L45.7229 50.4644L46.7283 48.7527L47.7748 47.0706L48.8566 45.418L49.9737 43.7948L51.1202 42.2012L52.2961 40.643L53.5013 39.1262L54.736 37.6447L55.9942 36.2104L57.2759 34.8175L58.5811 33.4718L59.8981 32.1733L61.2386 30.9279L62.5908 29.7357L63.9548 28.5965L65.3306 27.5164L66.7181 26.4894L66.8475 26.4009" stroke="white" stroke-linecap="round" stroke-linejoin="round"/>
<path d="M49.3369 86.781L49.2781 86.6275L49.1311 85.9192L49.0135 85.2936L48.7607 84.4614L48.5373 83.5938L48.3433 82.7025L48.1904 81.7818L48.0669 80.8374L47.9846 79.8694L47.9258 78.748L47.9141 78.3821L47.9199 78.1165" stroke="white" stroke-linecap="round" stroke-linejoin="round"/>
<path d="M68.5039 66.2058L75.6356 70.3374L76.2 70.9571L76.1588 71.1342L75.8472 71.5474L75.5297 71.9487L75.2005 72.3442L74.8654 72.7278L74.5244 73.0938L74.1775 73.4538L73.8247 73.7961L73.472 74.1266L73.1133 74.4454L72.7488 74.7464L72.5254 74.9235" stroke="white" stroke-linecap="round" stroke-linejoin="round"/>
<path d="M66.4296 41.5107L66.847 42.2426V42.6558V43.7654V44.4619V47.8203V49.1011V49.7031V50.736V50.7714V52.9375V54.661V56.0539V57.2049V57.4941L66.6059 57.7715L66.2767 58.1669L65.9592 58.5683L65.6417 58.9814L65.3419 59.4064L65.042 59.8373L64.7539 60.274L64.4776 60.7226L64.2072 61.1771L63.9543 61.6375L63.7074 62.1037L63.678 62.1569L63.4664 62.57L63.2429 63.0481L63.0313 63.5203L62.8314 64.0043L62.6433 64.4823L62.4669 64.9604L62.3081 65.4444L62.1553 65.9284L62.02 66.4065L61.9025 66.8846L61.7907 67.3568L61.6967 67.8289L61.6202 68.2952L61.5556 68.7615L61.5027 69.216L61.4674 69.6645L61.4439 70.1072V70.2784V70.3905L61.438 70.544L61.4615 70.9512L61.4674 71.2286V71.2818V71.3349V71.4116L60.6972 72.3737L59.7212 73.5895L58.5277 75.0828L57.0108 76.9715L56.4464 77.6857L56.3112 77.851L55.2823 79.1377L55.2 79.238L55.0412 79.4387L52.3426 82.803L51.7312 83.5703L50.132 85.5652L50.0732 85.6361L49.2266 85.8722" stroke="white" stroke-linecap="round" stroke-linejoin="round"/>
<path d="M87.3996 38.4768L86.9939 38.9254L86.2766 39.9347L85.6711 41.0325L85.2066 42.1775L85.0008 42.9271L84.895 43.3167L84.7656 44.2846" stroke="white" stroke-linecap="round" stroke-linejoin="round"/>
<path d="M85.4062 47.0824L85.4709 47.1532L85.859 47.5546L86.3763 47.8143L86.5057 47.8792L87.0407 47.9559L87.2524 47.9854L87.9461 47.8851L88.0813 47.8674L88.9515 47.5309L89.7393 47.0411L89.8393 46.982L90.6977 46.2502L91.5031 45.3648L91.5149 45.3471L91.8677 44.8513" stroke="white" stroke-linecap="round" stroke-linejoin="round"/>
<path d="M91.728 61.4955L91.6751 61.4896L90.0759 61.348L89.4586 61.2889L86.7658 61.047L86.6071 61.0352L86.5248 61.0292L85.4959 60.9348L85.3607 60.923L84.7904 60.8699L84.4023 60.8345" stroke="white" stroke-linecap="round" stroke-linejoin="round"/>
<path d="M97.3299 77.9746L86.6529 77.0185L76.1348 70.9214L75.635 70.3371L68.5034 66.2055L67.6568 63.762L67.0747 62.6406H67.0688L66.9336 62.375L67.9507 59.7485L68.3329 58.751" stroke="white" stroke-linecap="round" stroke-linejoin="round"/>
<path d="M83.5859 62.387L90.7176 66.5185" stroke="white" stroke-linecap="round" stroke-linejoin="round"/>
<path d="M103.809 61.7551L107.936 64.1455" stroke="white" stroke-linecap="round" stroke-linejoin="round"/>
<path d="M100.848 64.6123L104.452 66.7017" stroke="white" stroke-linecap="round" stroke-linejoin="round"/>
<path d="M86.6556 77.0184L85.6914 74.2149L86.7085 71.5943L87.7198 68.9678L90.7183 66.5183L101.389 67.4804" stroke="white" stroke-linecap="round" stroke-linejoin="round"/>
<path d="M100.848 64.6123L103.44 64.8425L104.316 64.9251L106.027 65.0786" stroke="white" stroke-linecap="round" stroke-linejoin="round"/>
<path d="M103.773 63.7742L106.354 64.0044L106.819 64.0457L107.936 64.146" stroke="white" stroke-linecap="round" stroke-linejoin="round"/>
<path d="M107.936 64.1458L107.63 64.9249L107.26 65.8869L106.919 66.7664L106.889 66.8431L106.519 67.7993L106.148 68.7554L105.907 69.3929L105.784 69.7116L105.413 70.6678L105.043 71.6239L104.89 72.0194L104.673 72.5801L104.302 73.5422L103.932 74.5042L103.879 74.64" stroke="white" stroke-linecap="round" stroke-linejoin="round"/>
<path d="M91.7773 61.301L92.524 61.5666L93.3765 61.6434L96.1927 61.8913L98.1447 62.0683L98.4974 62.1037L99.6145 62.2041L103.56 62.5523" stroke="white" stroke-linecap="round" stroke-linejoin="round"/>
<path d="M84.4023 60.8345L84.7904 60.8699L85.3607 60.923L85.4959 60.9348L86.5248 61.0292L86.6071 61.0352L86.7658 61.047L89.4586 61.2889L90.0759 61.348L91.6751 61.4896L91.728 61.4955" stroke="white" stroke-linecap="round" stroke-linejoin="round"/>
<path d="M99.2383 66.2354L99.5205 66.259L101.678 66.4537L101.849 66.4714L104.394 66.6957L104.447 66.7016" stroke="white" stroke-linecap="round" stroke-linejoin="round"/>
<path d="M101.389 67.4805L101.365 67.5572L101.224 68.0884L101.077 68.6255L100.924 69.1685L100.76 69.7056L100.63 70.1247L100.589 70.2427L100.413 70.7798L100.231 71.3228L100.037 71.8599L99.8366 72.3971L99.7014 72.7571L99.6309 72.9342L99.4133 73.4713L99.1958 74.0084L98.9665 74.5455L98.7313 75.0826L98.602 75.3718L98.4903 75.6138L98.2433 76.145L97.9905 76.6703L97.8435 76.9713L97.7259 77.2015L97.4614 77.7268L97.332 77.9747" stroke="white" stroke-linecap="round" stroke-linejoin="round"/>
<path d="M100.848 64.6123L104.452 66.7017" stroke="white" stroke-linecap="round" stroke-linejoin="round"/>
<path d="M53.9556 95.9649L50.3516 93.8755" stroke="white" stroke-linecap="round" stroke-linejoin="round"/>
<path d="M46.9731 104.836L44.3921 108.064L42.8164 110.036" stroke="white" stroke-linecap="round" stroke-linejoin="round"/>
<path d="M45.1758 100.344L46.8867 98.2077L47.7627 97.1158L50.3555 93.8755" stroke="white" stroke-linecap="round" stroke-linejoin="round"/>
<path d="M100.848 64.6123L103.44 64.8425L104.316 64.9251L106.027 65.0786" stroke="white" stroke-linecap="round" stroke-linejoin="round"/>
<path d="M77.2948 49.3605L75.1488 48.1152V45.8841V44.6269V42.5316V41.1446L71.5448 39.0552V36.1336V35.5847V32.12L69.293 30.8156V29.0922V27.351V25.2439L69.6457 25.0373L70.3865 24.6065L71.1273 24.1756L71.3213 24.0634L71.8681 23.7447L72.6089 23.3198L73.3497 22.8889L74.0846 22.4639L74.8254 22.0331L75.3781 21.7143L75.5662 21.6081L76.307 21.1772L77.0478 20.7464L77.4065 20.5398" stroke="white" stroke-linecap="round" stroke-linejoin="round"/>
<path d="M77.4062 20.5398V22.6528V24.3881V26.1115" stroke="white" stroke-linecap="round" stroke-linejoin="round"/>
<path d="M38.7617 104.24L39.8729 102.847L40.3374 102.269L42.9243 99.04" stroke="white" stroke-linecap="round" stroke-linejoin="round"/>
<path d="M54.4102 99.6714L53.3989 100.94L51.8174 102.906L49.5186 105.78L49.2305 106.14" stroke="white" stroke-linecap="round" stroke-linejoin="round"/>
<path d="M63.2325 95.2566L62.2801 96.4429L60.6221 98.5146L59.9577 99.341L58.0234 101.761" stroke="white" stroke-linecap="round" stroke-linejoin="round"/>
<path d="M107.935 64.1458L107.629 64.9249L107.258 65.8869L106.917 66.7664L106.888 66.8431L106.518 67.7993L106.147 68.7554L105.906 69.3929L105.783 69.7116L105.412 70.6678L105.042 71.6239L104.889 72.0194L104.672 72.5801L104.301 73.5422L103.931 74.5042L103.878 74.64L102.461 74.516" stroke="white" stroke-linecap="round" stroke-linejoin="round"/>
<path d="M104.448 66.7014L104.254 67.3802L104.048 68.0648L103.825 68.7554L103.602 69.446L103.361 70.1365L103.114 70.8271L102.861 71.5177L102.596 72.2023L102.326 72.8929L102.038 73.5776L101.75 74.2622L101.45 74.9469L101.197 75.5076L101.138 75.6315L100.821 76.3103L100.497 76.9891L100.391 77.2015L97.8398 76.9714" stroke="white" stroke-linecap="round" stroke-linejoin="round"/>
<path d="M101.199 75.5079L101.969 75.5728L102.334 74.7996L102.463 74.5163L102.71 73.9674L103.075 73.1352L103.427 72.3029L103.774 71.4648L104.109 70.6267L104.427 69.7827L104.739 68.9445L105.038 68.1064L105.332 67.2624L105.609 66.4243L105.873 65.5803L106.026 65.0786L103.774 63.7742L106.355 64.0044L106.82 64.0457L107.937 64.146" stroke="white" stroke-linecap="round" stroke-linejoin="round"/>
<path d="M49.2304 106.14L48.8659 105.786L48.4896 105.391L48.1251 104.984L47.7723 104.559L47.4255 104.122L47.0903 103.667L46.7728 103.201L46.4612 102.723L46.1614 102.233L45.8674 101.726L45.5911 101.206L45.3265 100.675L45.1737 100.344L42.9219 99.04" stroke="white" stroke-linecap="round" stroke-linejoin="round"/>
<path d="M59.168 89.4607L58.8917 89.8089L56.7339 92.5063L56.5634 92.7187L53.9883 95.9355L54.1588 96.4136L54.3646 96.8621L54.5821 97.2989L54.8114 97.7239L55.0466 98.1429L55.2935 98.5443L55.5522 98.9397L55.8168 99.3234L56.0872 99.6893L56.3694 100.049L56.6634 100.398L56.9632 100.734L57.269 101.059L57.5864 101.371L57.9157 101.667L58.0215 101.761" stroke="white" stroke-linecap="round" stroke-linejoin="round"/>
<path d="M75.1484 41.1448L75.4894 40.891L76.0186 40.5073L76.5477 40.1296L77.0827 39.7695L77.6119 39.4213L78.141 39.079L78.676 38.7544L79.2052 38.4415L79.7402 38.1346L80.2694 37.8454L80.8044 37.568L81.3335 37.3024L81.8627 37.0486L82.3918 36.8125L82.9209 36.5823L83.2619 36.4407" stroke="white" stroke-linecap="round" stroke-linejoin="round"/>
<path d="M77.293 49.3606L77.6222 49.095L78.0338 48.7763L78.4453 48.4694L78.8569 48.1683L79.2743 47.8732L79.3213 47.8437L79.6859 47.5958L80.1033 47.3184L80.5149 47.0528L80.9323 46.799L81.3497 46.557L81.7672 46.315L82.1846 46.0907L82.5961 45.8724L83.0136 45.6658L83.3781 45.4946L83.4251 45.471L83.8426 45.2821L84.2541 45.1051L84.6657 44.9339L85.0714 44.7745L85.4065 44.6565" stroke="white" stroke-linecap="round" stroke-linejoin="round"/>
<path d="M71.543 32.1201L71.7135 31.9962L72.3602 31.5417L73.0069 31.099L73.6537 30.6741L74.3004 30.2609L74.953 29.8596L75.5997 29.4759L76.2465 29.11L76.8991 28.7558L77.5458 28.4194L78.1925 28.0948L78.8392 27.782L79.486 27.4927L79.6565 27.416" stroke="white" stroke-linecap="round" stroke-linejoin="round"/>
<path d="M65.3707 96.4962L65.2413 96.3959L64.9709 96.1834L64.7122 95.9591L64.4594 95.723L64.2125 95.481L64.1007 95.3689L63.9714 95.2272L63.7362 94.9675L63.5069 94.696L63.2894 94.4127L63.0719 94.1235L63.0072 94.0231L62.8661 93.8284L62.6662 93.5155L62.4722 93.2027L62.2899 92.8781L62.1135 92.5476L62.0724 92.4708L61.943 92.2052L61.7784 91.857L61.6197 91.497L61.4727 91.131L61.3316 90.7592L61.3139 90.7061L59.168 89.4607" stroke="white" stroke-linecap="round" stroke-linejoin="round"/>
<path d="M42.8185 110.036L42.7656 109.959L42.3893 109.428L42.0189 108.897L41.8013 108.584L41.6485 108.365L41.2781 107.84L40.9077 107.309L40.7901 107.138L40.5432 106.784L40.1728 106.258L39.8024 105.727L39.773 105.686L39.432 105.202L39.0616 104.671L38.7617 104.24" stroke="white" stroke-linecap="round" stroke-linejoin="round"/>
<path d="M97.332 77.975L97.4614 77.7271L97.7259 77.2018L97.8435 76.9716L97.9905 76.6705L98.2433 76.1452L98.4903 75.614L98.602 75.3721L98.7313 75.0828L98.9665 74.5457L99.1958 74.0086L99.4133 73.4715L99.6309 72.9344L99.7014 72.7573L99.8366 72.3973L100.037 71.8602L100.231 71.3231L100.413 70.7801L100.589 70.243L100.63 70.1249L100.76 69.7059L100.924 69.1688L101.077 68.6258L101.224 68.0887L101.365 67.5575L101.389 67.4807L99.2428 66.2354L99.525 66.259L101.683 66.4537L101.853 66.4714L104.399 66.6957L104.452 66.7016" stroke="white" stroke-linecap="round" stroke-linejoin="round"/>
<path d="M74.7773 84.7446L75.0654 85.1991L75.3241 86.0313L75.4123 87.0052L75.3653 87.5423" stroke="white" stroke-linecap="round" stroke-linejoin="round"/>
<path d="M71.9835 77.3787L61.3125 90.706L61.3301 90.7591L61.4712 91.1309L61.6182 91.4969L61.777 91.8569L61.9416 92.2051L62.0709 92.4707L62.1121 92.5475L62.2885 92.878L62.4707 93.2026L62.6647 93.5154L62.8646 93.8283L63.0058 94.023L63.0704 94.1234L63.288 94.4126L63.5055 94.6959L63.7348 94.9674L63.97 95.2271L64.0993 95.3688L64.211 95.4809L64.458 95.7229L64.7108 95.959L64.9695 96.1833L65.2399 96.3958L65.3693 96.4961" stroke="white" stroke-linecap="round" stroke-linejoin="round"/>
<path d="M61.5781 68.5784L74.983 76.3516L75.9943 77.7977L77.0114 79.2497L76.0413 83.1688L65.3703 96.4961" stroke="white" stroke-linecap="round" stroke-linejoin="round"/>
<path d="M53.9556 95.9649L50.3516 93.8755" stroke="white" stroke-linecap="round" stroke-linejoin="round"/>
<path d="M58.0201 101.761L54.4102 99.6714" stroke="white" stroke-linecap="round" stroke-linejoin="round"/>
<path d="M50.3555 93.8755L47.7627 97.1158L46.8867 98.2077L45.1758 100.344" stroke="white" stroke-linecap="round" stroke-linejoin="round"/>
<path d="M42.9243 99.04L40.3374 102.269L39.8729 102.847L38.7617 104.24" stroke="white" stroke-linecap="round" stroke-linejoin="round"/>
<path d="M46.9731 104.836L44.3921 108.064L42.8164 110.036" stroke="white" stroke-linecap="round" stroke-linejoin="round"/>
<path d="M23.2734 95.2446L24.3141 96.7261L25.3253 98.1781L26.3425 99.6241L27.3772 101.106L30.1052 102.687L29.0646 101.206L30.5874 102.085L31.775 102.77L32.7862 104.222L42.8164 110.036" stroke="white" stroke-linecap="round" stroke-linejoin="round"/>
<path d="M23.2734 95.2446L26.0015 96.8264L27.0362 98.3079L29.7407 99.8779L28.7295 98.4259L29.6408 97.2868L30.264 96.5077" stroke="white" stroke-linecap="round" stroke-linejoin="round"/>
<path d="M26.0039 96.8267L27.5443 94.9026" stroke="white" stroke-linecap="round" stroke-linejoin="round"/>
<path d="M54.4102 99.6714L53.3989 100.94L51.8174 102.906L49.5186 105.78L49.2305 106.14" stroke="white" stroke-linecap="round" stroke-linejoin="round"/>
<path d="M63.2325 95.2566L62.2801 96.4429L60.6221 98.5146L59.9577 99.341L58.0234 101.761" stroke="white" stroke-linecap="round" stroke-linejoin="round"/>
<path d="M29.6434 97.2871L28.4205 96.5847L27.8678 95.5754L27.5444 94.9026L24.8164 93.3267" stroke="white" stroke-linecap="round" stroke-linejoin="round"/>
<path d="M49.2266 85.872L50.0732 85.6359L50.132 85.5651L51.7312 83.5701L52.3426 82.8028L55.0412 79.4386L55.2 79.2379L55.2823 79.1375L56.3112 77.8508L56.4464 77.6856L57.0108 76.9714L58.5277 75.0827L59.7212 73.5894L60.6972 72.3735L61.4674 71.4115V71.3347V71.2816V71.2285L61.4733 70.9275" stroke="white" stroke-linecap="round" stroke-linejoin="round"/>
<path d="M30.2656 96.5079L37.3973 100.645L38.2439 100.415L42.189 95.4869L43.6529 93.6571L45.6107 91.2136L48.4269 87.6959L49.2795 86.6276L49.2265 85.8721" stroke="white" stroke-linecap="round" stroke-linejoin="round"/>
<path d="M59.1661 89.4607L58.8898 89.8089L56.7321 92.5063L56.5616 92.7187L54.0158 95.9001L53.957 95.965" stroke="white" stroke-linecap="round" stroke-linejoin="round"/>
<path d="M42.8174 110.036L42.7645 109.959L42.3882 109.428L42.0178 108.897L41.8003 108.584L41.6474 108.366L41.277 107.84L40.9066 107.309L40.789 107.138L40.5421 106.784L40.1717 106.259L39.8013 105.727L39.7719 105.686L39.4309 105.202L39.0605 104.671L38.7606 104.24L28.7305 98.4263" stroke="white" stroke-linecap="round" stroke-linejoin="round"/>
<path d="M61.4609 71.2759L61.4668 71.2818L61.5374 71.3231L71.985 77.3788L74.9834 76.3518" stroke="white" stroke-linecap="round" stroke-linejoin="round"/>
<path d="M23.2734 95.2447L24.8138 93.3264" stroke="white" stroke-linecap="round" stroke-linejoin="round"/>
<path d="M30.1055 102.688V101.808" stroke="white" stroke-linecap="round" stroke-linejoin="round"/>
<path d="M59.2617 19.4302L69.2919 25.2439V27.351V29.0922V30.8156L71.5437 32.12V35.5847V36.1336V39.0552L75.1477 41.1446V42.5316V44.6269V45.8841V48.1152L77.2937 49.3606V63.945L79.3221 65.1196" stroke="white" stroke-linecap="round" stroke-linejoin="round"/>
<path d="M66.8461 41.1862V37.7156V36.2696V34.9652V33.6549V27.6759V26.401L66.3934 25.616L59.2617 21.4785V19.4304L59.6909 19.1825L61.2901 18.2559" stroke="white" stroke-linecap="round" stroke-linejoin="round"/>
<path d="M53.7812 16.3079L56.5093 17.8897L58.5847 16.6856L61.2892 18.2556" stroke="white" stroke-linecap="round" stroke-linejoin="round"/>
<path d="M66.619 57.7596L77.2959 63.9451L79.3243 65.1197L81.3526 63.9451L83.381 62.7706L85.4094 58.94V44.6566L83.2634 43.4171V41.186V39.9229V37.8276V36.4406L79.6594 34.3512V31.4296V30.8807V27.416L77.4076 26.1116V24.3882V22.6529V20.5399L67.3774 14.7262L65.349 15.9007L64.7199 15.5348L64.3848 15.3459L62.6445 14.3366L64.7199 13.1326" stroke="white" stroke-linecap="round" stroke-linejoin="round"/>
<path d="M56.5078 19.9436L57.7836 19.0582L58.5832 18.5388" stroke="white" stroke-linecap="round" stroke-linejoin="round"/>
<path d="M69.293 25.2439L69.6457 25.0373L70.3865 24.6065L71.1273 24.1756L71.3213 24.0634L71.8681 23.7447L72.6089 23.3198L73.3497 22.8889L74.0846 22.4639L74.8254 22.0331L75.3781 21.7143L75.5662 21.6081L76.307 21.1772L77.0478 20.7464L77.4065 20.5398" stroke="white" stroke-linecap="round" stroke-linejoin="round"/>
<path d="M85.4065 44.6565L85.0714 44.7745L84.6657 44.9339L84.2541 45.1051L83.8426 45.2821L83.4251 45.471L83.3781 45.4946L83.0136 45.6658L82.5961 45.8724L82.1846 46.0907L81.7672 46.315L81.3497 46.557L80.9323 46.799L80.5149 47.0528L80.1033 47.3184L79.6859 47.5958L79.3213 47.8437L79.2743 47.8732L78.8569 48.1683L78.4453 48.4694L78.0338 48.7763L77.6222 49.095L77.293 49.3606" stroke="white" stroke-linecap="round" stroke-linejoin="round"/>
<path d="M64.7169 15.5346V15.1863V13.1323L61.9888 11.5505L59.9134 12.7546L57.885 13.9291L55.8567 15.1037L53.7812 16.3078V18.3617L56.5093 19.9436" stroke="white" stroke-linecap="round" stroke-linejoin="round"/>
<path d="M58.582 18.5388L59.6873 19.1822" stroke="white" stroke-linecap="round" stroke-linejoin="round"/>
<path d="M54.4044 57.6L54.8101 57.5823L55.4215 57.7357L55.5273 57.7593L56.127 58.1548L56.5974 58.7568L56.8032 59.2703L56.909 59.5359L57.0442 60.4272L57.0501 60.4626L57.0266 61.4128L57.0207 61.5014L56.8737 62.3218L56.8208 62.6169L56.6385 63.1894L56.4563 63.7619L56.3269 64.0394L55.9448 64.8893L55.4215 65.7569L55.2981 65.9694L54.763 66.66L54.5455 66.9433L53.8517 67.6456L53.7224 67.7814L52.8464 68.4542L52.0644 68.8792L51.9645 68.9323L51.1061 69.1979L50.3006 69.2451L50.2888 69.2392L49.9361 69.1507L49.207 68.8261L49.1365 68.773L48.9777 68.6667L48.7837 68.4188L48.5133 68.0647L48.2076 67.3151L48.2017 67.2856L48.0547 66.3589L48.0606 66.0874L48.0841 65.3201L48.1782 64.8066L48.284 64.2046L48.5133 63.4963L48.6485 63.0596L49.0424 62.1978L49.1659 61.9322L49.7597 60.9348L49.8067 60.858L50.5593 59.8783L50.6886 59.7484L51.3883 59.0401L51.8469 58.686L52.2584 58.3673L53.1403 57.8892L53.3108 57.8361L53.4696 57.7889" stroke="white" stroke-linecap="round" stroke-linejoin="round"/>
<path d="M25.3438 59.0049L25.573 58.4087L25.7729 57.8893L25.9552 57.4231L26.1139 57.004L26.2668 56.6145L26.4079 56.2485L26.4961 56.0183L26.5431 55.9003L26.6725 55.5698L26.7959 55.2451L26.9194 54.9205L27.0429 54.6018L27.1722 54.2772L27.2957 53.9407L27.4309 53.5925L27.572 53.2325L27.7249 52.8429L27.8836 52.4179L28.0659 51.9576L28.2658 51.4323L28.4951 50.842" stroke="white" stroke-linecap="round" stroke-linejoin="round"/>
<path d="M19.0312 55.3454L19.2605 54.7493L19.4663 54.2299L19.6427 53.7636L19.8073 53.3446L19.9543 52.955L20.1013 52.5891L20.2306 52.2409L20.36 51.9103L20.4835 51.5857L20.6128 51.2611L20.7363 50.9424L20.8597 50.6177L20.9891 50.2813L21.1243 49.939L21.2654 49.573L21.4124 49.1835L21.577 48.7644L21.7593 48.2981L21.9592 47.7787L22.1885 47.1826" stroke="white" stroke-linecap="round" stroke-linejoin="round"/>
<path d="M22.1875 47.1826L22.6461 47.4482L23.0518 47.6784L23.4104 47.8909L23.7338 48.0798L24.0336 48.2509L24.3158 48.4162L24.5863 48.5696L24.845 48.7231L25.0919 48.8648L25.3447 49.0123L25.5916 49.154L25.8445 49.3015L26.1031 49.4491L26.3677 49.6025L26.6499 49.7678L26.9498 49.9449L27.279 50.1337L27.6377 50.3403L28.0375 50.5705L28.496 50.842" stroke="white" stroke-linecap="round" stroke-linejoin="round"/>
<path d="M25.3457 59.0049L24.8812 58.7393L24.4814 58.5032L24.1228 58.2966L23.7935 58.1077L23.4937 57.9307L23.2115 57.7713L22.9469 57.6119L22.6882 57.4644L22.4354 57.3168L22.1885 57.1752L21.9415 57.0335L21.6887 56.8859L21.43 56.7384L21.1655 56.579L20.8832 56.4138L20.5834 56.2426L20.2542 56.0537L19.8955 55.8472L19.4957 55.6111L19.0312 55.3455" stroke="white" stroke-linecap="round" stroke-linejoin="round"/>
<path d="M25.3438 59.0049L25.573 58.4087L25.7729 57.8893L25.9552 57.4231L26.1139 57.004L26.2668 56.6145L26.4079 56.2485L26.5431 55.9003L26.6725 55.5698L26.7959 55.2451L26.9194 54.9205L27.0429 54.6018L27.1722 54.2772L27.2957 53.9407L27.4309 53.5925L27.572 53.2325L27.7249 52.8429L27.8836 52.4179L28.0659 51.9576L28.2658 51.4323L28.4951 50.842" stroke="white" stroke-linecap="round" stroke-linejoin="round"/>
<path d="M19.0312 55.3454L19.2605 54.7493L19.4663 54.2299L19.6427 53.7636L19.8073 53.3446L19.9543 52.955L20.1013 52.5891L20.2306 52.2409L20.36 51.9103L20.4835 51.5857L20.6128 51.2611L20.7363 50.9424L20.8597 50.6177L20.9891 50.2813L21.1243 49.939L21.2654 49.573L21.4124 49.1835L21.577 48.7644L21.7593 48.2981L21.9592 47.7787L22.1885 47.1826" stroke="white" stroke-linecap="round" stroke-linejoin="round"/>
<path d="M30.1489 53.3211L30.096 53.9585L30.0019 54.5901L29.8667 55.2098L29.6962 55.8178L29.4904 56.408L29.2494 56.9805L28.973 57.5294L28.6673 58.0488L28.3263 58.5387L27.9618 58.9932L27.5679 59.4122L27.1504 59.79L26.7154 60.1323L26.2568 60.4274L25.7923 60.6753L25.3102 60.876L24.8163 61.0354L24.3166 61.1416L23.8168 61.2006L23.3112 61.2065L22.8115 61.1593L22.3176 61.0708L21.8355 60.9232L21.3593 60.7343L20.9007 60.4983L20.4656 60.2149L20.0423 59.8903L19.6484 59.5185L19.2721 59.1112L18.9311 58.6626L18.6136 58.1846L18.3373 57.6711L18.0845 57.134L17.8728 56.5673L17.6964 55.983L17.5553 55.381L17.4495 54.7613L17.3907 54.1356L17.3672 53.4982L17.3789 52.8607L17.4377 52.2233L17.5318 51.5976L17.667 50.972L17.8375 50.3641L18.0433 49.7738L18.2844 49.2013L18.5607 48.6583L18.8664 48.1389L19.2074 47.649L19.5719 47.1945L19.9659 46.7755L20.3774 46.3918L20.8184 46.0554L21.2711 45.7603L21.7414 45.5124L22.2235 45.3058L22.7174 45.1524L23.2171 45.0461L23.7169 44.9871L24.2166 44.9812L24.7164 45.0225L25.2102 45.117L25.6982 45.2586L26.1686 45.4475L26.6272 45.6895L27.0681 45.9728L27.4914 46.2974L27.8854 46.6633L28.2557 47.0765L28.6026 47.5192L28.9142 48.0032L29.1964 48.5108L29.4493 49.0538L29.6609 49.6145L29.8373 50.2047L29.9784 50.8067L30.0783 51.4265L30.143 52.0521L30.1665 52.6896L30.1489 53.3211Z" stroke="white" stroke-linecap="round" stroke-linejoin="round"/>
<path d="M22.1875 47.1826L22.6461 47.4482L23.0518 47.6784L23.4104 47.8909L23.7338 48.0798L24.0336 48.2509L24.3158 48.4162L24.5863 48.5696L24.845 48.7231L25.0919 48.8648L25.3447 49.0123L25.5916 49.154L25.8445 49.3015L26.1031 49.4491L26.3677 49.6025L26.6499 49.7678L26.9498 49.9449L27.279 50.1337L27.6377 50.3403L28.0375 50.5705L28.496 50.842" stroke="white" stroke-linecap="round" stroke-linejoin="round"/>
<path d="M25.3457 59.0049L24.8812 58.7393L24.4814 58.5032L24.1228 58.2966L23.7935 58.1077L23.4937 57.9307L23.2115 57.7713L22.9469 57.6119L22.6882 57.4644L22.4354 57.3168L22.1885 57.1752L21.9415 57.0335L21.6887 56.8859L21.43 56.7384L21.1655 56.579L20.8832 56.4138L20.5834 56.2426L20.2542 56.0537L19.8955 55.8472L19.4957 55.6111L19.0312 55.3455" stroke="white" stroke-linecap="round" stroke-linejoin="round"/>
<path d="M38.2444 100.415L37.0391 97.4404L35.5399 90.4049L35.293 85.6949L35.4047 82.3955" stroke="white" stroke-linecap="round" stroke-linejoin="round"/>
</g>
<defs>
<clipPath id="clip0_803_47855">
<rect width="112" height="112" fill="white"/>
</clipPath>
</defs>
</svg>
